<?xml version="1.0" encoding="UTF-8"?>
<svg id="Layer_1" data-name="Layer 1" xmlns="http://www.w3.org/2000/svg" xmlns:xlink="http://www.w3.org/1999/xlink" viewBox="0 0 1920 1080">
  <defs>
    <style>
      .cls-1 {
        fill: #dfdfd6;
        clip-path: url(#clippath-17);
      }

      .cls-2 {
        fill: #dfdfd6;
        clip-path: url(#clippath-4);
      }

      .cls-3 {
        stroke: #dfdfd6;
        stroke-linecap: round;
        stroke-linejoin: round;
        stroke-width: 6px;
      }

      .cls-3, .cls-4 {
        fill: none;
      }

      .cls-5 {
        fill: #dfdfd6;
        clip-path: url(#clippath-9);
      }

      .cls-6 {
        fill: #adadb0;
        fill-rule: evenodd;
      }

      .cls-7 {
        fill: #dfdfd6;
        clip-path: url(#clippath-1);
      }

      .cls-8 {
        fill: #dfdfd6;
      }

      .cls-9 {
        fill: #dfdfd6;
        clip-path: url(#clippath-5);
      }

      .cls-10 {
        fill: #dfdfd6;
        clip-path: url(#clippath-8);
      }

      .cls-11 {
        fill: #dfdfd6;
        clip-path: url(#clippath-12);
      }

      .cls-4 {
        fill: #dfdfd6;
        clip-rule: evenodd;
      }

      .cls-12 {
        fill: #dfdfd6;
        clip-path: url(#clippath-16);
      }

      .cls-13 {
        fill: #dfdfd6;
        clip-path: url(#clippath-13);
      }

      .cls-14 {
        fill: #dfdfd6;
        clip-path: url(#clippath);
      }
    </style>
    <clipPath id="clippath">
      <polygon class="cls-4" points="846.75 444.16 1666.54 444.16 1666.54 529.56 846.75 529.56 846.75 444.16 846.75 444.16"/>
    </clipPath>
    <clipPath id="clippath-1">
      <polygon class="cls-4" points="844.61 442.03 1666.54 442.03 1666.54 529.56 844.61 529.56 844.61 442.03 844.61 442.03"/>
    </clipPath>
    <clipPath id="clippath-4">
      <polygon class="cls-4" points="672.09 241.48 808.72 241.48 808.72 326.88 672.09 326.88 672.09 241.48 672.09 241.48"/>
    </clipPath>
    <clipPath id="clippath-5">
      <polygon class="cls-4" points="669.95 239.35 808.72 239.35 808.72 326.88 669.95 326.88 669.95 239.35 669.95 239.35"/>
    </clipPath>
    <clipPath id="clippath-8">
      <polygon class="cls-4" points="1652.36 240.51 1788.68 240.51 1788.68 325.72 1652.36 325.72 1652.36 240.51 1652.36 240.51"/>
    </clipPath>
    <clipPath id="clippath-9">
      <polygon class="cls-4" points="1650.23 238.38 1788.68 238.38 1788.68 325.72 1650.23 325.72 1650.23 238.38 1650.23 238.38"/>
    </clipPath>
    <clipPath id="clippath-12">
      <polygon class="cls-4" points="887.68 598.28 1014.72 598.28 1014.72 683.64 887.68 683.64 887.68 598.28 887.68 598.28"/>
    </clipPath>
    <clipPath id="clippath-13">
      <polygon class="cls-4" points="885.7 596.3 1014.72 596.3 1014.72 683.64 885.7 683.64 885.7 596.3 885.7 596.3"/>
    </clipPath>
    <clipPath id="clippath-16">
      <polygon class="cls-4" points="1500.63 598.23 1627.84 598.23 1627.84 683.69 1500.63 683.69 1500.63 598.23 1500.63 598.23"/>
    </clipPath>
    <clipPath id="clippath-17">
      <polygon class="cls-4" points="1498.65 596.24 1627.84 596.24 1627.84 683.69 1498.65 683.69 1498.65 596.24 1498.65 596.24"/>
    </clipPath>
  </defs>
  <g>
    <path class="cls-8" d="M14.05,397.93h47.22c11.05,0,21.01,1.69,29.85,5.07,8.84,3.38,16.39,8.16,22.63,14.34,6.24,6.18,11.02,13.56,14.34,22.15,3.32,8.58,4.98,18.02,4.98,28.29s-1.66,19.9-4.98,28.49c-3.32,8.58-8.1,15.94-14.34,22.05-6.24,6.12-13.79,10.86-22.63,14.24-8.85,3.38-18.8,5.07-29.85,5.07H14.05v-139.7ZM60.09,512.66c7.67,0,14.44-1.07,20.29-3.22,5.85-2.15,10.73-5.17,14.63-9.07s6.83-8.62,8.78-14.15c1.95-5.53,2.93-11.67,2.93-18.44s-.98-12.91-2.93-18.44c-1.95-5.53-4.88-10.24-8.78-14.15s-8.78-6.93-14.63-9.07c-5.85-2.15-12.62-3.22-20.29-3.22h-19.71v89.75h19.71Z"/>
    <path class="cls-8" d="M238.82,514.61c-4.42,7.8-10.38,14.12-17.85,18.93-7.48,4.81-16.62,7.22-27.41,7.22-7.29,0-14.02-1.27-20.19-3.81-6.18-2.54-11.54-6.08-16.1-10.63-4.55-4.55-8.1-9.92-10.63-16.1-2.54-6.18-3.81-12.98-3.81-20.39,0-6.89,1.24-13.43,3.71-19.61,2.47-6.18,5.92-11.58,10.34-16.19,4.42-4.62,9.66-8.29,15.71-11.02,6.05-2.73,12.71-4.1,20-4.1,7.67,0,14.5,1.27,20.49,3.8,5.98,2.54,10.99,6.05,15.02,10.54,4.03,4.49,7.09,9.79,9.17,15.9,2.08,6.12,3.12,12.75,3.12,19.9v2.34c-.13.78-.2,1.5-.2,2.15-.13.65-.2,1.37-.2,2.15h-72c.52,3.9,1.59,7.25,3.22,10.05,1.62,2.8,3.64,5.14,6.05,7.02,2.41,1.89,5.04,3.25,7.9,4.1,2.86.85,5.79,1.27,8.78,1.27,5.85,0,10.7-1.33,14.54-4,3.84-2.66,6.86-6.02,9.07-10.05l21.27,10.54ZM215.6,477.54c-.13-1.69-.68-3.58-1.66-5.66-.98-2.08-2.41-4.03-4.29-5.85-1.89-1.82-4.23-3.32-7.02-4.49-2.8-1.17-6.15-1.76-10.05-1.76-5.46,0-10.28,1.56-14.44,4.68-4.16,3.12-7.09,7.48-8.78,13.07h46.24Z"/>
    <path class="cls-8" d="M327.4,539.78l1.56-13.66h-1.56c-2.34,4.03-5.99,7.48-10.93,10.34-4.95,2.86-11.06,4.29-18.34,4.29-6.12,0-11.94-1.27-17.46-3.81-5.53-2.54-10.41-6.05-14.63-10.54-4.23-4.49-7.58-9.85-10.05-16.1-2.47-6.24-3.71-13.07-3.71-20.49s1.24-14.24,3.71-20.49c2.47-6.24,5.82-11.61,10.05-16.1,4.23-4.49,9.1-8,14.63-10.54,5.53-2.54,11.35-3.8,17.46-3.8,7.28,0,13.4,1.43,18.34,4.29,4.94,2.86,8.58,6.31,10.93,10.34h1.56v-11.51h24v137.75h-25.56v-40ZM303.4,517.15c3.38,0,6.6-.62,9.66-1.85,3.05-1.23,5.76-3.02,8.1-5.37s4.23-5.2,5.66-8.59c1.43-3.38,2.15-7.22,2.15-11.51s-.72-8.13-2.15-11.51c-1.43-3.38-3.32-6.24-5.66-8.58s-5.04-4.13-8.1-5.37c-3.06-1.23-6.28-1.85-9.66-1.85s-6.6.65-9.66,1.95c-3.06,1.3-5.76,3.12-8.1,5.46-2.34,2.34-4.23,5.2-5.66,8.58-1.43,3.38-2.15,7.16-2.15,11.32s.71,7.94,2.15,11.32c1.43,3.38,3.32,6.24,5.66,8.58,2.34,2.34,5.04,4.16,8.1,5.46,3.05,1.3,6.27,1.95,9.66,1.95Z"/>
    <path class="cls-8" d="M440.18,525.15h-1.56c-2.99,4.81-7.02,8.62-12.1,11.41-5.07,2.8-10.86,4.2-17.37,4.2-12.1,0-21.11-3.71-27.02-11.12-5.92-7.41-8.88-17.3-8.88-29.66v-57.95h25.56v54.83c0,6.9,1.53,12,4.59,15.32,3.05,3.32,7.51,4.98,13.37,4.98,3.51,0,6.6-.75,9.27-2.24,2.66-1.49,4.94-3.51,6.83-6.05,1.88-2.54,3.32-5.53,4.29-8.98.98-3.44,1.46-7.12,1.46-11.02v-46.83h25.56v95.61h-24v-12.49Z"/>
    <path class="cls-8" d="M575.59,514.61c-4.42,7.8-10.38,14.12-17.85,18.93-7.48,4.81-16.62,7.22-27.41,7.22-7.29,0-14.02-1.27-20.19-3.81-6.18-2.54-11.54-6.08-16.1-10.63-4.55-4.55-8.1-9.92-10.63-16.1-2.54-6.18-3.81-12.98-3.81-20.39,0-6.89,1.24-13.43,3.71-19.61,2.47-6.18,5.92-11.58,10.34-16.19,4.42-4.62,9.66-8.29,15.71-11.02,6.05-2.73,12.71-4.1,20-4.1,7.67,0,14.5,1.27,20.49,3.8,5.98,2.54,10.99,6.05,15.02,10.54,4.03,4.49,7.09,9.79,9.17,15.9,2.08,6.12,3.12,12.75,3.12,19.9v2.34c-.13.78-.2,1.5-.2,2.15-.13.65-.2,1.37-.2,2.15h-72c.52,3.9,1.59,7.25,3.22,10.05,1.62,2.8,3.64,5.14,6.05,7.02,2.41,1.89,5.04,3.25,7.9,4.1,2.86.85,5.79,1.27,8.78,1.27,5.85,0,10.7-1.33,14.54-4,3.84-2.66,6.86-6.02,9.07-10.05l21.27,10.54ZM552.37,477.54c-.13-1.69-.68-3.58-1.66-5.66-.98-2.08-2.41-4.03-4.29-5.85-1.89-1.82-4.23-3.32-7.02-4.49-2.8-1.17-6.15-1.76-10.05-1.76-5.46,0-10.28,1.56-14.44,4.68-4.16,3.12-7.09,7.48-8.78,13.07h46.24Z"/>
    <path class="cls-8" d="M16.39,576.25h13.59c3.18,0,6.04.49,8.59,1.46,2.54.97,4.72,2.35,6.51,4.13,1.8,1.78,3.17,3.9,4.13,6.37.95,2.47,1.43,5.19,1.43,8.14s-.48,5.73-1.43,8.2-2.33,4.59-4.13,6.34c-1.8,1.76-3.97,3.13-6.51,4.1-2.55.97-5.41,1.46-8.59,1.46h-13.59v-40.2ZM29.64,609.26c2.21,0,4.16-.31,5.84-.93,1.68-.62,3.09-1.49,4.21-2.61,1.12-1.12,1.96-2.48,2.53-4.07.56-1.59.84-3.36.84-5.31s-.28-3.71-.84-5.31-1.4-2.95-2.53-4.07c-1.12-1.12-2.53-1.99-4.21-2.61-1.68-.62-3.63-.93-5.84-.93h-5.67v25.83h5.67Z"/>
    <path class="cls-8" d="M72.82,613.53h-.45c-.86,1.05-1.9,1.95-3.12,2.7-1.22.75-2.78,1.12-4.69,1.12-1.42,0-2.76-.23-4.01-.7s-2.35-1.11-3.28-1.94-1.67-1.82-2.19-2.98c-.52-1.16-.79-2.43-.79-3.82s.28-2.7.84-3.85c.56-1.14,1.35-2.12,2.36-2.95,1.01-.82,2.2-1.45,3.57-1.88,1.37-.43,2.85-.65,4.46-.65,1.8,0,3.27.14,4.44.42,1.16.28,2.11.57,2.86.87v-.84c0-1.46-.58-2.67-1.74-3.62-1.16-.95-2.6-1.43-4.32-1.43-2.55,0-4.7,1.07-6.46,3.2l-5.33-3.65c2.92-3.67,6.91-5.5,11.96-5.5,4.27,0,7.52,1,9.77,3,2.25,2,3.37,4.97,3.37,8.9v16.51h-7.24v-2.92ZM72.82,605.28c-.86-.41-1.75-.74-2.67-.98-.92-.24-1.92-.36-3-.36-1.76,0-3.12.38-4.07,1.15-.96.77-1.43,1.71-1.43,2.84s.46,2.02,1.38,2.7,1.97,1.01,3.17,1.01c.97,0,1.87-.18,2.69-.53.82-.36,1.53-.82,2.11-1.4.58-.58,1.03-1.25,1.35-2.02.32-.77.48-1.56.48-2.39Z"/>
    <path class="cls-8" d="M88.37,595.23h-4.83v-6.29h4.83v-8.42h7.36v8.42h6.74v6.29h-6.74v10.99c0,.66.07,1.26.2,1.82.13.56.38,1.03.76,1.42.52.62,1.27.93,2.25.93.64,0,1.14-.07,1.52-.2.37-.13.73-.31,1.07-.53l2.08,6.46c-.86.41-1.79.72-2.78.93-.99.21-2.09.31-3.28.31-1.39,0-2.63-.22-3.73-.66-1.1-.44-2.03-1.04-2.78-1.81-1.76-1.72-2.64-4.16-2.64-7.34v-12.32Z"/>
    <path class="cls-8" d="M124.25,613.53h-.45c-.86,1.05-1.9,1.95-3.12,2.7-1.22.75-2.78,1.12-4.69,1.12-1.42,0-2.76-.23-4.01-.7s-2.35-1.11-3.28-1.94-1.67-1.82-2.19-2.98c-.52-1.16-.79-2.43-.79-3.82s.28-2.7.84-3.85c.56-1.14,1.35-2.12,2.36-2.95,1.01-.82,2.2-1.45,3.57-1.88,1.37-.43,2.85-.65,4.46-.65,1.8,0,3.27.14,4.44.42,1.16.28,2.11.57,2.86.87v-.84c0-1.46-.58-2.67-1.74-3.62-1.16-.95-2.6-1.43-4.32-1.43-2.55,0-4.7,1.07-6.46,3.2l-5.33-3.65c2.92-3.67,6.91-5.5,11.96-5.5,4.27,0,7.52,1,9.77,3,2.25,2,3.37,4.97,3.37,8.9v16.51h-7.24v-2.92ZM124.25,605.28c-.86-.41-1.75-.74-2.67-.98-.92-.24-1.92-.36-3-.36-1.76,0-3.12.38-4.07,1.15-.96.77-1.43,1.71-1.43,2.84s.46,2.02,1.38,2.7,1.97,1.01,3.17,1.01c.97,0,1.87-.18,2.69-.53.82-.36,1.53-.82,2.11-1.4.58-.58,1.03-1.25,1.35-2.02.32-.77.48-1.56.48-2.39Z"/>
    <path class="cls-8" d="M161.19,617.35c-1.72,0-3.37-.24-4.94-.73-1.57-.49-3.01-1.22-4.32-2.19-1.31-.97-2.45-2.16-3.42-3.57-.97-1.4-1.74-3.04-2.3-4.91l7.13-2.81c.52,2.02,1.44,3.7,2.75,5.03,1.31,1.33,3.03,1.99,5.17,1.99.79,0,1.54-.1,2.27-.31.73-.21,1.38-.5,1.96-.9.58-.39,1.04-.89,1.38-1.49s.5-1.29.5-2.08-.13-1.42-.39-2.02c-.26-.6-.7-1.16-1.32-1.68-.62-.52-1.42-1.03-2.42-1.52s-2.22-.99-3.68-1.52l-2.47-.9c-1.09-.37-2.18-.88-3.29-1.52-1.1-.64-2.11-1.4-3-2.3s-1.64-1.96-2.22-3.17c-.58-1.22-.87-2.59-.87-4.13s.31-3.04.93-4.41c.62-1.37,1.5-2.56,2.64-3.59,1.14-1.03,2.51-1.83,4.1-2.42,1.59-.58,3.36-.87,5.31-.87s3.77.27,5.25.81c1.48.54,2.73,1.24,3.76,2.08,1.03.84,1.86,1.77,2.5,2.78.64,1.01,1.1,1.96,1.4,2.86l-6.68,2.81c-.37-1.12-1.06-2.13-2.05-3.03-.99-.9-2.35-1.35-4.07-1.35s-3.01.38-4.1,1.15c-1.09.77-1.63,1.77-1.63,3s.52,2.22,1.57,3.06c1.05.84,2.71,1.66,5,2.44l2.53.84c1.61.56,3.08,1.21,4.41,1.94,1.33.73,2.47,1.6,3.43,2.61.95,1.01,1.68,2.16,2.19,3.45.5,1.29.76,2.78.76,4.46,0,2.1-.42,3.9-1.26,5.42-.84,1.52-1.92,2.76-3.23,3.73-1.31.97-2.79,1.7-4.44,2.19-1.65.49-3.26.73-4.83.73Z"/>
    <path class="cls-8" d="M181.91,595.23h-4.83v-6.29h4.83v-8.42h7.36v8.42h6.74v6.29h-6.74v10.99c0,.66.07,1.26.2,1.82.13.56.38,1.03.76,1.42.52.62,1.27.93,2.25.93.64,0,1.14-.07,1.52-.2.37-.13.73-.31,1.07-.53l2.08,6.46c-.86.41-1.79.72-2.78.93-.99.21-2.09.31-3.28.31-1.39,0-2.63-.22-3.73-.66-1.1-.44-2.03-1.04-2.78-1.81-1.76-1.72-2.64-4.16-2.64-7.34v-12.32Z"/>
    <path class="cls-8" d="M201.39,588.94h6.91v3.82h.45c.34-.67.79-1.29,1.35-1.85s1.19-1.05,1.88-1.47c.69-.42,1.44-.75,2.25-1.01.8-.26,1.6-.38,2.39-.38.97,0,1.8.1,2.5.31.69.21,1.28.48,1.77.81l-1.96,6.57c-.45-.22-.95-.4-1.49-.53-.54-.13-1.21-.2-1.99-.2-1.01,0-1.93.2-2.75.59-.82.4-1.53.95-2.11,1.67-.58.71-1.03,1.55-1.35,2.51-.32.96-.48,2-.48,3.13v13.55h-7.35v-27.51Z"/>
    <path class="cls-8" d="M243.28,612.86h-.45c-.86,1.39-2.02,2.48-3.48,3.29s-3.13,1.21-5,1.21c-3.48,0-6.07-1.07-7.78-3.2-1.7-2.13-2.55-4.98-2.55-8.53v-16.68h7.35v15.78c0,1.98.44,3.45,1.32,4.41.88.95,2.16,1.43,3.85,1.43,1.01,0,1.9-.21,2.67-.65.77-.43,1.42-1.01,1.96-1.74.54-.73.96-1.59,1.24-2.58.28-.99.42-2.05.42-3.17v-13.47h7.36v27.51h-6.91v-3.59Z"/>
    <path class="cls-8" d="M282.3,609.43c-1.2,2.32-2.87,4.22-5.03,5.7-2.15,1.48-4.84,2.22-8.06,2.22-2.13,0-4.09-.37-5.87-1.09-1.78-.73-3.31-1.75-4.6-3.06-1.29-1.31-2.3-2.85-3.03-4.63-.73-1.78-1.09-3.73-1.09-5.87s.37-4.1,1.09-5.9,1.74-3.34,3.03-4.63c1.29-1.29,2.83-2.3,4.6-3.03,1.78-.73,3.73-1.09,5.87-1.09,3.18,0,5.86.73,8.03,2.19s3.76,3.35,4.77,5.67l-6.74,2.81c-.64-1.27-1.45-2.24-2.44-2.89-.99-.65-2.24-.98-3.73-.98-.97,0-1.89.19-2.75.56-.86.37-1.62.9-2.27,1.57-.66.67-1.17,1.5-1.54,2.47-.38.97-.56,2.06-.56,3.26s.19,2.28.56,3.26c.37.97.89,1.8,1.54,2.47.65.67,1.41,1.2,2.27,1.57.86.38,1.78.56,2.75.56,1.54,0,2.84-.35,3.9-1.04,1.07-.69,1.92-1.69,2.55-3l6.74,2.92Z"/>
    <path class="cls-8" d="M289.54,595.23h-4.83v-6.29h4.83v-8.42h7.36v8.42h6.74v6.29h-6.74v10.99c0,.66.07,1.26.2,1.82.13.56.38,1.03.76,1.42.52.62,1.27.93,2.25.93.64,0,1.14-.07,1.52-.2.37-.13.73-.31,1.07-.53l2.08,6.46c-.86.41-1.79.72-2.78.93-.99.21-2.09.31-3.28.31-1.39,0-2.63-.22-3.73-.66-1.1-.44-2.03-1.04-2.78-1.81-1.76-1.72-2.64-4.16-2.64-7.34v-12.32Z"/>
    <path class="cls-8" d="M328.06,612.86h-.45c-.86,1.39-2.02,2.48-3.48,3.29s-3.13,1.21-5,1.21c-3.48,0-6.07-1.07-7.78-3.2-1.7-2.13-2.55-4.98-2.55-8.53v-16.68h7.35v15.78c0,1.98.44,3.45,1.32,4.41.88.95,2.16,1.43,3.85,1.43,1.01,0,1.9-.21,2.67-.65.77-.43,1.42-1.01,1.96-1.74.54-.73.96-1.59,1.24-2.58.28-.99.42-2.05.42-3.17v-13.47h7.36v27.51h-6.91v-3.59Z"/>
    <path class="cls-8" d="M341.25,588.94h6.91v3.82h.45c.34-.67.79-1.29,1.35-1.85s1.19-1.05,1.88-1.47c.69-.42,1.44-.75,2.25-1.01.8-.26,1.6-.38,2.39-.38.97,0,1.8.1,2.5.31.69.21,1.28.48,1.77.81l-1.96,6.57c-.45-.22-.95-.4-1.49-.53-.54-.13-1.21-.2-1.99-.2-1.01,0-1.93.2-2.75.59-.82.4-1.53.95-2.11,1.67-.58.71-1.03,1.55-1.35,2.51-.32.96-.48,2-.48,3.13v13.55h-7.35v-27.51Z"/>
    <path class="cls-8" d="M388.47,609.83c-1.27,2.25-2.99,4.06-5.14,5.45-2.15,1.38-4.78,2.08-7.89,2.08-2.1,0-4.03-.37-5.81-1.09-1.78-.73-3.32-1.75-4.63-3.06-1.31-1.31-2.33-2.85-3.06-4.63-.73-1.78-1.09-3.73-1.09-5.87,0-1.98.36-3.86,1.07-5.64.71-1.78,1.7-3.33,2.98-4.66,1.27-1.33,2.78-2.39,4.52-3.17,1.74-.79,3.66-1.18,5.75-1.18,2.21,0,4.17.37,5.9,1.09,1.72.73,3.16,1.74,4.32,3.03,1.16,1.29,2.04,2.82,2.64,4.58.6,1.76.9,3.67.9,5.73v.67c-.04.22-.06.43-.06.62-.04.19-.06.39-.06.62h-20.72c.15,1.12.46,2.09.93,2.89s1.05,1.48,1.74,2.02c.69.54,1.45.94,2.27,1.18.82.24,1.67.37,2.53.37,1.68,0,3.08-.38,4.18-1.15,1.1-.77,1.97-1.73,2.61-2.89l6.12,3.03ZM381.79,599.16c-.04-.49-.2-1.03-.48-1.63-.28-.6-.69-1.16-1.24-1.68-.54-.52-1.22-.96-2.02-1.29-.81-.34-1.77-.5-2.89-.5-1.57,0-2.96.45-4.16,1.35s-2.04,2.15-2.53,3.76h13.31Z"/>
  </g>
  <g>
    <g class="cls-14">
      <path d="M918.27,473.51v21.9h-2.95v-18.25l-4.26,1.86-1.12-2.5,6.44-3.01h1.89Z"/>
      <path d="M1058.39,492.6v2.82h-13.96v-2.95l5.67-5.73c1.9-1.94,3.21-3.4,3.94-4.37.73-.97,1.09-1.99,1.09-3.06,0-.96-.37-1.78-1.12-2.47s-1.71-1.02-2.88-1.02c-1,0-1.87.3-2.59.9-.73.6-1.2,1.32-1.41,2.18l-2.69-1.09c.43-1.34,1.25-2.48,2.47-3.41,1.22-.93,2.65-1.39,4.29-1.39,1.99,0,3.64.61,4.96,1.83,1.32,1.22,1.99,2.71,1.99,4.48,0,2.11-1.16,4.4-3.49,6.85l-6.4,6.44h10.15Z"/>
      <path d="M1195.52,489.21c0,1.92-.72,3.52-2.15,4.8-1.41,1.28-3.16,1.92-5.25,1.92-1.64,0-3.13-.49-4.45-1.47-1.34-1.02-2.25-2.36-2.72-4l2.69-1.12c.34,1.22.9,2.15,1.68,2.8.78.65,1.71.98,2.8.98,1.2,0,2.23-.37,3.11-1.12.85-.77,1.28-1.7,1.28-2.79s-.45-2.01-1.34-2.75c-.88-.75-1.93-1.12-3.17-1.12h-1.89v-2.75h1.67c1.17,0,2.13-.33,2.88-.98.75-.65,1.12-1.5,1.12-2.55,0-.96-.35-1.74-1.06-2.34-.7-.6-1.63-.9-2.79-.9-1.86,0-3.13.95-3.81,2.85l-2.72-1.15c.49-1.35,1.31-2.43,2.47-3.27,1.15-.83,2.51-1.25,4.07-1.25,1.94,0,3.58.58,4.9,1.73,1.3,1.11,1.95,2.55,1.95,4.32,0,2.11-.98,3.68-2.95,4.71v.13c1.15.49,2.05,1.21,2.71,2.15.65.94.98,2,.98,3.17Z"/>
      <path d="M1328.91,490.81v4.61h-2.95v-4.61h-10.41v-2.24l10.15-15.05h3.2v14.54h2.82v2.75h-2.82ZM1318.89,488.05h7.08v-10.22h-.13l-6.95,10.22Z"/>
      <path d="M1469.3,488.56c0,2.09-.73,3.84-2.18,5.25-1.45,1.41-3.25,2.11-5.38,2.11-1.71,0-3.26-.53-4.64-1.6-1.39-1.07-2.31-2.51-2.75-4.32l2.63-1.06c.32,1.28.9,2.3,1.75,3.04.84.75,1.83,1.12,2.96,1.12,1.37,0,2.48-.42,3.35-1.27.86-.84,1.3-1.93,1.3-3.25s-.43-2.44-1.3-3.3c-.87-.85-1.97-1.28-3.31-1.28-1.56,0-2.79.63-3.68,1.89l-2.98-1.28,1.41-11.11h11.5v2.82h-9.03l-.8,6.28.13.03c1.09-.88,2.41-1.31,3.97-1.31,1.96,0,3.63.69,5.01,2.08,1.38,1.39,2.07,3.11,2.07,5.16Z"/>
      <path d="M1599.13,481.52c1.77,0,3.35.7,4.74,2.11,1.41,1.39,2.11,3.04,2.11,4.96s-.75,3.68-2.24,5.16c-1.52,1.45-3.27,2.18-5.25,2.18-2.11,0-3.9-.73-5.35-2.18-1.45-1.45-2.18-3.17-2.18-5.16,0-1.77.71-3.79,2.15-6.05l6.37-9.54,2.37,1.63-5.41,7.49.06.06c.66-.45,1.54-.67,2.63-.67ZM1593.95,488.63c0,1.26.44,2.33,1.31,3.2.88.85,1.95,1.28,3.23,1.28s2.35-.43,3.2-1.28c.88-.88,1.31-1.94,1.31-3.2s-.45-2.29-1.34-3.17c-.88-.88-1.93-1.31-3.17-1.31s-2.29.44-3.2,1.31c-.9.88-1.35,1.93-1.35,3.17Z"/>
    </g>
    <g class="cls-7">
      <polyline class="cls-6" points="844.61 442.03 844.61 444.16 1664.41 444.16 1664.41 442.03 844.61 442.03"/>
      <polyline class="cls-6" points="844.61 527.42 844.61 529.56 1664.41 529.56 1664.41 527.42 844.61 527.42"/>
      <polyline class="cls-6" points="844.61 442.03 844.61 529.56 846.75 529.56 846.75 442.03 844.61 442.03"/>
      <polyline class="cls-6" points="981.24 442.03 981.24 529.56 983.38 529.56 983.38 442.03 981.24 442.03"/>
      <polyline class="cls-6" points="1117.88 442.03 1117.88 529.56 1120.01 529.56 1120.01 442.03 1117.88 442.03"/>
      <polyline class="cls-6" points="1254.51 442.03 1254.51 529.56 1256.64 529.56 1256.64 442.03 1254.51 442.03"/>
      <polyline class="cls-6" points="1391.14 442.03 1391.14 529.56 1393.28 529.56 1393.28 442.03 1391.14 442.03"/>
      <polyline class="cls-6" points="1527.77 442.03 1527.77 529.56 1529.91 529.56 1529.91 442.03 1527.77 442.03"/>
      <polyline class="cls-6" points="1664.41 442.03 1664.41 529.56 1666.54 529.56 1666.54 442.03 1664.41 442.03"/>
    </g>
  </g>
  <g>
    <path class="cls-8" d="M824.7,380.86h17.31v4.88h-12.17v6.64h10.95v4.88h-10.95v10.91h-5.15v-27.31Z"/>
    <path class="cls-8" d="M844.61,389.48h4.69v2.59h.31c.23-.46.53-.88.92-1.26.38-.38.81-.71,1.28-1,.47-.28.98-.51,1.53-.69.55-.17,1.09-.26,1.62-.26.66,0,1.23.07,1.7.21s.87.32,1.2.55l-1.33,4.46c-.3-.15-.64-.27-1.01-.36-.37-.09-.82-.13-1.35-.13-.69,0-1.31.13-1.87.4-.56.27-1.04.65-1.43,1.13-.39.49-.7,1.05-.92,1.71-.22.65-.32,1.36-.32,2.13v9.2h-5v-18.69Z"/>
    <path class="cls-8" d="M867.84,388.87c1.45,0,2.78.25,3.99.74,1.21.5,2.25,1.18,3.13,2.06.88.88,1.56,1.93,2.06,3.15.5,1.22.74,2.56.74,4s-.25,2.78-.74,4c-.5,1.22-1.18,2.27-2.06,3.15-.88.88-1.92,1.56-3.13,2.06-1.21.5-2.54.74-3.99.74s-2.78-.25-3.99-.74c-1.21-.5-2.25-1.18-3.13-2.06s-1.56-1.93-2.06-3.15c-.5-1.22-.74-2.56-.74-4s.25-2.78.74-4,1.18-2.27,2.06-3.15c.88-.88,1.92-1.56,3.13-2.06,1.21-.5,2.54-.74,3.99-.74ZM867.84,404.17c.64,0,1.25-.12,1.85-.36.6-.24,1.12-.59,1.58-1.05s.82-1.02,1.09-1.68c.27-.66.4-1.41.4-2.25s-.13-1.59-.4-2.25c-.27-.66-.63-1.22-1.09-1.68-.46-.46-.99-.81-1.58-1.05-.6-.24-1.21-.36-1.85-.36s-1.28.12-1.87.36c-.59.24-1.11.59-1.56,1.05-.46.46-.82,1.02-1.09,1.68-.27.66-.4,1.41-.4,2.25s.13,1.59.4,2.25c.27.66.63,1.22,1.09,1.68.46.46.98.81,1.56,1.05.58.24,1.21.36,1.87.36Z"/>
    <path class="cls-8" d="M885.26,391.92h.31c.58-.94,1.37-1.68,2.36-2.23.99-.55,2.12-.82,3.39-.82,1.17,0,2.2.19,3.09.57.89.38,1.62.92,2.19,1.62.57.7,1,1.54,1.3,2.52.29.98.44,2.07.44,3.26v11.33h-5v-10.72c0-1.35-.3-2.35-.9-2.99-.6-.65-1.47-.97-2.61-.97-.69,0-1.29.15-1.81.44-.52.29-.97.69-1.33,1.18-.37.5-.65,1.08-.84,1.75-.19.67-.29,1.39-.29,2.15v9.15h-5v-18.69h4.69v2.44Z"/>
    <path class="cls-8" d="M903.57,393.75h-3.28v-4.27h3.28v-5.72h5v5.72h4.58v4.27h-4.58v7.47c0,.45.04.86.13,1.24.09.38.26.7.52.96.36.42.86.63,1.53.63.43,0,.78-.04,1.03-.13.25-.09.5-.21.72-.36l1.41,4.39c-.58.28-1.21.49-1.89.63-.67.14-1.42.21-2.23.21-.94,0-1.79-.15-2.54-.45-.75-.3-1.38-.71-1.89-1.23-1.2-1.17-1.79-2.83-1.79-4.98v-8.37Z"/>
    <path class="cls-8" d="M924.09,408.17l11.33-27.31h4.92l-11.33,27.31h-4.92Z"/>
    <path class="cls-8" d="M952.5,380.86h5.15v10.91h11.48v-10.91h5.15v27.31h-5.15v-11.52h-11.48v11.52h-5.15v-27.31Z"/>
    <path class="cls-8" d="M996.85,403.67c-.86,1.53-2.03,2.76-3.49,3.7s-3.25,1.41-5.36,1.41c-1.42,0-2.74-.25-3.95-.74-1.21-.5-2.26-1.19-3.15-2.08-.89-.89-1.58-1.94-2.08-3.15-.5-1.21-.74-2.54-.74-3.99,0-1.35.24-2.62.72-3.83.48-1.21,1.16-2.26,2.02-3.17.86-.9,1.89-1.62,3.07-2.15,1.18-.53,2.49-.8,3.91-.8,1.5,0,2.83.25,4,.74,1.17.5,2.15,1.18,2.94,2.06.79.88,1.38,1.91,1.79,3.11.41,1.2.61,2.49.61,3.89v.46c-.03.15-.04.29-.04.42-.03.13-.04.27-.04.42h-14.07c.1.76.31,1.42.63,1.96.32.55.71,1,1.18,1.37s.99.64,1.54.8c.56.17,1.13.25,1.72.25,1.14,0,2.09-.26,2.84-.78.75-.52,1.34-1.18,1.77-1.96l4.16,2.06ZM992.31,396.42c-.03-.33-.13-.7-.32-1.11-.19-.41-.47-.79-.84-1.14-.37-.36-.83-.65-1.37-.88-.55-.23-1.2-.34-1.96-.34-1.07,0-2.01.31-2.82.92-.81.61-1.39,1.46-1.72,2.56h9.04Z"/>
    <path class="cls-8" d="M1012.07,406.19h-.31c-.58.71-1.29,1.32-2.12,1.83s-1.89.76-3.18.76c-.97,0-1.88-.16-2.73-.48-.85-.32-1.6-.76-2.23-1.32-.64-.56-1.13-1.23-1.49-2.02-.36-.79-.53-1.65-.53-2.59s.19-1.84.57-2.61c.38-.78.92-1.44,1.6-2,.69-.56,1.49-.98,2.42-1.28.93-.29,1.94-.44,3.03-.44,1.22,0,2.22.1,3.01.29.79.19,1.44.39,1.95.59v-.57c0-.99-.39-1.81-1.18-2.46-.79-.65-1.77-.97-2.94-.97-1.73,0-3.19.72-4.39,2.17l-3.62-2.48c1.98-2.49,4.69-3.74,8.12-3.74,2.9,0,5.11.68,6.64,2.04,1.53,1.36,2.29,3.38,2.29,6.04v11.21h-4.92v-1.98ZM1012.07,400.58c-.58-.28-1.19-.5-1.81-.67-.62-.17-1.3-.25-2.04-.25-1.2,0-2.12.26-2.77.78s-.97,1.16-.97,1.93.31,1.37.93,1.83,1.34.69,2.16.69c.66,0,1.27-.12,1.83-.36.56-.24,1.04-.56,1.43-.95s.7-.85.92-1.37c.22-.52.32-1.06.32-1.62Z"/>
    <path class="cls-8" d="M1034.68,405.92h-.3c-.46.79-1.17,1.46-2.14,2.02-.97.56-2.16.84-3.58.84-1.2,0-2.33-.25-3.41-.74-1.08-.5-2.04-1.18-2.86-2.06-.83-.88-1.48-1.93-1.96-3.15-.48-1.22-.72-2.56-.72-4s.24-2.78.72-4c.48-1.22,1.14-2.27,1.96-3.15.83-.88,1.78-1.56,2.86-2.06,1.08-.5,2.22-.74,3.41-.74,1.42,0,2.62.28,3.58.84.97.56,1.68,1.23,2.14,2.02h.3l-.3-2.67v-8.2h5v27.31h-4.69v-2.25ZM1029.69,404.17c.66,0,1.29-.12,1.89-.36.6-.24,1.12-.59,1.58-1.05s.83-1.02,1.11-1.68c.28-.66.42-1.41.42-2.25s-.14-1.59-.42-2.25c-.28-.66-.65-1.22-1.11-1.68-.46-.46-.99-.81-1.58-1.05-.6-.24-1.23-.36-1.89-.36s-1.29.13-1.89.38c-.6.25-1.12.61-1.58,1.07-.46.46-.83,1.02-1.11,1.68-.28.66-.42,1.4-.42,2.21s.14,1.55.42,2.21c.28.66.65,1.22,1.11,1.68.46.46.99.81,1.58,1.07.6.25,1.23.38,1.89.38Z"/>
  </g>
  <g>
    <path class="cls-8" d="M1414.31,380.86h10.68c1.17,0,2.26.19,3.28.55,1.02.37,1.9.88,2.65,1.53s1.34,1.41,1.77,2.27c.43.86.65,1.79.65,2.78,0,1.45-.35,2.66-1.05,3.64-.7.98-1.57,1.72-2.61,2.23v.31c1.4.51,2.52,1.3,3.38,2.38.85,1.08,1.28,2.42,1.28,4.02,0,1.17-.24,2.22-.71,3.15-.47.93-1.11,1.72-1.93,2.38-.81.66-1.76,1.17-2.84,1.53-1.08.36-2.24.53-3.49.53h-11.06v-27.31ZM1424.61,392c1.19,0,2.12-.32,2.76-.97.65-.65.97-1.42.97-2.31s-.32-1.65-.95-2.29c-.64-.64-1.51-.95-2.63-.95h-5.3v6.52h5.15ZM1425.18,403.44c1.3,0,2.29-.32,2.97-.97s1.03-1.48,1.03-2.5-.35-1.86-1.05-2.54c-.7-.67-1.73-1.01-3.11-1.01h-5.57v7.02h5.72Z"/>
    <path class="cls-8" d="M1449.21,406.19h-.31c-.58.71-1.29,1.32-2.12,1.83s-1.89.76-3.18.76c-.97,0-1.88-.16-2.73-.48-.85-.32-1.6-.76-2.23-1.32-.64-.56-1.13-1.23-1.49-2.02-.36-.79-.53-1.65-.53-2.59s.19-1.84.57-2.61c.38-.78.92-1.44,1.6-2,.69-.56,1.49-.98,2.42-1.28.93-.29,1.94-.44,3.03-.44,1.22,0,2.22.1,3.01.29.79.19,1.44.39,1.95.59v-.57c0-.99-.39-1.81-1.18-2.46-.79-.65-1.77-.97-2.94-.97-1.73,0-3.19.72-4.39,2.17l-3.62-2.48c1.98-2.49,4.69-3.74,8.12-3.74,2.9,0,5.11.68,6.64,2.04,1.53,1.36,2.29,3.38,2.29,6.04v11.21h-4.92v-1.98ZM1449.21,400.58c-.58-.28-1.19-.5-1.81-.67-.62-.17-1.3-.25-2.04-.25-1.2,0-2.12.26-2.77.78s-.97,1.16-.97,1.93.31,1.37.93,1.83,1.34.69,2.16.69c.66,0,1.27-.12,1.83-.36.56-.24,1.04-.56,1.43-.95s.7-.85.92-1.37c.22-.52.32-1.06.32-1.62Z"/>
    <path class="cls-8" d="M1475.64,403.4c-.81,1.58-1.95,2.87-3.41,3.87-1.46,1-3.29,1.51-5.47,1.51-1.45,0-2.78-.25-3.99-.74-1.21-.5-2.25-1.19-3.13-2.08-.88-.89-1.56-1.94-2.06-3.15-.5-1.21-.74-2.54-.74-3.99s.25-2.78.74-4,1.18-2.27,2.06-3.15c.88-.88,1.92-1.56,3.13-2.06,1.21-.5,2.54-.74,3.99-.74,2.16,0,3.98.5,5.45,1.49,1.47.99,2.55,2.28,3.24,3.85l-4.58,1.91c-.43-.86-.99-1.52-1.66-1.96-.67-.44-1.52-.67-2.54-.67-.66,0-1.28.13-1.87.38-.59.25-1.1.61-1.54,1.07-.45.46-.79,1.02-1.05,1.68-.25.66-.38,1.4-.38,2.21s.13,1.55.38,2.21c.25.66.6,1.22,1.05,1.68.44.46.96.81,1.54,1.07.58.25,1.21.38,1.87.38,1.04,0,1.93-.23,2.65-.71.72-.47,1.3-1.15,1.74-2.04l4.58,1.98Z"/>
    <path class="cls-8" d="M1478.69,380.86h5v14.87h.23l6.25-6.25h6.18v.31l-6.94,6.75,7.51,11.33v.31h-5.91l-5.11-8.2-2.21,2.17v6.03h-5v-27.31Z"/>
    <path class="cls-8" d="M1506.18,408.17l11.33-27.31h4.92l-11.33,27.31h-4.92Z"/>
    <path class="cls-8" d="M1538.87,408.17v-22.42h-7.63v-4.88h20.4v4.88h-7.63v22.42h-5.15Z"/>
    <path class="cls-8" d="M1563.35,406.19h-.31c-.58.71-1.29,1.32-2.12,1.83s-1.89.76-3.18.76c-.97,0-1.88-.16-2.73-.48-.85-.32-1.6-.76-2.23-1.32-.64-.56-1.13-1.23-1.49-2.02-.36-.79-.53-1.65-.53-2.59s.19-1.84.57-2.61c.38-.78.92-1.44,1.6-2,.69-.56,1.49-.98,2.42-1.28.93-.29,1.94-.44,3.03-.44,1.22,0,2.22.1,3.01.29.79.19,1.44.39,1.95.59v-.57c0-.99-.39-1.81-1.18-2.46-.79-.65-1.77-.97-2.94-.97-1.73,0-3.19.72-4.39,2.17l-3.62-2.48c1.98-2.49,4.69-3.74,8.12-3.74,2.9,0,5.11.68,6.64,2.04,1.53,1.36,2.29,3.38,2.29,6.04v11.21h-4.92v-1.98ZM1563.35,400.58c-.58-.28-1.19-.5-1.81-.67-.62-.17-1.3-.25-2.04-.25-1.2,0-2.12.26-2.77.78s-.97,1.16-.97,1.93.31,1.37.93,1.83,1.34.69,2.16.69c.66,0,1.27-.12,1.83-.36.56-.24,1.04-.56,1.43-.95s.7-.85.92-1.37c.22-.52.32-1.06.32-1.62Z"/>
    <path class="cls-8" d="M1575.02,386.97c-.43,0-.85-.08-1.24-.25-.39-.17-.74-.39-1.03-.69-.29-.29-.52-.63-.69-1.01s-.25-.8-.25-1.26.08-.88.25-1.26.39-.72.69-1.01c.29-.29.64-.52,1.03-.69.39-.17.81-.25,1.24-.25.89,0,1.65.31,2.29.93.63.62.95,1.38.95,2.27s-.32,1.65-.95,2.27c-.64.62-1.4.93-2.29.93ZM1572.54,408.17v-18.69h5v18.69h-5Z"/>
    <path class="cls-8" d="M1582.11,408.17v-27.31h5v27.31h-5Z"/>
    <path class="cls-8" d="M1598.66,408.17l11.33-27.31h4.92l-11.33,27.31h-4.92Z"/>
    <path class="cls-8" d="M1627.08,380.86h9.95c1.37,0,2.62.22,3.74.65,1.12.43,2.08,1.03,2.88,1.79s1.42,1.67,1.85,2.73c.43,1.06.65,2.21.65,3.45,0,.92-.15,1.77-.46,2.57-.31.8-.72,1.53-1.26,2.17-.53.65-1.16,1.22-1.87,1.72-.71.5-1.46.88-2.25,1.16l-.04.27,7.32,10.49v.31h-5.91l-7.06-10.26h-2.4v10.26h-5.15v-27.31ZM1636.99,393.18c1.17,0,2.13-.36,2.88-1.07s1.12-1.61,1.12-2.71c0-.48-.08-.95-.25-1.41s-.41-.86-.74-1.22c-.33-.36-.74-.64-1.24-.86-.5-.22-1.06-.32-1.7-.32h-4.84v7.59h4.77Z"/>
    <path class="cls-8" d="M1667.43,403.67c-.86,1.53-2.03,2.76-3.49,3.7s-3.25,1.41-5.36,1.41c-1.42,0-2.74-.25-3.95-.74-1.21-.5-2.26-1.19-3.15-2.08-.89-.89-1.58-1.94-2.08-3.15-.5-1.21-.74-2.54-.74-3.99,0-1.35.24-2.62.72-3.83.48-1.21,1.16-2.26,2.02-3.17.86-.9,1.89-1.62,3.07-2.15,1.18-.53,2.49-.8,3.91-.8,1.5,0,2.83.25,4,.74,1.17.5,2.15,1.18,2.94,2.06.79.88,1.38,1.91,1.79,3.11.41,1.2.61,2.49.61,3.89v.46c-.03.15-.04.29-.04.42-.03.13-.04.27-.04.42h-14.07c.1.76.31,1.42.63,1.96.32.55.71,1,1.18,1.37s.99.64,1.54.8c.56.17,1.13.25,1.72.25,1.14,0,2.09-.26,2.84-.78.75-.52,1.34-1.18,1.77-1.96l4.16,2.06ZM1662.89,396.42c-.03-.33-.13-.7-.32-1.11-.19-.41-.47-.79-.84-1.14-.37-.36-.83-.65-1.37-.88-.55-.23-1.2-.34-1.96-.34-1.07,0-2.01.31-2.82.92-.81.61-1.39,1.46-1.72,2.56h9.04Z"/>
    <path class="cls-8" d="M1682.64,406.19h-.31c-.58.71-1.29,1.32-2.12,1.83s-1.89.76-3.18.76c-.97,0-1.88-.16-2.73-.48-.85-.32-1.6-.76-2.23-1.32-.64-.56-1.13-1.23-1.49-2.02-.36-.79-.53-1.65-.53-2.59s.19-1.84.57-2.61c.38-.78.92-1.44,1.6-2,.69-.56,1.49-.98,2.42-1.28.93-.29,1.94-.44,3.03-.44,1.22,0,2.22.1,3.01.29.79.19,1.44.39,1.95.59v-.57c0-.99-.39-1.81-1.18-2.46-.79-.65-1.77-.97-2.94-.97-1.73,0-3.19.72-4.39,2.17l-3.62-2.48c1.98-2.49,4.69-3.74,8.12-3.74,2.9,0,5.11.68,6.64,2.04,1.53,1.36,2.29,3.38,2.29,6.04v11.21h-4.92v-1.98ZM1682.64,400.58c-.58-.28-1.19-.5-1.81-.67-.62-.17-1.3-.25-2.04-.25-1.2,0-2.12.26-2.77.78s-.97,1.16-.97,1.93.31,1.37.93,1.83,1.34.69,2.16.69c.66,0,1.27-.12,1.83-.36.56-.24,1.04-.56,1.43-.95s.7-.85.92-1.37c.22-.52.32-1.06.32-1.62Z"/>
    <path class="cls-8" d="M1691.53,389.48h4.69v2.59h.31c.23-.46.53-.88.92-1.26.38-.38.81-.71,1.28-1,.47-.28.98-.51,1.53-.69.55-.17,1.09-.26,1.62-.26.66,0,1.23.07,1.7.21s.87.32,1.2.55l-1.33,4.46c-.3-.15-.64-.27-1.01-.36-.37-.09-.82-.13-1.35-.13-.69,0-1.31.13-1.87.4-.56.27-1.04.65-1.43,1.13-.39.49-.7,1.05-.92,1.71-.22.65-.32,1.36-.32,2.13v9.2h-5v-18.69Z"/>
  </g>
  <g>
    <path class="cls-3" d="M1693.17,473.38c27.11-1,156.03-9.44,97.08-78.57-65.7-77.05-43.34-47.6-43.34-47.6"/>
    <polygon class="cls-8" points="1709.03 490.86 1711.92 487.4 1694.9 473.17 1710.34 457.23 1707.1 454.1 1688.3 473.52 1709.03 490.86"/>
  </g>
  <g>
    <path class="cls-3" d="M864,629.7c-27.11-1-156.03-9.44-97.08-78.57,65.7-77.05,43.34-47.6,43.34-47.6"/>
    <polygon class="cls-8" points="850.08 610.41 846.84 613.54 862.28 629.48 845.26 643.71 848.15 647.16 868.88 629.82 850.08 610.41"/>
  </g>
  <g>
    <g class="cls-2">
      <path d="M731.14,281.79c0-3.33.82-6.07,2.47-8.23,1.64-2.16,3.76-3.23,6.34-3.23s4.7,1.09,6.34,3.27c1.64,2.16,2.47,4.89,2.47,8.2s-.82,6.03-2.47,8.23c-1.64,2.16-3.76,3.23-6.34,3.23s-4.7-1.08-6.34-3.23c-1.64-2.2-2.47-4.94-2.47-8.23ZM745.74,281.79c0-2.52-.53-4.59-1.6-6.21-1.05-1.62-2.44-2.43-4.19-2.43s-3.15.81-4.2,2.43c-1.07,1.62-1.6,3.69-1.6,6.21s.53,4.6,1.6,6.24c1.05,1.6,2.44,2.4,4.2,2.4s3.15-.81,4.19-2.43c1.07-1.64,1.6-3.71,1.6-6.21Z"/>
    </g>
    <g class="cls-9">
      <polyline class="cls-6" points="669.95 239.35 669.95 241.48 806.58 241.48 806.58 239.35 669.95 239.35"/>
      <polyline class="cls-6" points="669.95 324.74 669.95 326.88 806.58 326.88 806.58 324.74 669.95 324.74"/>
      <polyline class="cls-6" points="669.95 239.35 669.95 326.88 672.09 326.88 672.09 239.35 669.95 239.35"/>
      <polyline class="cls-6" points="806.58 239.35 806.58 326.88 808.72 326.88 808.72 239.35 806.58 239.35"/>
    </g>
  </g>
  <g>
    <g class="cls-10">
      <path d="M1727.42,272.8l-10.61,19.36-2.62-1.34,10.13-18.21h-11.06l.06-2.81h14.09v3Z"/>
    </g>
    <g class="cls-5">
      <polyline class="cls-6" points="1650.23 238.38 1650.23 240.51 1786.55 240.51 1786.55 238.38 1650.23 238.38"/>
      <polyline class="cls-6" points="1650.23 323.59 1650.23 325.72 1786.55 325.72 1786.55 323.59 1650.23 323.59"/>
      <polyline class="cls-6" points="1650.23 238.38 1650.23 325.72 1652.36 325.72 1652.36 238.38 1650.23 238.38"/>
      <polyline class="cls-6" points="1786.55 238.38 1786.55 325.72 1788.68 325.72 1788.68 238.38 1786.55 238.38"/>
    </g>
  </g>
  <g>
    <path class="cls-8" d="M733.89,701.67h9.95c1.37,0,2.62.22,3.74.65,1.12.43,2.08,1.03,2.88,1.79s1.42,1.67,1.85,2.73c.43,1.06.65,2.21.65,3.45,0,.92-.15,1.77-.46,2.57-.31.8-.72,1.53-1.26,2.17s-1.16,1.22-1.87,1.72c-.71.5-1.46.88-2.25,1.16l-.04.27,7.32,10.49v.3h-5.91l-7.06-10.26h-2.4v10.26h-5.15v-27.31ZM743.8,713.99c1.17,0,2.13-.36,2.88-1.07s1.12-1.61,1.12-2.71c0-.48-.08-.95-.25-1.41s-.41-.86-.74-1.22c-.33-.36-.74-.64-1.24-.86-.5-.22-1.06-.32-1.7-.32h-4.84v7.59h4.77Z"/>
    <path class="cls-8" d="M774.24,724.48c-.86,1.53-2.03,2.76-3.49,3.7s-3.25,1.41-5.36,1.41c-1.42,0-2.74-.25-3.95-.74-1.21-.5-2.26-1.19-3.15-2.08-.89-.89-1.58-1.94-2.08-3.15-.5-1.21-.74-2.54-.74-3.99,0-1.35.24-2.62.72-3.83.48-1.21,1.16-2.26,2.02-3.17s1.89-1.62,3.07-2.16c1.18-.53,2.49-.8,3.91-.8,1.5,0,2.83.25,4,.74,1.17.5,2.15,1.18,2.94,2.06.79.88,1.38,1.91,1.79,3.11.41,1.2.61,2.49.61,3.89v.46c-.03.15-.04.29-.04.42-.03.13-.04.27-.04.42h-14.07c.1.76.31,1.42.63,1.96.32.55.71,1,1.18,1.37s.99.64,1.54.8c.56.17,1.13.25,1.72.25,1.14,0,2.09-.26,2.84-.78.75-.52,1.34-1.18,1.77-1.96l4.16,2.06ZM769.7,717.24c-.03-.33-.13-.7-.32-1.11-.19-.41-.47-.79-.84-1.14-.37-.36-.83-.65-1.37-.88-.55-.23-1.2-.34-1.96-.34-1.07,0-2.01.3-2.82.92-.81.61-1.39,1.46-1.72,2.56h9.04Z"/>
    <path class="cls-8" d="M777.75,710.29h4.69v2.44h.31c.58-.92,1.38-1.65,2.38-2.21,1-.56,2.12-.84,3.34-.84,1.42,0,2.62.33,3.58.99.97.66,1.65,1.47,2.06,2.44.58-.94,1.41-1.75,2.48-2.42,1.07-.67,2.36-1.01,3.89-1.01,1.14,0,2.14.18,2.98.55.84.37,1.53.88,2.08,1.54.55.66.96,1.46,1.24,2.38.28.93.42,1.94.42,3.03v11.78h-5v-10.87c0-2.54-1.04-3.81-3.13-3.81-.66,0-1.25.15-1.75.44s-.93.69-1.28,1.18c-.34.5-.61,1.09-.8,1.77-.19.69-.29,1.42-.29,2.21v9.08h-5v-10.87c0-2.54-1.09-3.81-3.28-3.81-.64,0-1.2.15-1.68.44-.48.29-.89.69-1.22,1.18-.33.5-.58,1.09-.76,1.77s-.27,1.42-.27,2.21v9.08h-5v-18.69Z"/>
    <path class="cls-8" d="M820.15,709.68c1.45,0,2.78.25,3.99.74,1.21.5,2.25,1.18,3.13,2.06s1.56,1.93,2.06,3.15c.5,1.22.74,2.55.74,4s-.25,2.78-.74,4c-.5,1.22-1.18,2.27-2.06,3.15s-1.92,1.56-3.13,2.06c-1.21.5-2.54.74-3.99.74s-2.78-.25-3.99-.74c-1.21-.5-2.25-1.18-3.13-2.06-.88-.88-1.56-1.93-2.06-3.15-.5-1.22-.74-2.56-.74-4s.25-2.78.74-4c.5-1.22,1.18-2.27,2.06-3.15.88-.88,1.92-1.56,3.13-2.06,1.21-.5,2.54-.74,3.99-.74ZM820.15,724.98c.64,0,1.25-.12,1.85-.36.6-.24,1.12-.59,1.58-1.05.46-.46.82-1.02,1.09-1.68.27-.66.4-1.41.4-2.25s-.13-1.59-.4-2.25-.63-1.22-1.09-1.68c-.46-.46-.99-.81-1.58-1.05s-1.21-.36-1.85-.36-1.28.12-1.87.36c-.59.24-1.11.59-1.56,1.05s-.82,1.02-1.09,1.68c-.27.66-.4,1.41-.4,2.25s.13,1.59.4,2.25c.27.66.63,1.22,1.09,1.68.46.46.98.81,1.56,1.05.58.24,1.21.36,1.87.36Z"/>
    <path class="cls-8" d="M830.91,710.29h5.68l4.65,11.9h.27l4.69-11.9h5.64l-8.05,18.69h-4.92l-7.97-18.69Z"/>
    <path class="cls-8" d="M871.26,724.48c-.86,1.53-2.03,2.76-3.49,3.7s-3.25,1.41-5.36,1.41c-1.42,0-2.74-.25-3.95-.74-1.21-.5-2.26-1.19-3.15-2.08-.89-.89-1.58-1.94-2.08-3.15-.5-1.21-.74-2.54-.74-3.99,0-1.35.24-2.62.72-3.83.48-1.21,1.16-2.26,2.02-3.17s1.89-1.62,3.07-2.16c1.18-.53,2.49-.8,3.91-.8,1.5,0,2.83.25,4,.74,1.17.5,2.15,1.18,2.94,2.06.79.88,1.38,1.91,1.79,3.11.41,1.2.61,2.49.61,3.89v.46c-.03.15-.04.29-.04.42-.03.13-.04.27-.04.42h-14.07c.1.76.31,1.42.63,1.96.32.55.71,1,1.18,1.37s.99.64,1.54.8c.56.17,1.13.25,1.72.25,1.14,0,2.09-.26,2.84-.78.75-.52,1.34-1.18,1.77-1.96l4.16,2.06ZM866.72,717.24c-.03-.33-.13-.7-.32-1.11-.19-.41-.47-.79-.84-1.14-.37-.36-.83-.65-1.37-.88-.55-.23-1.2-.34-1.96-.34-1.07,0-2.01.3-2.82.92-.81.61-1.39,1.46-1.72,2.56h9.04Z"/>
    <path class="cls-8" d="M900.85,724.48c-.86,1.53-2.03,2.76-3.49,3.7s-3.25,1.41-5.36,1.41c-1.42,0-2.74-.25-3.95-.74-1.21-.5-2.26-1.19-3.15-2.08-.89-.89-1.58-1.94-2.08-3.15-.5-1.21-.74-2.54-.74-3.99,0-1.35.24-2.62.72-3.83.48-1.21,1.16-2.26,2.02-3.17s1.89-1.62,3.07-2.16c1.18-.53,2.49-.8,3.91-.8,1.5,0,2.83.25,4,.74,1.17.5,2.15,1.18,2.94,2.06.79.88,1.38,1.91,1.79,3.11.41,1.2.61,2.49.61,3.89v.46c-.03.15-.04.29-.04.42-.03.13-.04.27-.04.42h-14.07c.1.76.31,1.42.63,1.96.32.55.71,1,1.18,1.37s.99.64,1.54.8c.56.17,1.13.25,1.72.25,1.14,0,2.09-.26,2.84-.78.75-.52,1.34-1.18,1.77-1.96l4.16,2.06ZM896.31,717.24c-.03-.33-.13-.7-.32-1.11-.19-.41-.47-.79-.84-1.14-.37-.36-.83-.65-1.37-.88-.55-.23-1.2-.34-1.96-.34-1.07,0-2.01.3-2.82.92-.81.61-1.39,1.46-1.72,2.56h9.04Z"/>
    <path class="cls-8" d="M904.36,728.98v-27.31h5v27.31h-5Z"/>
    <path class="cls-8" d="M931.13,724.48c-.86,1.53-2.03,2.76-3.49,3.7s-3.25,1.41-5.36,1.41c-1.42,0-2.74-.25-3.95-.74-1.21-.5-2.26-1.19-3.15-2.08-.89-.89-1.58-1.94-2.08-3.15-.5-1.21-.74-2.54-.74-3.99,0-1.35.24-2.62.72-3.83.48-1.21,1.16-2.26,2.02-3.17s1.89-1.62,3.07-2.16c1.18-.53,2.49-.8,3.91-.8,1.5,0,2.83.25,4,.74,1.17.5,2.15,1.18,2.94,2.06.79.88,1.38,1.91,1.79,3.11.41,1.2.61,2.49.61,3.89v.46c-.03.15-.04.29-.04.42-.03.13-.04.27-.04.42h-14.07c.1.76.31,1.42.63,1.96.32.55.71,1,1.18,1.37s.99.64,1.54.8c.56.17,1.13.25,1.72.25,1.14,0,2.09-.26,2.84-.78.75-.52,1.34-1.18,1.77-1.96l4.16,2.06ZM926.59,717.24c-.03-.33-.13-.7-.32-1.11-.19-.41-.47-.79-.84-1.14-.37-.36-.83-.65-1.37-.88-.55-.23-1.2-.34-1.96-.34-1.07,0-2.01.3-2.82.92-.81.61-1.39,1.46-1.72,2.56h9.04Z"/>
    <path class="cls-8" d="M934.64,710.29h4.69v2.44h.31c.58-.92,1.38-1.65,2.38-2.21,1-.56,2.12-.84,3.34-.84,1.42,0,2.62.33,3.58.99.97.66,1.65,1.47,2.06,2.44.58-.94,1.41-1.75,2.48-2.42,1.07-.67,2.36-1.01,3.89-1.01,1.14,0,2.14.18,2.98.55.84.37,1.53.88,2.08,1.54.55.66.96,1.46,1.24,2.38.28.93.42,1.94.42,3.03v11.78h-5v-10.87c0-2.54-1.04-3.81-3.13-3.81-.66,0-1.25.15-1.75.44s-.93.69-1.28,1.18c-.34.5-.61,1.09-.8,1.77-.19.69-.29,1.42-.29,2.21v9.08h-5v-10.87c0-2.54-1.09-3.81-3.28-3.81-.64,0-1.2.15-1.68.44-.48.29-.89.69-1.22,1.18-.33.5-.58,1.09-.76,1.77s-.27,1.42-.27,2.21v9.08h-5v-18.69Z"/>
    <path class="cls-8" d="M985.9,724.48c-.86,1.53-2.03,2.76-3.49,3.7s-3.25,1.41-5.36,1.41c-1.42,0-2.74-.25-3.95-.74-1.21-.5-2.26-1.19-3.15-2.08-.89-.89-1.58-1.94-2.08-3.15-.5-1.21-.74-2.54-.74-3.99,0-1.35.24-2.62.72-3.83.48-1.21,1.16-2.26,2.02-3.17s1.89-1.62,3.07-2.16c1.18-.53,2.49-.8,3.91-.8,1.5,0,2.83.25,4,.74,1.17.5,2.15,1.18,2.94,2.06.79.88,1.38,1.91,1.79,3.11.41,1.2.61,2.49.61,3.89v.46c-.03.15-.04.29-.04.42-.03.13-.04.27-.04.42h-14.07c.1.76.31,1.42.63,1.96.32.55.71,1,1.18,1.37s.99.64,1.54.8c.56.17,1.13.25,1.72.25,1.14,0,2.09-.26,2.84-.78.75-.52,1.34-1.18,1.77-1.96l4.16,2.06ZM981.36,717.24c-.03-.33-.13-.7-.32-1.11-.19-.41-.47-.79-.84-1.14-.37-.36-.83-.65-1.37-.88-.55-.23-1.2-.34-1.96-.34-1.07,0-2.01.3-2.82.92-.81.61-1.39,1.46-1.72,2.56h9.04Z"/>
    <path class="cls-8" d="M994.1,712.74h.31c.58-.94,1.37-1.68,2.36-2.23.99-.55,2.12-.82,3.39-.82,1.17,0,2.2.19,3.09.57.89.38,1.62.92,2.19,1.62.57.7,1,1.54,1.3,2.52.29.98.44,2.07.44,3.26v11.33h-5v-10.72c0-1.35-.3-2.35-.9-2.99-.6-.65-1.47-.97-2.61-.97-.69,0-1.29.15-1.81.44-.52.29-.97.69-1.33,1.18-.37.5-.65,1.08-.84,1.75-.19.67-.29,1.39-.29,2.15v9.15h-5v-18.69h4.69v2.44Z"/>
    <path class="cls-8" d="M1012.4,714.57h-3.28v-4.27h3.28v-5.72h5v5.72h4.58v4.27h-4.58v7.47c0,.45.04.86.13,1.24.09.38.26.7.52.96.36.42.86.63,1.53.63.43,0,.78-.04,1.03-.13s.5-.21.72-.36l1.41,4.39c-.58.28-1.21.49-1.89.63s-1.42.21-2.23.21c-.94,0-1.79-.15-2.54-.45-.75-.3-1.38-.71-1.89-1.23-1.2-1.17-1.79-2.83-1.79-4.98v-8.37Z"/>
    <path class="cls-8" d="M1042.49,701.37c.71,0,1.37.06,1.98.19.61.13,1.16.29,1.64.5l-1.41,4.46c-.25-.13-.53-.23-.82-.3-.29-.08-.65-.12-1.09-.12-.74,0-1.32.24-1.75.71-.43.47-.65,1.12-.65,1.96v1.53h4.65v4.27h-4.65v14.42h-5v-14.42h-3.36v-4.27h3.36v-1.83c0-1.14.17-2.16.51-3.03.34-.88.83-1.61,1.47-2.21.63-.6,1.38-1.05,2.25-1.37.86-.32,1.82-.48,2.86-.48Z"/>
    <path class="cls-8" d="M1048.4,710.29h4.69v2.59h.31c.23-.46.53-.88.92-1.26.38-.38.81-.71,1.28-1,.47-.28.98-.51,1.53-.69.55-.17,1.09-.26,1.62-.26.66,0,1.23.07,1.7.21.47.14.87.32,1.2.55l-1.33,4.46c-.3-.15-.64-.27-1.01-.36-.37-.09-.82-.13-1.35-.13-.69,0-1.31.13-1.87.4-.56.27-1.04.65-1.43,1.13-.39.49-.7,1.05-.92,1.71-.22.65-.32,1.36-.32,2.13v9.2h-5v-18.69Z"/>
    <path class="cls-8" d="M1071.63,709.68c1.45,0,2.78.25,3.99.74,1.21.5,2.25,1.18,3.13,2.06s1.56,1.93,2.06,3.15c.5,1.22.74,2.55.74,4s-.25,2.78-.74,4c-.5,1.22-1.18,2.27-2.06,3.15s-1.92,1.56-3.13,2.06c-1.21.5-2.54.74-3.99.74s-2.78-.25-3.99-.74c-1.21-.5-2.25-1.18-3.13-2.06-.88-.88-1.56-1.93-2.06-3.15-.5-1.22-.74-2.56-.74-4s.25-2.78.74-4c.5-1.22,1.18-2.27,2.06-3.15.88-.88,1.92-1.56,3.13-2.06,1.21-.5,2.54-.74,3.99-.74ZM1071.63,724.98c.64,0,1.25-.12,1.85-.36.6-.24,1.12-.59,1.58-1.05.46-.46.82-1.02,1.09-1.68.27-.66.4-1.41.4-2.25s-.13-1.59-.4-2.25-.63-1.22-1.09-1.68c-.46-.46-.99-.81-1.58-1.05s-1.21-.36-1.85-.36-1.28.12-1.87.36c-.59.24-1.11.59-1.56,1.05s-.82,1.02-1.09,1.68c-.27.66-.4,1.41-.4,2.25s.13,1.59.4,2.25c.27.66.63,1.22,1.09,1.68.46.46.98.81,1.56,1.05.58.24,1.21.36,1.87.36Z"/>
    <path class="cls-8" d="M1084.37,710.29h4.69v2.44h.31c.58-.92,1.38-1.65,2.38-2.21,1-.56,2.12-.84,3.34-.84,1.42,0,2.62.33,3.58.99.97.66,1.65,1.47,2.06,2.44.58-.94,1.41-1.75,2.48-2.42,1.07-.67,2.36-1.01,3.89-1.01,1.14,0,2.14.18,2.98.55.84.37,1.53.88,2.08,1.54.55.66.96,1.46,1.24,2.38.28.93.42,1.94.42,3.03v11.78h-5v-10.87c0-2.54-1.04-3.81-3.13-3.81-.66,0-1.25.15-1.75.44s-.93.69-1.28,1.18c-.34.5-.61,1.09-.8,1.77-.19.69-.29,1.42-.29,2.21v9.08h-5v-10.87c0-2.54-1.09-3.81-3.28-3.81-.64,0-1.2.15-1.68.44-.48.29-.89.69-1.22,1.18-.33.5-.58,1.09-.76,1.77s-.27,1.42-.27,2.21v9.08h-5v-18.69Z"/>
    <path class="cls-8" d="M1134.78,701.37c.71,0,1.37.06,1.98.19.61.13,1.16.29,1.64.5l-1.41,4.46c-.25-.13-.53-.23-.82-.3-.29-.08-.65-.12-1.09-.12-.74,0-1.32.24-1.75.71-.43.47-.65,1.12-.65,1.96v1.53h4.65v4.27h-4.65v14.42h-5v-14.42h-3.36v-4.27h3.36v-1.83c0-1.14.17-2.16.51-3.03.34-.88.83-1.61,1.47-2.21.63-.6,1.38-1.05,2.25-1.37.86-.32,1.82-.48,2.86-.48Z"/>
    <path class="cls-8" d="M1140.69,710.29h4.69v2.59h.31c.23-.46.53-.88.92-1.26.38-.38.81-.71,1.28-1,.47-.28.98-.51,1.53-.69.55-.17,1.09-.26,1.62-.26.66,0,1.23.07,1.7.21.47.14.87.32,1.2.55l-1.33,4.46c-.3-.15-.64-.27-1.01-.36-.37-.09-.82-.13-1.35-.13-.69,0-1.31.13-1.87.4-.56.27-1.04.65-1.43,1.13-.39.49-.7,1.05-.92,1.71-.22.65-.32,1.36-.32,2.13v9.2h-5v-18.69Z"/>
    <path class="cls-8" d="M1163.92,709.68c1.45,0,2.78.25,3.99.74,1.21.5,2.25,1.18,3.13,2.06s1.56,1.93,2.06,3.15c.5,1.22.74,2.55.74,4s-.25,2.78-.74,4c-.5,1.22-1.18,2.27-2.06,3.15s-1.92,1.56-3.13,2.06c-1.21.5-2.54.74-3.99.74s-2.78-.25-3.99-.74c-1.21-.5-2.25-1.18-3.13-2.06-.88-.88-1.56-1.93-2.06-3.15-.5-1.22-.74-2.56-.74-4s.25-2.78.74-4c.5-1.22,1.18-2.27,2.06-3.15.88-.88,1.92-1.56,3.13-2.06,1.21-.5,2.54-.74,3.99-.74ZM1163.92,724.98c.64,0,1.25-.12,1.85-.36.6-.24,1.12-.59,1.58-1.05.46-.46.82-1.02,1.09-1.68.27-.66.4-1.41.4-2.25s-.13-1.59-.4-2.25-.63-1.22-1.09-1.68c-.46-.46-.99-.81-1.58-1.05s-1.21-.36-1.85-.36-1.28.12-1.87.36c-.59.24-1.11.59-1.56,1.05s-.82,1.02-1.09,1.68c-.27.66-.4,1.41-.4,2.25s.13,1.59.4,2.25c.27.66.63,1.22,1.09,1.68.46.46.98.81,1.56,1.05.58.24,1.21.36,1.87.36Z"/>
    <path class="cls-8" d="M1181.35,712.74h.31c.58-.94,1.37-1.68,2.36-2.23.99-.55,2.12-.82,3.39-.82,1.17,0,2.2.19,3.09.57.89.38,1.62.92,2.19,1.62.57.7,1,1.54,1.3,2.52.29.98.44,2.07.44,3.26v11.33h-5v-10.72c0-1.35-.3-2.35-.9-2.99-.6-.65-1.47-.97-2.61-.97-.69,0-1.29.15-1.81.44-.52.29-.97.69-1.33,1.18-.37.5-.65,1.08-.84,1.75-.19.67-.29,1.39-.29,2.15v9.15h-5v-18.69h4.69v2.44Z"/>
    <path class="cls-8" d="M1199.65,714.57h-3.28v-4.27h3.28v-5.72h5v5.72h4.58v4.27h-4.58v7.47c0,.45.04.86.13,1.24.09.38.26.7.52.96.36.42.86.63,1.53.63.43,0,.78-.04,1.03-.13s.5-.21.72-.36l1.41,4.39c-.58.28-1.21.49-1.89.63s-1.42.21-2.23.21c-.94,0-1.79-.15-2.54-.45-.75-.3-1.38-.71-1.89-1.23-1.2-1.17-1.79-2.83-1.79-4.98v-8.37Z"/>
  </g>
  <g>
    <path class="cls-8" d="M1545.64,187.77h5.87l10.26,27.31h-5.68l-2.25-6.52h-10.53l-2.25,6.52h-5.68l10.26-27.31ZM1552.16,203.82l-2.44-6.83-.99-3.32h-.3l-.99,3.32-2.44,6.83h7.17Z"/>
    <path class="cls-8" d="M1577.71,212.82h-.3c-.46.79-1.17,1.46-2.14,2.02-.97.56-2.16.84-3.58.84-1.2,0-2.33-.25-3.41-.74-1.08-.5-2.04-1.18-2.86-2.06-.83-.88-1.48-1.93-1.96-3.15-.48-1.22-.72-2.56-.72-4s.24-2.78.72-4c.48-1.22,1.14-2.27,1.96-3.15.83-.88,1.78-1.56,2.86-2.06,1.08-.5,2.22-.74,3.41-.74,1.42,0,2.62.28,3.58.84.97.56,1.68,1.23,2.14,2.02h.3l-.3-2.67v-8.2h5v27.31h-4.69v-2.25ZM1572.71,211.07c.66,0,1.29-.12,1.89-.36.6-.24,1.12-.59,1.58-1.05s.83-1.02,1.11-1.68c.28-.66.42-1.41.42-2.25s-.14-1.59-.42-2.25c-.28-.66-.65-1.22-1.11-1.68-.46-.46-.99-.81-1.58-1.05-.6-.24-1.23-.36-1.89-.36s-1.29.13-1.89.38c-.6.25-1.12.61-1.58,1.07-.46.46-.83,1.02-1.11,1.68-.28.66-.42,1.4-.42,2.21s.14,1.55.42,2.21c.28.66.65,1.22,1.11,1.68.46.46.99.81,1.58,1.07.6.25,1.23.38,1.89.38Z"/>
    <path class="cls-8" d="M1600.4,212.82h-.3c-.46.79-1.17,1.46-2.14,2.02-.97.56-2.16.84-3.58.84-1.2,0-2.33-.25-3.41-.74-1.08-.5-2.04-1.18-2.86-2.06-.83-.88-1.48-1.93-1.96-3.15-.48-1.22-.72-2.56-.72-4s.24-2.78.72-4c.48-1.22,1.14-2.27,1.96-3.15.83-.88,1.78-1.56,2.86-2.06,1.08-.5,2.22-.74,3.41-.74,1.42,0,2.62.28,3.58.84.97.56,1.68,1.23,2.14,2.02h.3l-.3-2.67v-8.2h5v27.31h-4.69v-2.25ZM1595.41,211.07c.66,0,1.29-.12,1.89-.36.6-.24,1.12-.59,1.58-1.05s.83-1.02,1.11-1.68c.28-.66.42-1.41.42-2.25s-.14-1.59-.42-2.25c-.28-.66-.65-1.22-1.11-1.68-.46-.46-.99-.81-1.58-1.05-.6-.24-1.23-.36-1.89-.36s-1.29.13-1.89.38c-.6.25-1.12.61-1.58,1.07-.46.46-.83,1.02-1.11,1.68-.28.66-.42,1.4-.42,2.21s.14,1.55.42,2.21c.28.66.65,1.22,1.11,1.68.46.46.99.81,1.58,1.07.6.25,1.23.38,1.89.38Z"/>
    <path class="cls-8" d="M1635.45,210.57c-.86,1.53-2.03,2.76-3.49,3.7s-3.25,1.41-5.36,1.41c-1.42,0-2.74-.25-3.95-.74-1.21-.5-2.26-1.19-3.15-2.08-.89-.89-1.58-1.94-2.08-3.15-.5-1.21-.74-2.54-.74-3.99,0-1.35.24-2.62.72-3.83.48-1.21,1.16-2.26,2.02-3.17.86-.9,1.89-1.62,3.07-2.15,1.18-.53,2.49-.8,3.91-.8,1.5,0,2.83.25,4,.74,1.17.5,2.15,1.18,2.94,2.06.79.88,1.38,1.91,1.79,3.11.41,1.2.61,2.49.61,3.89v.46c-.03.15-.04.29-.04.42-.03.13-.04.27-.04.42h-14.07c.1.76.31,1.42.63,1.96.32.55.71,1,1.18,1.37s.99.64,1.54.8c.56.17,1.13.25,1.72.25,1.14,0,2.09-.26,2.84-.78.75-.52,1.34-1.18,1.77-1.96l4.16,2.06ZM1630.91,203.33c-.03-.33-.13-.7-.32-1.11-.19-.41-.47-.79-.84-1.14-.37-.36-.83-.65-1.37-.88-.55-.23-1.2-.34-1.96-.34-1.07,0-2.01.31-2.82.92-.81.61-1.39,1.46-1.72,2.56h9.04Z"/>
    <path class="cls-8" d="M1638.96,215.07v-27.31h5v27.31h-5Z"/>
    <path class="cls-8" d="M1665.73,210.57c-.86,1.53-2.03,2.76-3.49,3.7s-3.25,1.41-5.36,1.41c-1.42,0-2.74-.25-3.95-.74-1.21-.5-2.26-1.19-3.15-2.08-.89-.89-1.58-1.94-2.08-3.15-.5-1.21-.74-2.54-.74-3.99,0-1.35.24-2.62.72-3.83.48-1.21,1.16-2.26,2.02-3.17.86-.9,1.89-1.62,3.07-2.15,1.18-.53,2.49-.8,3.91-.8,1.5,0,2.83.25,4,.74,1.17.5,2.15,1.18,2.94,2.06.79.88,1.38,1.91,1.79,3.11.41,1.2.61,2.49.61,3.89v.46c-.03.15-.04.29-.04.42-.03.13-.04.27-.04.42h-14.07c.1.76.31,1.42.63,1.96.32.55.71,1,1.18,1.37s.99.64,1.54.8c.56.17,1.13.25,1.72.25,1.14,0,2.09-.26,2.84-.78.75-.52,1.34-1.18,1.77-1.96l4.16,2.06ZM1661.19,203.33c-.03-.33-.13-.7-.32-1.11-.19-.41-.47-.79-.84-1.14-.37-.36-.83-.65-1.37-.88-.55-.23-1.2-.34-1.96-.34-1.07,0-2.01.31-2.82.92-.81.61-1.39,1.46-1.72,2.56h9.04Z"/>
    <path class="cls-8" d="M1669.24,196.39h4.69v2.44h.31c.58-.92,1.38-1.65,2.38-2.21,1-.56,2.12-.84,3.34-.84,1.42,0,2.62.33,3.58.99.97.66,1.65,1.48,2.06,2.44.58-.94,1.41-1.75,2.48-2.42,1.07-.67,2.36-1.01,3.89-1.01,1.14,0,2.14.18,2.98.55.84.37,1.53.88,2.08,1.54.55.66.96,1.46,1.24,2.38.28.93.42,1.94.42,3.03v11.78h-5v-10.87c0-2.54-1.04-3.81-3.13-3.81-.66,0-1.25.15-1.75.44-.51.29-.93.69-1.28,1.18-.34.5-.61,1.09-.8,1.77-.19.69-.29,1.42-.29,2.21v9.08h-5v-10.87c0-2.54-1.09-3.81-3.28-3.81-.64,0-1.2.15-1.68.44-.48.29-.89.69-1.22,1.18-.33.5-.58,1.09-.76,1.77s-.27,1.42-.27,2.21v9.08h-5v-18.69Z"/>
    <path class="cls-8" d="M1720.5,210.57c-.86,1.53-2.03,2.76-3.49,3.7s-3.25,1.41-5.36,1.41c-1.42,0-2.74-.25-3.95-.74-1.21-.5-2.26-1.19-3.15-2.08-.89-.89-1.58-1.94-2.08-3.15-.5-1.21-.74-2.54-.74-3.99,0-1.35.24-2.62.72-3.83.48-1.21,1.16-2.26,2.02-3.17.86-.9,1.89-1.62,3.07-2.15,1.18-.53,2.49-.8,3.91-.8,1.5,0,2.83.25,4,.74,1.17.5,2.15,1.18,2.94,2.06.79.88,1.38,1.91,1.79,3.11.41,1.2.61,2.49.61,3.89v.46c-.03.15-.04.29-.04.42-.03.13-.04.27-.04.42h-14.07c.1.76.31,1.42.63,1.96.32.55.71,1,1.18,1.37s.99.64,1.54.8c.56.17,1.13.25,1.72.25,1.14,0,2.09-.26,2.84-.78.75-.52,1.34-1.18,1.77-1.96l4.16,2.06ZM1715.96,203.33c-.03-.33-.13-.7-.32-1.11-.19-.41-.47-.79-.84-1.14-.37-.36-.83-.65-1.37-.88-.55-.23-1.2-.34-1.96-.34-1.07,0-2.01.31-2.82.92-.81.61-1.39,1.46-1.72,2.56h9.04Z"/>
    <path class="cls-8" d="M1728.69,198.83h.31c.58-.94,1.37-1.68,2.36-2.23.99-.55,2.12-.82,3.39-.82,1.17,0,2.2.19,3.09.57.89.38,1.62.92,2.19,1.62.57.7,1,1.54,1.3,2.52.29.98.44,2.07.44,3.26v11.33h-5v-10.72c0-1.35-.3-2.35-.9-2.99-.6-.65-1.47-.97-2.61-.97-.69,0-1.29.15-1.81.44-.52.29-.97.69-1.33,1.18-.37.5-.65,1.08-.84,1.75-.19.67-.29,1.39-.29,2.15v9.15h-5v-18.69h4.69v2.44Z"/>
    <path class="cls-8" d="M1747,200.66h-3.28v-4.27h3.28v-5.72h5v5.72h4.58v4.27h-4.58v7.47c0,.45.04.86.13,1.24.09.38.26.7.52.96.36.42.86.63,1.53.63.43,0,.78-.04,1.03-.13.25-.09.5-.21.72-.36l1.41,4.39c-.58.28-1.21.49-1.89.63-.67.14-1.42.21-2.23.21-.94,0-1.79-.15-2.54-.45-.75-.3-1.38-.71-1.89-1.23-1.2-1.17-1.79-2.83-1.79-4.98v-8.37Z"/>
    <path class="cls-8" d="M1780.14,213.09h-.31c-.58.71-1.29,1.32-2.12,1.83s-1.89.76-3.18.76c-.97,0-1.88-.16-2.73-.48-.85-.32-1.6-.76-2.23-1.32-.64-.56-1.13-1.23-1.49-2.02-.36-.79-.53-1.65-.53-2.59s.19-1.84.57-2.61c.38-.78.92-1.44,1.6-2,.69-.56,1.49-.98,2.42-1.28.93-.29,1.94-.44,3.03-.44,1.22,0,2.22.1,3.01.29.79.19,1.44.39,1.95.59v-.57c0-.99-.39-1.81-1.18-2.46-.79-.65-1.77-.97-2.94-.97-1.73,0-3.19.72-4.39,2.17l-3.62-2.48c1.98-2.49,4.69-3.74,8.12-3.74,2.9,0,5.11.68,6.64,2.04,1.53,1.36,2.29,3.38,2.29,6.04v11.21h-4.92v-1.98ZM1780.14,207.48c-.58-.28-1.19-.5-1.81-.67-.62-.17-1.3-.25-2.04-.25-1.2,0-2.12.26-2.77.78s-.97,1.16-.97,1.93.31,1.37.93,1.83,1.34.69,2.16.69c.66,0,1.27-.12,1.83-.36.56-.24,1.04-.56,1.43-.95s.7-.85.92-1.37c.22-.52.32-1.06.32-1.62Z"/>
    <path class="cls-8" d="M1790.71,200.66h-3.28v-4.27h3.28v-5.72h5v5.72h4.58v4.27h-4.58v7.47c0,.45.04.86.13,1.24.09.38.26.7.52.96.36.42.86.63,1.53.63.43,0,.78-.04,1.03-.13.25-.09.5-.21.72-.36l1.41,4.39c-.58.28-1.21.49-1.89.63-.67.14-1.42.21-2.23.21-.94,0-1.79-.15-2.54-.45-.75-.3-1.38-.71-1.89-1.23-1.2-1.17-1.79-2.83-1.79-4.98v-8.37Z"/>
    <path class="cls-8" d="M1812.33,187.77h5v8.2l-.31,2.67h.31c.46-.79,1.17-1.46,2.14-2.02.97-.56,2.16-.84,3.58-.84,1.19,0,2.33.25,3.41.74,1.08.5,2.03,1.18,2.86,2.06.83.88,1.48,1.93,1.96,3.15.48,1.22.72,2.56.72,4s-.24,2.78-.72,4c-.48,1.22-1.14,2.27-1.96,3.15s-1.78,1.56-2.86,2.06c-1.08.5-2.22.74-3.41.74-1.42,0-2.62-.28-3.58-.84-.97-.56-1.68-1.23-2.14-2.02h-.31v2.25h-4.69v-27.31ZM1822.01,211.07c.66,0,1.29-.13,1.89-.38.6-.25,1.13-.61,1.58-1.07.46-.46.83-1.02,1.11-1.68.28-.66.42-1.4.42-2.21s-.14-1.55-.42-2.21c-.28-.66-.65-1.22-1.11-1.68-.46-.46-.99-.81-1.58-1.07-.6-.25-1.23-.38-1.89-.38s-1.29.12-1.89.36c-.6.24-1.12.59-1.58,1.05-.46.46-.83,1.02-1.11,1.68-.28.66-.42,1.41-.42,2.25s.14,1.59.42,2.25c.28.66.65,1.22,1.11,1.68.46.46.98.81,1.58,1.05.6.24,1.23.36,1.89.36Z"/>
    <path class="cls-8" d="M1846.73,213.09h-.31c-.58.71-1.29,1.32-2.12,1.83s-1.89.76-3.18.76c-.97,0-1.88-.16-2.73-.48-.85-.32-1.6-.76-2.23-1.32-.64-.56-1.13-1.23-1.49-2.02-.36-.79-.53-1.65-.53-2.59s.19-1.84.57-2.61c.38-.78.92-1.44,1.6-2,.69-.56,1.49-.98,2.42-1.28.93-.29,1.94-.44,3.03-.44,1.22,0,2.22.1,3.01.29.79.19,1.44.39,1.95.59v-.57c0-.99-.39-1.81-1.18-2.46-.79-.65-1.77-.97-2.94-.97-1.73,0-3.19.72-4.39,2.17l-3.62-2.48c1.98-2.49,4.69-3.74,8.12-3.74,2.9,0,5.11.68,6.64,2.04,1.53,1.36,2.29,3.38,2.29,6.04v11.21h-4.92v-1.98ZM1846.73,207.48c-.58-.28-1.19-.5-1.81-.67-.62-.17-1.3-.25-2.04-.25-1.2,0-2.12.26-2.77.78s-.97,1.16-.97,1.93.31,1.37.93,1.83,1.34.69,2.16.69c.66,0,1.27-.12,1.83-.36.56-.24,1.04-.56,1.43-.95s.7-.85.92-1.37c.22-.52.32-1.06.32-1.62Z"/>
    <path class="cls-8" d="M1873.16,210.31c-.81,1.58-1.95,2.87-3.41,3.87-1.46,1-3.29,1.51-5.47,1.51-1.45,0-2.78-.25-3.99-.74-1.21-.5-2.25-1.19-3.13-2.08-.88-.89-1.56-1.94-2.06-3.15-.5-1.21-.74-2.54-.74-3.99s.25-2.78.74-4,1.18-2.27,2.06-3.15c.88-.88,1.92-1.56,3.13-2.06,1.21-.5,2.54-.74,3.99-.74,2.16,0,3.98.5,5.45,1.49,1.47.99,2.55,2.28,3.24,3.85l-4.58,1.91c-.43-.86-.99-1.52-1.66-1.96-.67-.44-1.52-.67-2.54-.67-.66,0-1.28.13-1.87.38-.59.25-1.1.61-1.54,1.07-.45.46-.79,1.02-1.05,1.68-.25.66-.38,1.4-.38,2.21s.13,1.55.38,2.21c.25.66.6,1.22,1.05,1.68.44.46.96.81,1.54,1.07.58.25,1.21.38,1.87.38,1.04,0,1.93-.23,2.65-.71.72-.47,1.3-1.15,1.74-2.04l4.58,1.98Z"/>
    <path class="cls-8" d="M1876.21,187.77h5v14.87h.23l6.25-6.25h6.18v.31l-6.94,6.75,7.51,11.33v.31h-5.91l-5.11-8.2-2.21,2.17v6.03h-5v-27.31Z"/>
  </g>
  <g>
    <path class="cls-3" d="M802.17,473.66c-27.13,0-156.27-3.65-99.92-74.92,62.8-79.43,41.55-49.17,41.55-49.17"/>
    <polygon class="cls-8" points="787.54 454.9 784.42 458.15 800.44 473.5 783.96 488.36 786.97 491.7 807.05 473.61 787.54 454.9"/>
  </g>
  <g>
    <path class="cls-3" d="M1651.03,641.14c27.11-1,156.03-9.44,97.08-78.57-65.7-77.05-43.34-47.6-43.34-47.6"/>
    <polygon class="cls-8" points="1666.88 658.61 1669.77 655.16 1652.75 640.93 1668.19 624.99 1664.95 621.86 1646.15 641.27 1666.88 658.61"/>
  </g>
  <g>
    <path class="cls-8" d="M536.9,187.16h5.87l10.26,27.31h-5.68l-2.25-6.52h-10.53l-2.25,6.52h-5.68l10.26-27.31ZM543.42,203.21l-2.44-6.83-.99-3.32h-.3l-.99,3.32-2.44,6.83h7.17Z"/>
    <path class="cls-8" d="M568.97,212.21h-.3c-.46.79-1.17,1.46-2.14,2.02-.97.56-2.16.84-3.58.84-1.2,0-2.33-.25-3.41-.74-1.08-.5-2.04-1.18-2.86-2.06-.83-.88-1.48-1.93-1.96-3.15-.48-1.22-.72-2.56-.72-4s.24-2.78.72-4c.48-1.22,1.14-2.27,1.96-3.15.83-.88,1.78-1.56,2.86-2.06,1.08-.5,2.22-.74,3.41-.74,1.42,0,2.62.28,3.58.84.97.56,1.68,1.23,2.14,2.02h.3l-.3-2.67v-8.2h5v27.31h-4.69v-2.25ZM563.98,210.46c.66,0,1.29-.12,1.89-.36.6-.24,1.12-.59,1.58-1.05s.83-1.02,1.11-1.68c.28-.66.42-1.41.42-2.25s-.14-1.59-.42-2.25c-.28-.66-.65-1.22-1.11-1.68-.46-.46-.99-.81-1.58-1.05-.6-.24-1.23-.36-1.89-.36s-1.29.13-1.89.38c-.6.25-1.12.61-1.58,1.07-.46.46-.83,1.02-1.11,1.68-.28.66-.42,1.4-.42,2.21s.14,1.55.42,2.21c.28.66.65,1.22,1.11,1.68.46.46.99.81,1.58,1.07.6.25,1.23.38,1.89.38Z"/>
    <path class="cls-8" d="M591.66,212.21h-.3c-.46.79-1.17,1.46-2.14,2.02-.97.56-2.16.84-3.58.84-1.2,0-2.33-.25-3.41-.74-1.08-.5-2.04-1.18-2.86-2.06-.83-.88-1.48-1.93-1.96-3.15-.48-1.22-.72-2.56-.72-4s.24-2.78.72-4c.48-1.22,1.14-2.27,1.96-3.15.83-.88,1.78-1.56,2.86-2.06,1.08-.5,2.22-.74,3.41-.74,1.42,0,2.62.28,3.58.84.97.56,1.68,1.23,2.14,2.02h.3l-.3-2.67v-8.2h5v27.31h-4.69v-2.25ZM586.67,210.46c.66,0,1.29-.12,1.89-.36.6-.24,1.12-.59,1.58-1.05s.83-1.02,1.11-1.68c.28-.66.42-1.41.42-2.25s-.14-1.59-.42-2.25c-.28-.66-.65-1.22-1.11-1.68-.46-.46-.99-.81-1.58-1.05-.6-.24-1.23-.36-1.89-.36s-1.29.13-1.89.38c-.6.25-1.12.61-1.58,1.07-.46.46-.83,1.02-1.11,1.68-.28.66-.42,1.4-.42,2.21s.14,1.55.42,2.21c.28.66.65,1.22,1.11,1.68.46.46.99.81,1.58,1.07.6.25,1.23.38,1.89.38Z"/>
    <path class="cls-8" d="M626.71,209.96c-.86,1.53-2.03,2.76-3.49,3.7s-3.25,1.41-5.36,1.41c-1.42,0-2.74-.25-3.95-.74-1.21-.5-2.26-1.19-3.15-2.08-.89-.89-1.58-1.94-2.08-3.15-.5-1.21-.74-2.54-.74-3.99,0-1.35.24-2.62.72-3.83.48-1.21,1.16-2.26,2.02-3.17.86-.9,1.89-1.62,3.07-2.15,1.18-.53,2.49-.8,3.91-.8,1.5,0,2.83.25,4,.74,1.17.5,2.15,1.18,2.94,2.06.79.88,1.38,1.91,1.79,3.11.41,1.2.61,2.49.61,3.89v.46c-.03.15-.04.29-.04.42-.03.13-.04.27-.04.42h-14.07c.1.76.31,1.42.63,1.96.32.55.71,1,1.18,1.37s.99.64,1.54.8c.56.17,1.13.25,1.72.25,1.14,0,2.09-.26,2.84-.78.75-.52,1.34-1.18,1.77-1.96l4.16,2.06ZM622.17,202.72c-.03-.33-.13-.7-.32-1.11-.19-.41-.47-.79-.84-1.14-.37-.36-.83-.65-1.37-.88-.55-.23-1.2-.34-1.96-.34-1.07,0-2.01.31-2.82.92-.81.61-1.39,1.46-1.72,2.56h9.04Z"/>
    <path class="cls-8" d="M630.22,214.46v-27.31h5v27.31h-5Z"/>
    <path class="cls-8" d="M656.99,209.96c-.86,1.53-2.03,2.76-3.49,3.7s-3.25,1.41-5.36,1.41c-1.42,0-2.74-.25-3.95-.74-1.21-.5-2.26-1.19-3.15-2.08-.89-.89-1.58-1.94-2.08-3.15-.5-1.21-.74-2.54-.74-3.99,0-1.35.24-2.62.72-3.83.48-1.21,1.16-2.26,2.02-3.17.86-.9,1.89-1.62,3.07-2.15,1.18-.53,2.49-.8,3.91-.8,1.5,0,2.83.25,4,.74,1.17.5,2.15,1.18,2.94,2.06.79.88,1.38,1.91,1.79,3.11.41,1.2.61,2.49.61,3.89v.46c-.03.15-.04.29-.04.42-.03.13-.04.27-.04.42h-14.07c.1.76.31,1.42.63,1.96.32.55.71,1,1.18,1.37s.99.64,1.54.8c.56.17,1.13.25,1.72.25,1.14,0,2.09-.26,2.84-.78.75-.52,1.34-1.18,1.77-1.96l4.16,2.06ZM652.45,202.72c-.03-.33-.13-.7-.32-1.11-.19-.41-.47-.79-.84-1.14-.37-.36-.83-.65-1.37-.88-.55-.23-1.2-.34-1.96-.34-1.07,0-2.01.31-2.82.92-.81.61-1.39,1.46-1.72,2.56h9.04Z"/>
    <path class="cls-8" d="M660.5,195.78h4.69v2.44h.31c.58-.92,1.38-1.65,2.38-2.21,1-.56,2.12-.84,3.34-.84,1.42,0,2.62.33,3.58.99.97.66,1.65,1.48,2.06,2.44.58-.94,1.41-1.75,2.48-2.42,1.07-.67,2.36-1.01,3.89-1.01,1.14,0,2.14.18,2.98.55.84.37,1.53.88,2.08,1.54.55.66.96,1.46,1.24,2.38.28.93.42,1.94.42,3.03v11.78h-5v-10.87c0-2.54-1.04-3.81-3.13-3.81-.66,0-1.25.15-1.75.44-.51.29-.93.69-1.28,1.18-.34.5-.61,1.09-.8,1.77-.19.69-.29,1.42-.29,2.21v9.08h-5v-10.87c0-2.54-1.09-3.81-3.28-3.81-.64,0-1.2.15-1.68.44-.48.29-.89.69-1.22,1.18-.33.5-.58,1.09-.76,1.77s-.27,1.42-.27,2.21v9.08h-5v-18.69Z"/>
    <path class="cls-8" d="M711.76,209.96c-.86,1.53-2.03,2.76-3.49,3.7s-3.25,1.41-5.36,1.41c-1.42,0-2.74-.25-3.95-.74-1.21-.5-2.26-1.19-3.15-2.08-.89-.89-1.58-1.94-2.08-3.15-.5-1.21-.74-2.54-.74-3.99,0-1.35.24-2.62.72-3.83.48-1.21,1.16-2.26,2.02-3.17.86-.9,1.89-1.62,3.07-2.15,1.18-.53,2.49-.8,3.91-.8,1.5,0,2.83.25,4,.74,1.17.5,2.15,1.18,2.94,2.06.79.88,1.38,1.91,1.79,3.11.41,1.2.61,2.49.61,3.89v.46c-.03.15-.04.29-.04.42-.03.13-.04.27-.04.42h-14.07c.1.76.31,1.42.63,1.96.32.55.71,1,1.18,1.37s.99.64,1.54.8c.56.17,1.13.25,1.72.25,1.14,0,2.09-.26,2.84-.78.75-.52,1.34-1.18,1.77-1.96l4.16,2.06ZM707.22,202.72c-.03-.33-.13-.7-.32-1.11-.19-.41-.47-.79-.84-1.14-.37-.36-.83-.65-1.37-.88-.55-.23-1.2-.34-1.96-.34-1.07,0-2.01.31-2.82.92-.81.61-1.39,1.46-1.72,2.56h9.04Z"/>
    <path class="cls-8" d="M719.96,198.22h.31c.58-.94,1.37-1.68,2.36-2.23.99-.55,2.12-.82,3.39-.82,1.17,0,2.2.19,3.09.57.89.38,1.62.92,2.19,1.62.57.7,1,1.54,1.3,2.52.29.98.44,2.07.44,3.26v11.33h-5v-10.72c0-1.35-.3-2.35-.9-2.99-.6-.65-1.47-.97-2.61-.97-.69,0-1.29.15-1.81.44-.52.29-.97.69-1.33,1.18-.37.5-.65,1.08-.84,1.75-.19.67-.29,1.39-.29,2.15v9.15h-5v-18.69h4.69v2.44Z"/>
    <path class="cls-8" d="M738.26,200.05h-3.28v-4.27h3.28v-5.72h5v5.72h4.58v4.27h-4.58v7.47c0,.45.04.86.13,1.24.09.38.26.7.52.96.36.42.86.63,1.53.63.43,0,.78-.04,1.03-.13.25-.09.5-.21.72-.36l1.41,4.39c-.58.28-1.21.49-1.89.63-.67.14-1.42.21-2.23.21-.94,0-1.79-.15-2.54-.45-.75-.3-1.38-.71-1.89-1.23-1.2-1.17-1.79-2.83-1.79-4.98v-8.37Z"/>
    <path class="cls-8" d="M771.4,212.48h-.31c-.58.71-1.29,1.32-2.12,1.83s-1.89.76-3.18.76c-.97,0-1.88-.16-2.73-.48-.85-.32-1.6-.76-2.23-1.32-.64-.56-1.13-1.23-1.49-2.02-.36-.79-.53-1.65-.53-2.59s.19-1.84.57-2.61c.38-.78.92-1.44,1.6-2,.69-.56,1.49-.98,2.42-1.28.93-.29,1.94-.44,3.03-.44,1.22,0,2.22.1,3.01.29.79.19,1.44.39,1.95.59v-.57c0-.99-.39-1.81-1.18-2.46-.79-.65-1.77-.97-2.94-.97-1.73,0-3.19.72-4.39,2.17l-3.62-2.48c1.98-2.49,4.69-3.74,8.12-3.74,2.9,0,5.11.68,6.64,2.04,1.53,1.36,2.29,3.38,2.29,6.04v11.21h-4.92v-1.98ZM771.4,206.88c-.58-.28-1.19-.5-1.81-.67-.62-.17-1.3-.25-2.04-.25-1.2,0-2.12.26-2.77.78s-.97,1.16-.97,1.93.31,1.37.93,1.83,1.34.69,2.16.69c.66,0,1.27-.12,1.83-.36.56-.24,1.04-.56,1.43-.95s.7-.85.92-1.37c.22-.52.32-1.06.32-1.62Z"/>
    <path class="cls-8" d="M781.97,200.05h-3.28v-4.27h3.28v-5.72h5v5.72h4.58v4.27h-4.58v7.47c0,.45.04.86.13,1.24.09.38.26.7.52.96.36.42.86.63,1.53.63.43,0,.78-.04,1.03-.13.25-.09.5-.21.72-.36l1.41,4.39c-.58.28-1.21.49-1.89.63-.67.14-1.42.21-2.23.21-.94,0-1.79-.15-2.54-.45-.75-.3-1.38-.71-1.89-1.23-1.2-1.17-1.79-2.83-1.79-4.98v-8.37Z"/>
    <path class="cls-8" d="M812.06,186.85c.71,0,1.37.06,1.98.19.61.13,1.16.29,1.64.5l-1.41,4.46c-.25-.13-.53-.23-.82-.31s-.65-.11-1.09-.11c-.74,0-1.32.24-1.75.71-.43.47-.65,1.12-.65,1.96v1.53h4.65v4.27h-4.65v14.42h-5v-14.42h-3.36v-4.27h3.36v-1.83c0-1.14.17-2.15.51-3.03.34-.88.83-1.61,1.47-2.21.63-.6,1.38-1.05,2.25-1.37.86-.32,1.82-.48,2.86-.48Z"/>
    <path class="cls-8" d="M817.97,195.78h4.69v2.59h.31c.23-.46.53-.88.92-1.26.38-.38.81-.71,1.28-1,.47-.28.98-.51,1.53-.69.55-.17,1.09-.26,1.62-.26.66,0,1.23.07,1.7.21s.87.32,1.2.55l-1.33,4.46c-.3-.15-.64-.27-1.01-.36-.37-.09-.82-.13-1.35-.13-.69,0-1.31.13-1.87.4-.56.27-1.04.65-1.43,1.13-.39.49-.7,1.05-.92,1.71-.22.65-.32,1.36-.32,2.13v9.2h-5v-18.69Z"/>
    <path class="cls-8" d="M841.19,195.17c1.45,0,2.78.25,3.99.74,1.21.5,2.25,1.18,3.13,2.06.88.88,1.56,1.93,2.06,3.15.5,1.22.74,2.56.74,4s-.25,2.78-.74,4c-.5,1.22-1.18,2.27-2.06,3.15-.88.88-1.92,1.56-3.13,2.06-1.21.5-2.54.74-3.99.74s-2.78-.25-3.99-.74c-1.21-.5-2.25-1.18-3.13-2.06s-1.56-1.93-2.06-3.15c-.5-1.22-.74-2.56-.74-4s.25-2.78.74-4,1.18-2.27,2.06-3.15c.88-.88,1.92-1.56,3.13-2.06,1.21-.5,2.54-.74,3.99-.74ZM841.19,210.46c.64,0,1.25-.12,1.85-.36.6-.24,1.12-.59,1.58-1.05s.82-1.02,1.09-1.68c.27-.66.4-1.41.4-2.25s-.13-1.59-.4-2.25c-.27-.66-.63-1.22-1.09-1.68-.46-.46-.99-.81-1.58-1.05-.6-.24-1.21-.36-1.85-.36s-1.28.12-1.87.36c-.59.24-1.11.59-1.56,1.05-.46.46-.82,1.02-1.09,1.68-.27.66-.4,1.41-.4,2.25s.13,1.59.4,2.25c.27.66.63,1.22,1.09,1.68.46.46.98.81,1.56,1.05.58.24,1.21.36,1.87.36Z"/>
    <path class="cls-8" d="M858.62,198.22h.31c.58-.94,1.37-1.68,2.36-2.23.99-.55,2.12-.82,3.39-.82,1.17,0,2.2.19,3.09.57.89.38,1.62.92,2.19,1.62.57.7,1,1.54,1.3,2.52.29.98.44,2.07.44,3.26v11.33h-5v-10.72c0-1.35-.3-2.35-.9-2.99-.6-.65-1.47-.97-2.61-.97-.69,0-1.29.15-1.81.44-.52.29-.97.69-1.33,1.18-.37.5-.65,1.08-.84,1.75-.19.67-.29,1.39-.29,2.15v9.15h-5v-18.69h4.69v2.44Z"/>
    <path class="cls-8" d="M876.93,200.05h-3.28v-4.27h3.28v-5.72h5v5.72h4.58v4.27h-4.58v7.47c0,.45.04.86.13,1.24.09.38.26.7.52.96.36.42.86.63,1.53.63.43,0,.78-.04,1.03-.13.25-.09.5-.21.72-.36l1.41,4.39c-.58.28-1.21.49-1.89.63-.67.14-1.42.21-2.23.21-.94,0-1.79-.15-2.54-.45-.75-.3-1.38-.71-1.89-1.23-1.2-1.17-1.79-2.83-1.79-4.98v-8.37Z"/>
  </g>
  <g>
    <g class="cls-11">
      <g>
        <path d="M950.49,641.82h-9.53v-2.26h9.53v2.26Z"/>
        <path d="M960.17,629.56v20.37h-2.74v-16.97l-3.96,1.73-1.04-2.32,5.98-2.8h1.76Z"/>
      </g>
    </g>
    <g class="cls-13">
      <polyline class="cls-6" points="885.7 596.3 885.7 598.28 1012.73 598.28 1012.73 596.3 885.7 596.3"/>
      <polyline class="cls-6" points="885.7 681.65 885.7 683.64 1012.73 683.64 1012.73 681.65 885.7 681.65"/>
      <polyline class="cls-6" points="885.7 596.3 885.7 683.64 887.68 683.64 887.68 596.3 885.7 596.3"/>
      <polyline class="cls-6" points="1012.73 596.3 1012.73 683.64 1014.72 683.64 1014.72 596.3 1012.73 596.3"/>
    </g>
  </g>
  <g>
    <path class="cls-8" d="M1318.3,702.28h9.95c1.37,0,2.62.22,3.74.65,1.12.43,2.08,1.03,2.88,1.79s1.42,1.67,1.85,2.73c.43,1.06.65,2.21.65,3.45,0,.92-.15,1.77-.46,2.57-.31.8-.72,1.53-1.26,2.17s-1.16,1.22-1.87,1.72c-.71.5-1.46.88-2.25,1.16l-.04.27,7.32,10.49v.3h-5.91l-7.06-10.26h-2.4v10.26h-5.15v-27.31ZM1328.22,714.6c1.17,0,2.13-.36,2.88-1.07s1.12-1.61,1.12-2.71c0-.48-.08-.95-.25-1.41s-.41-.86-.74-1.22c-.33-.36-.74-.64-1.24-.86-.5-.22-1.06-.32-1.7-.32h-4.84v7.59h4.77Z"/>
    <path class="cls-8" d="M1358.65,725.09c-.86,1.53-2.03,2.76-3.49,3.7s-3.25,1.41-5.36,1.41c-1.42,0-2.74-.25-3.95-.74-1.21-.5-2.26-1.19-3.15-2.08-.89-.89-1.58-1.94-2.08-3.15-.5-1.21-.74-2.54-.74-3.99,0-1.35.24-2.62.72-3.83.48-1.21,1.16-2.26,2.02-3.17s1.89-1.62,3.07-2.16c1.18-.53,2.49-.8,3.91-.8,1.5,0,2.83.25,4,.74,1.17.5,2.15,1.18,2.94,2.06.79.88,1.38,1.91,1.79,3.11.41,1.2.61,2.49.61,3.89v.46c-.03.15-.04.29-.04.42-.03.13-.04.27-.04.42h-14.07c.1.76.31,1.42.63,1.96.32.55.71,1,1.18,1.37s.99.64,1.54.8c.56.17,1.13.25,1.72.25,1.14,0,2.09-.26,2.84-.78.75-.52,1.34-1.18,1.77-1.96l4.16,2.06ZM1354.11,717.84c-.03-.33-.13-.7-.32-1.11-.19-.41-.47-.79-.84-1.14-.37-.36-.83-.65-1.37-.88-.55-.23-1.2-.34-1.96-.34-1.07,0-2.01.3-2.82.92-.81.61-1.39,1.46-1.72,2.56h9.04Z"/>
    <path class="cls-8" d="M1362.16,710.9h4.69v2.44h.31c.58-.92,1.38-1.65,2.38-2.21,1-.56,2.12-.84,3.34-.84,1.42,0,2.62.33,3.58.99.97.66,1.65,1.47,2.06,2.44.58-.94,1.41-1.75,2.48-2.42,1.07-.67,2.36-1.01,3.89-1.01,1.14,0,2.14.18,2.98.55.84.37,1.53.88,2.08,1.54.55.66.96,1.46,1.24,2.38.28.93.42,1.94.42,3.03v11.78h-5v-10.87c0-2.54-1.04-3.81-3.13-3.81-.66,0-1.25.15-1.75.44s-.93.69-1.28,1.18c-.34.5-.61,1.09-.8,1.77-.19.69-.29,1.42-.29,2.21v9.08h-5v-10.87c0-2.54-1.09-3.81-3.28-3.81-.64,0-1.2.15-1.68.44-.48.29-.89.69-1.22,1.18-.33.5-.58,1.09-.76,1.77s-.27,1.42-.27,2.21v9.08h-5v-18.69Z"/>
    <path class="cls-8" d="M1404.57,710.29c1.45,0,2.78.25,3.99.74,1.21.5,2.25,1.18,3.13,2.06s1.56,1.93,2.06,3.15c.5,1.22.74,2.55.74,4s-.25,2.78-.74,4c-.5,1.22-1.18,2.27-2.06,3.15s-1.92,1.56-3.13,2.06c-1.21.5-2.54.74-3.99.74s-2.78-.25-3.99-.74c-1.21-.5-2.25-1.18-3.13-2.06-.88-.88-1.56-1.93-2.06-3.15-.5-1.22-.74-2.56-.74-4s.25-2.78.74-4c.5-1.22,1.18-2.27,2.06-3.15.88-.88,1.92-1.56,3.13-2.06,1.21-.5,2.54-.74,3.99-.74ZM1404.57,725.59c.64,0,1.25-.12,1.85-.36.6-.24,1.12-.59,1.58-1.05.46-.46.82-1.02,1.09-1.68.27-.66.4-1.41.4-2.25s-.13-1.59-.4-2.25-.63-1.22-1.09-1.68c-.46-.46-.99-.81-1.58-1.05s-1.21-.36-1.85-.36-1.28.12-1.87.36c-.59.24-1.11.59-1.56,1.05s-.82,1.02-1.09,1.68c-.27.66-.4,1.41-.4,2.25s.13,1.59.4,2.25c.27.66.63,1.22,1.09,1.68.46.46.98.81,1.56,1.05.58.24,1.21.36,1.87.36Z"/>
    <path class="cls-8" d="M1415.32,710.9h5.68l4.65,11.9h.27l4.69-11.9h5.64l-8.05,18.69h-4.92l-7.97-18.69Z"/>
    <path class="cls-8" d="M1455.67,725.09c-.86,1.53-2.03,2.76-3.49,3.7s-3.25,1.41-5.36,1.41c-1.42,0-2.74-.25-3.95-.74-1.21-.5-2.26-1.19-3.15-2.08-.89-.89-1.58-1.94-2.08-3.15-.5-1.21-.74-2.54-.74-3.99,0-1.35.24-2.62.72-3.83.48-1.21,1.16-2.26,2.02-3.17s1.89-1.62,3.07-2.16c1.18-.53,2.49-.8,3.91-.8,1.5,0,2.83.25,4,.74,1.17.5,2.15,1.18,2.94,2.06.79.88,1.38,1.91,1.79,3.11.41,1.2.61,2.49.61,3.89v.46c-.03.15-.04.29-.04.42-.03.13-.04.27-.04.42h-14.07c.1.76.31,1.42.63,1.96.32.55.71,1,1.18,1.37s.99.64,1.54.8c.56.17,1.13.25,1.72.25,1.14,0,2.09-.26,2.84-.78.75-.52,1.34-1.18,1.77-1.96l4.16,2.06ZM1451.13,717.84c-.03-.33-.13-.7-.32-1.11-.19-.41-.47-.79-.84-1.14-.37-.36-.83-.65-1.37-.88-.55-.23-1.2-.34-1.96-.34-1.07,0-2.01.3-2.82.92-.81.61-1.39,1.46-1.72,2.56h9.04Z"/>
    <path class="cls-8" d="M1485.27,725.09c-.86,1.53-2.03,2.76-3.49,3.7s-3.25,1.41-5.36,1.41c-1.42,0-2.74-.25-3.95-.74-1.21-.5-2.26-1.19-3.15-2.08-.89-.89-1.58-1.94-2.08-3.15-.5-1.21-.74-2.54-.74-3.99,0-1.35.24-2.62.72-3.83.48-1.21,1.16-2.26,2.02-3.17s1.89-1.62,3.07-2.16c1.18-.53,2.49-.8,3.91-.8,1.5,0,2.83.25,4,.74,1.17.5,2.15,1.18,2.94,2.06.79.88,1.38,1.91,1.79,3.11.41,1.2.61,2.49.61,3.89v.46c-.03.15-.04.29-.04.42-.03.13-.04.27-.04.42h-14.07c.1.76.31,1.42.63,1.96.32.55.71,1,1.18,1.37s.99.64,1.54.8c.56.17,1.13.25,1.72.25,1.14,0,2.09-.26,2.84-.78.75-.52,1.34-1.18,1.77-1.96l4.16,2.06ZM1480.73,717.84c-.03-.33-.13-.7-.32-1.11-.19-.41-.47-.79-.84-1.14-.37-.36-.83-.65-1.37-.88-.55-.23-1.2-.34-1.96-.34-1.07,0-2.01.3-2.82.92-.81.61-1.39,1.46-1.72,2.56h9.04Z"/>
    <path class="cls-8" d="M1488.77,729.59v-27.31h5v27.31h-5Z"/>
    <path class="cls-8" d="M1515.55,725.09c-.86,1.53-2.03,2.76-3.49,3.7s-3.25,1.41-5.36,1.41c-1.42,0-2.74-.25-3.95-.74-1.21-.5-2.26-1.19-3.15-2.08-.89-.89-1.58-1.94-2.08-3.15-.5-1.21-.74-2.54-.74-3.99,0-1.35.24-2.62.72-3.83.48-1.21,1.16-2.26,2.02-3.17s1.89-1.62,3.07-2.16c1.18-.53,2.49-.8,3.91-.8,1.5,0,2.83.25,4,.74,1.17.5,2.15,1.18,2.94,2.06.79.88,1.38,1.91,1.79,3.11.41,1.2.61,2.49.61,3.89v.46c-.03.15-.04.29-.04.42-.03.13-.04.27-.04.42h-14.07c.1.76.31,1.42.63,1.96.32.55.71,1,1.18,1.37s.99.64,1.54.8c.56.17,1.13.25,1.72.25,1.14,0,2.09-.26,2.84-.78.75-.52,1.34-1.18,1.77-1.96l4.16,2.06ZM1511.01,717.84c-.03-.33-.13-.7-.32-1.11-.19-.41-.47-.79-.84-1.14-.37-.36-.83-.65-1.37-.88-.55-.23-1.2-.34-1.96-.34-1.07,0-2.01.3-2.82.92-.81.61-1.39,1.46-1.72,2.56h9.04Z"/>
    <path class="cls-8" d="M1519.06,710.9h4.69v2.44h.31c.58-.92,1.38-1.65,2.38-2.21,1-.56,2.12-.84,3.34-.84,1.42,0,2.62.33,3.58.99.97.66,1.65,1.47,2.06,2.44.58-.94,1.41-1.75,2.48-2.42,1.07-.67,2.36-1.01,3.89-1.01,1.14,0,2.14.18,2.98.55.84.37,1.53.88,2.08,1.54.55.66.96,1.46,1.24,2.38.28.93.42,1.94.42,3.03v11.78h-5v-10.87c0-2.54-1.04-3.81-3.13-3.81-.66,0-1.25.15-1.75.44s-.93.69-1.28,1.18c-.34.5-.61,1.09-.8,1.77-.19.69-.29,1.42-.29,2.21v9.08h-5v-10.87c0-2.54-1.09-3.81-3.28-3.81-.64,0-1.2.15-1.68.44-.48.29-.89.69-1.22,1.18-.33.5-.58,1.09-.76,1.77s-.27,1.42-.27,2.21v9.08h-5v-18.69Z"/>
    <path class="cls-8" d="M1570.31,725.09c-.86,1.53-2.03,2.76-3.49,3.7s-3.25,1.41-5.36,1.41c-1.42,0-2.74-.25-3.95-.74-1.21-.5-2.26-1.19-3.15-2.08-.89-.89-1.58-1.94-2.08-3.15-.5-1.21-.74-2.54-.74-3.99,0-1.35.24-2.62.72-3.83.48-1.21,1.16-2.26,2.02-3.17s1.89-1.62,3.07-2.16c1.18-.53,2.49-.8,3.91-.8,1.5,0,2.83.25,4,.74,1.17.5,2.15,1.18,2.94,2.06.79.88,1.38,1.91,1.79,3.11.41,1.2.61,2.49.61,3.89v.46c-.03.15-.04.29-.04.42-.03.13-.04.27-.04.42h-14.07c.1.76.31,1.42.63,1.96.32.55.71,1,1.18,1.37s.99.64,1.54.8c.56.17,1.13.25,1.72.25,1.14,0,2.09-.26,2.84-.78.75-.52,1.34-1.18,1.77-1.96l4.16,2.06ZM1565.77,717.84c-.03-.33-.13-.7-.32-1.11-.19-.41-.47-.79-.84-1.14-.37-.36-.83-.65-1.37-.88-.55-.23-1.2-.34-1.96-.34-1.07,0-2.01.3-2.82.92-.81.61-1.39,1.46-1.72,2.56h9.04Z"/>
    <path class="cls-8" d="M1578.51,713.34h.31c.58-.94,1.37-1.68,2.36-2.23.99-.55,2.12-.82,3.39-.82,1.17,0,2.2.19,3.09.57.89.38,1.62.92,2.19,1.62.57.7,1,1.54,1.3,2.52.29.98.44,2.07.44,3.26v11.33h-5v-10.72c0-1.35-.3-2.35-.9-2.99-.6-.65-1.47-.97-2.61-.97-.69,0-1.29.15-1.81.44-.52.29-.97.69-1.33,1.18-.37.5-.65,1.08-.84,1.75-.19.67-.29,1.39-.29,2.15v9.15h-5v-18.69h4.69v2.44Z"/>
    <path class="cls-8" d="M1596.82,715.17h-3.28v-4.27h3.28v-5.72h5v5.72h4.58v4.27h-4.58v7.47c0,.45.04.86.13,1.24.09.38.26.7.52.96.36.42.86.63,1.53.63.43,0,.78-.04,1.03-.13s.5-.21.72-.36l1.41,4.39c-.58.28-1.21.49-1.89.63s-1.42.21-2.23.21c-.94,0-1.79-.15-2.54-.45-.75-.3-1.38-.71-1.89-1.23-1.2-1.17-1.79-2.83-1.79-4.98v-8.37Z"/>
    <path class="cls-8" d="M1626.91,701.98c.71,0,1.37.06,1.98.19.61.13,1.16.29,1.64.5l-1.41,4.46c-.25-.13-.53-.23-.82-.3-.29-.08-.65-.12-1.09-.12-.74,0-1.32.24-1.75.71-.43.47-.65,1.12-.65,1.96v1.53h4.65v4.27h-4.65v14.42h-5v-14.42h-3.36v-4.27h3.36v-1.83c0-1.14.17-2.16.51-3.03.34-.88.83-1.61,1.47-2.21.63-.6,1.38-1.05,2.25-1.37.86-.32,1.82-.48,2.86-.48Z"/>
    <path class="cls-8" d="M1632.82,710.9h4.69v2.59h.31c.23-.46.53-.88.92-1.26.38-.38.81-.71,1.28-1,.47-.28.98-.51,1.53-.69.55-.17,1.09-.26,1.62-.26.66,0,1.23.07,1.7.21.47.14.87.32,1.2.55l-1.33,4.46c-.3-.15-.64-.27-1.01-.36-.37-.09-.82-.13-1.35-.13-.69,0-1.31.13-1.87.4-.56.27-1.04.65-1.43,1.13-.39.49-.7,1.05-.92,1.71-.22.65-.32,1.36-.32,2.13v9.2h-5v-18.69Z"/>
    <path class="cls-8" d="M1656.04,710.29c1.45,0,2.78.25,3.99.74,1.21.5,2.25,1.18,3.13,2.06s1.56,1.93,2.06,3.15c.5,1.22.74,2.55.74,4s-.25,2.78-.74,4c-.5,1.22-1.18,2.27-2.06,3.15s-1.92,1.56-3.13,2.06c-1.21.5-2.54.74-3.99.74s-2.78-.25-3.99-.74c-1.21-.5-2.25-1.18-3.13-2.06-.88-.88-1.56-1.93-2.06-3.15-.5-1.22-.74-2.56-.74-4s.25-2.78.74-4c.5-1.22,1.18-2.27,2.06-3.15.88-.88,1.92-1.56,3.13-2.06,1.21-.5,2.54-.74,3.99-.74ZM1656.04,725.59c.64,0,1.25-.12,1.85-.36.6-.24,1.12-.59,1.58-1.05.46-.46.82-1.02,1.09-1.68.27-.66.4-1.41.4-2.25s-.13-1.59-.4-2.25-.63-1.22-1.09-1.68c-.46-.46-.99-.81-1.58-1.05s-1.21-.36-1.85-.36-1.28.12-1.87.36c-.59.24-1.11.59-1.56,1.05s-.82,1.02-1.09,1.68c-.27.66-.4,1.41-.4,2.25s.13,1.59.4,2.25c.27.66.63,1.22,1.09,1.68.46.46.98.81,1.56,1.05.58.24,1.21.36,1.87.36Z"/>
    <path class="cls-8" d="M1668.78,710.9h4.69v2.44h.31c.58-.92,1.38-1.65,2.38-2.21,1-.56,2.12-.84,3.34-.84,1.42,0,2.62.33,3.58.99.97.66,1.65,1.47,2.06,2.44.58-.94,1.41-1.75,2.48-2.42,1.07-.67,2.36-1.01,3.89-1.01,1.14,0,2.14.18,2.98.55.84.37,1.53.88,2.08,1.54.55.66.96,1.46,1.24,2.38.28.93.42,1.94.42,3.03v11.78h-5v-10.87c0-2.54-1.04-3.81-3.13-3.81-.66,0-1.25.15-1.75.44s-.93.69-1.28,1.18c-.34.5-.61,1.09-.8,1.77-.19.69-.29,1.42-.29,2.21v9.08h-5v-10.87c0-2.54-1.09-3.81-3.28-3.81-.64,0-1.2.15-1.68.44-.48.29-.89.69-1.22,1.18-.33.5-.58,1.09-.76,1.77s-.27,1.42-.27,2.21v9.08h-5v-18.69Z"/>
    <path class="cls-8" d="M1710.73,702.28h5v8.2l-.31,2.67h.31c.46-.79,1.17-1.46,2.14-2.02.97-.56,2.16-.84,3.58-.84,1.19,0,2.33.25,3.41.74,1.08.5,2.03,1.18,2.86,2.06.83.88,1.48,1.93,1.96,3.15.48,1.22.72,2.55.72,4s-.24,2.78-.72,4c-.48,1.22-1.14,2.27-1.96,3.15-.83.88-1.78,1.56-2.86,2.06-1.08.5-2.22.74-3.41.74-1.42,0-2.62-.28-3.58-.84-.97-.56-1.68-1.23-2.14-2.02h-.31v2.25h-4.69v-27.31ZM1720.42,725.59c.66,0,1.29-.13,1.89-.38s1.13-.61,1.58-1.07c.46-.46.83-1.02,1.11-1.68.28-.66.42-1.4.42-2.21s-.14-1.55-.42-2.21c-.28-.66-.65-1.22-1.11-1.68-.46-.46-.99-.81-1.58-1.07-.6-.25-1.23-.38-1.89-.38s-1.29.12-1.89.36-1.12.59-1.58,1.05c-.46.46-.83,1.02-1.11,1.68-.28.66-.42,1.41-.42,2.25s.14,1.59.42,2.25c.28.66.65,1.22,1.11,1.68s.98.81,1.58,1.05c.6.24,1.23.36,1.89.36Z"/>
    <path class="cls-8" d="M1745.13,727.61h-.31c-.58.71-1.29,1.32-2.12,1.83-.83.51-1.89.76-3.18.76-.97,0-1.88-.16-2.73-.48-.85-.32-1.6-.76-2.23-1.32-.64-.56-1.13-1.23-1.49-2.02s-.53-1.65-.53-2.59.19-1.84.57-2.61c.38-.78.92-1.44,1.6-2,.69-.56,1.49-.99,2.42-1.28.93-.29,1.94-.44,3.03-.44,1.22,0,2.22.1,3.01.29s1.44.39,1.95.59v-.57c0-.99-.39-1.81-1.18-2.46s-1.77-.97-2.94-.97c-1.73,0-3.19.72-4.39,2.17l-3.62-2.48c1.98-2.49,4.69-3.74,8.12-3.74,2.9,0,5.11.68,6.64,2.04,1.53,1.36,2.29,3.38,2.29,6.04v11.21h-4.92v-1.98ZM1745.13,722c-.58-.28-1.19-.5-1.81-.67-.62-.17-1.3-.25-2.04-.25-1.2,0-2.12.26-2.77.78-.65.52-.97,1.16-.97,1.93s.31,1.37.93,1.83c.62.46,1.34.69,2.16.69.66,0,1.27-.12,1.83-.36.56-.24,1.04-.56,1.43-.95s.7-.85.92-1.37c.22-.52.32-1.06.32-1.62Z"/>
    <path class="cls-8" d="M1771.56,724.82c-.81,1.58-1.95,2.87-3.41,3.87s-3.29,1.51-5.47,1.51c-1.45,0-2.78-.25-3.99-.74-1.21-.5-2.25-1.19-3.13-2.08-.88-.89-1.56-1.94-2.06-3.15-.5-1.21-.74-2.54-.74-3.99s.25-2.78.74-4c.5-1.22,1.18-2.27,2.06-3.15.88-.88,1.92-1.56,3.13-2.06,1.21-.5,2.54-.74,3.99-.74,2.16,0,3.98.5,5.45,1.49,1.47.99,2.55,2.28,3.24,3.85l-4.58,1.91c-.43-.86-.99-1.52-1.66-1.96-.67-.44-1.52-.67-2.54-.67-.66,0-1.28.13-1.87.38-.59.25-1.1.61-1.54,1.07-.45.46-.79,1.02-1.05,1.68-.25.66-.38,1.4-.38,2.21s.13,1.55.38,2.21c.25.66.6,1.22,1.05,1.68.44.46.96.81,1.54,1.07.58.25,1.21.38,1.87.38,1.04,0,1.93-.23,2.65-.71.72-.47,1.3-1.15,1.74-2.04l4.58,1.98Z"/>
    <path class="cls-8" d="M1774.61,702.28h5v14.87h.23l6.25-6.25h6.18v.31l-6.94,6.75,7.51,11.33v.3h-5.91l-5.11-8.2-2.21,2.17v6.03h-5v-27.31Z"/>
  </g>
  <g>
    <g class="cls-12">
      <path d="M1571.33,644.3c0,1.75-.67,3.2-2,4.35-1.35,1.17-2.99,1.76-4.92,1.76s-3.57-.59-4.92-1.76c-1.33-1.15-2-2.6-2-4.35,0-1.07.29-2.05.87-2.94.58-.88,1.4-1.58,2.47-2.1v-.12c-.79-.52-1.44-1.15-1.92-1.91-.49-.75-.73-1.55-.73-2.38,0-1.65.59-3.03,1.76-4.14,1.15-1.09,2.64-1.64,4.47-1.64s3.32.55,4.47,1.64c1.17,1.11,1.76,2.49,1.76,4.14,0,.83-.24,1.63-.73,2.38-.49.76-1.13,1.39-1.92,1.91v.12c1.07.52,1.9,1.22,2.47,2.1.58.88.87,1.86.87,2.94ZM1560.3,644.15c0,.54.1,1.02.31,1.46.21.44.5.82.87,1.15.37.33.8.58,1.3.76.5.18,1.04.27,1.64.27s1.14-.09,1.64-.27.93-.43,1.3-.76c.37-.33.66-.71.86-1.15.21-.44.31-.92.31-1.46,0-1.03-.4-1.89-1.19-2.56-.79-.7-1.77-1.04-2.92-1.04s-2.14.35-2.95,1.04c-.78.7-1.16,1.55-1.16,2.56ZM1560.99,634.79c0,.95.32,1.72.95,2.31.64.59,1.46.88,2.47.88s1.84-.29,2.47-.88c.64-.59.95-1.36.95-2.31s-.32-1.71-.95-2.27c-.64-.56-1.46-.83-2.47-.83s-1.84.28-2.47.83c-.64.56-.95,1.31-.95,2.27Z"/>
    </g>
    <g class="cls-1">
      <polyline class="cls-6" points="1498.65 596.24 1498.65 598.23 1625.85 598.23 1625.85 596.24 1498.65 596.24"/>
      <polyline class="cls-6" points="1498.65 681.71 1498.65 683.69 1625.85 683.69 1625.85 681.71 1498.65 681.71"/>
      <polyline class="cls-6" points="1498.65 596.24 1498.65 683.69 1500.63 683.69 1500.63 596.24 1498.65 596.24"/>
      <polyline class="cls-6" points="1625.85 596.24 1625.85 683.69 1627.84 683.69 1627.84 596.24 1625.85 596.24"/>
    </g>
  </g>
</svg>