<?xml version="1.0" encoding="UTF-8"?>
<svg id="Layer_1" data-name="Layer 1" xmlns="http://www.w3.org/2000/svg" xmlns:xlink="http://www.w3.org/1999/xlink" viewBox="0 0 1920 1080">
  <defs>
    <style>
      .cls-1 {
        fill: #dfdfd6;
        clip-path: url(#clippath-4);
      }

      .cls-2 {
        stroke: #dfdfd6;
        stroke-linecap: round;
        stroke-linejoin: round;
        stroke-width: 6px;
      }

      .cls-2, .cls-3 {
        fill: none;
      }

      .cls-4 {
        fill: #dfdfd6;
        clip-path: url(#clippath-9);
      }

      .cls-5 {
        fill: #adadb0;
        fill-rule: evenodd;
      }

      .cls-6 {
        fill: #dfdfd6;
        clip-path: url(#clippath-1);
      }

      .cls-7 {
        fill: #dfdfd6;
      }

      .cls-8 {
        fill: #dfdfd6;
        clip-path: url(#clippath-5);
      }

      .cls-9 {
        fill: #dfdfd6;
        clip-path: url(#clippath-8);
      }

      .cls-3 {
        fill: #dfdfd6;
        clip-rule: evenodd;
      }

      .cls-10 {
        fill: #dfdfd6;
        clip-path: url(#clippath);
      }
    </style>
    <clipPath id="clippath">
      <polygon class="cls-3" points="896.72 446.97 1758.12 446.97 1758.12 536.7 896.72 536.7 896.72 446.97 896.72 446.97"/>
    </clipPath>
    <clipPath id="clippath-1">
      <polygon class="cls-3" points="894.48 444.73 1758.12 444.73 1758.12 536.7 894.48 536.7 894.48 444.73 894.48 444.73"/>
    </clipPath>
    <clipPath id="clippath-4">
      <polygon class="cls-3" points="941.95 598.32 1085.52 598.32 1085.52 688.05 941.95 688.05 941.95 598.32 941.95 598.32"/>
    </clipPath>
    <clipPath id="clippath-5">
      <polygon class="cls-3" points="939.71 596.08 1085.52 596.08 1085.52 688.05 939.71 688.05 939.71 596.08 939.71 596.08"/>
    </clipPath>
    <clipPath id="clippath-8">
      <polygon class="cls-3" points="1743.22 232.99 1886.46 232.99 1886.46 322.52 1743.22 322.52 1743.22 232.99 1743.22 232.99"/>
    </clipPath>
    <clipPath id="clippath-9">
      <polygon class="cls-3" points="1740.98 230.75 1886.46 230.75 1886.46 322.52 1740.98 322.52 1740.98 230.75 1740.98 230.75"/>
    </clipPath>
  </defs>
  <g>
    <path class="cls-7" d="M123.04,541.91c-4.79,2.05-9.84,3.66-15.17,4.82-5.33,1.16-10.87,1.74-16.61,1.74-10.94,0-21.08-1.98-30.45-5.95-9.36-3.96-17.46-9.4-24.29-16.3-6.84-6.9-12.2-15.03-16.09-24.4-3.9-9.36-5.84-19.37-5.84-30.04s1.95-20.67,5.84-30.04c3.9-9.36,9.26-17.49,16.09-24.4,6.83-6.9,14.93-12.33,24.29-16.3,9.36-3.96,19.51-5.95,30.45-5.95s21.08,1.98,30.45,5.95c9.36,3.97,17.46,9.4,24.29,16.3,6.83,6.9,12.2,15.04,16.09,24.4,3.9,9.36,5.84,19.37,5.84,30.04,0,11.35-2.12,21.87-6.36,31.57-4.24,9.71-10.18,18.04-17.84,25.01l11.28,16.81-20.5,13.74-11.48-17.02ZM91.88,495.16l20.5-13.94,15.99,24.19c3.69-4.23,6.59-9.19,8.71-14.86,2.12-5.67,3.18-11.92,3.18-18.76,0-7.52-1.27-14.38-3.79-20.6-2.53-6.22-6.02-11.51-10.46-15.89-4.44-4.37-9.64-7.79-15.58-10.25-5.95-2.46-12.34-3.69-19.17-3.69s-13.22,1.23-19.17,3.69c-5.95,2.46-11.14,5.88-15.58,10.25-4.44,4.38-7.93,9.67-10.46,15.89-2.53,6.22-3.79,13.09-3.79,20.6s1.26,14.39,3.79,20.6c2.53,6.22,6.01,11.52,10.46,15.89,4.44,4.38,9.64,7.79,15.58,10.25,5.95,2.46,12.33,3.69,19.17,3.69,3,0,5.88-.27,8.61-.82,2.73-.54,5.4-1.3,8-2.26l-15.99-23.99Z"/>
    <path class="cls-7" d="M256.51,532.07h-1.64c-3.15,5.06-7.38,9.06-12.71,11.99s-11.41,4.41-18.25,4.41c-12.71,0-22.18-3.9-28.4-11.69-6.22-7.79-9.33-18.18-9.33-31.16v-60.89h26.86v57.61c0,7.25,1.6,12.61,4.82,16.09,3.21,3.48,7.89,5.23,14.04,5.23,3.69,0,6.94-.78,9.74-2.36,2.8-1.57,5.19-3.69,7.18-6.36,1.98-2.67,3.48-5.81,4.51-9.43,1.02-3.62,1.54-7.48,1.54-11.58v-49.21h26.86v100.46h-25.22v-13.12Z"/>
    <path class="cls-7" d="M398.79,521c-4.65,8.2-10.9,14.83-18.76,19.89-7.86,5.06-17.46,7.59-28.81,7.59-7.66,0-14.73-1.33-21.22-4-6.49-2.67-12.13-6.39-16.91-11.17-4.79-4.78-8.51-10.42-11.17-16.91-2.67-6.49-4-13.63-4-21.42,0-7.24,1.3-14.11,3.9-20.6,2.6-6.49,6.22-12.16,10.87-17.02,4.65-4.85,10.15-8.71,16.5-11.58,6.36-2.87,13.36-4.31,21.01-4.31,8.06,0,15.24,1.33,21.53,4,6.29,2.67,11.55,6.36,15.79,11.07,4.23,4.72,7.45,10.29,9.64,16.71,2.18,6.43,3.28,13.4,3.28,20.91v2.46c-.14.82-.21,1.57-.21,2.26-.14.69-.21,1.44-.21,2.26h-75.65c.54,4.1,1.67,7.62,3.38,10.56,1.71,2.94,3.83,5.4,6.36,7.38,2.53,1.98,5.29,3.42,8.3,4.31,3,.89,6.08,1.33,9.23,1.33,6.15,0,11.24-1.4,15.27-4.2,4.03-2.8,7.21-6.32,9.53-10.56l22.35,11.07ZM374.39,482.04c-.14-1.77-.72-3.76-1.74-5.95-1.02-2.18-2.53-4.23-4.51-6.15-1.98-1.91-4.44-3.49-7.38-4.72-2.94-1.23-6.46-1.85-10.56-1.85-5.74,0-10.8,1.64-15.17,4.92-4.38,3.28-7.45,7.86-9.23,13.74h48.59Z"/>
    <path class="cls-7" d="M487.15,532.07h-1.64c-3.15,5.06-7.38,9.06-12.71,11.99s-11.41,4.41-18.25,4.41c-12.71,0-22.18-3.9-28.4-11.69-6.22-7.79-9.33-18.18-9.33-31.16v-60.89h26.86v57.61c0,7.25,1.6,12.61,4.82,16.09,3.21,3.48,7.89,5.23,14.04,5.23,3.69,0,6.94-.78,9.74-2.36,2.8-1.57,5.19-3.69,7.18-6.36,1.98-2.67,3.48-5.81,4.51-9.43,1.02-3.62,1.54-7.48,1.54-11.58v-49.21h26.86v100.46h-25.22v-13.12Z"/>
    <path class="cls-7" d="M629.44,521c-4.65,8.2-10.9,14.83-18.76,19.89-7.86,5.06-17.46,7.59-28.81,7.59-7.66,0-14.73-1.33-21.22-4-6.49-2.67-12.13-6.39-16.91-11.17-4.79-4.78-8.51-10.42-11.17-16.91-2.67-6.49-4-13.63-4-21.42,0-7.24,1.3-14.11,3.9-20.6,2.6-6.49,6.22-12.16,10.87-17.02,4.65-4.85,10.15-8.71,16.5-11.58,6.36-2.87,13.36-4.31,21.01-4.31,8.06,0,15.24,1.33,21.53,4,6.29,2.67,11.55,6.36,15.79,11.07,4.23,4.72,7.45,10.29,9.64,16.71,2.18,6.43,3.28,13.4,3.28,20.91v2.46c-.14.82-.21,1.57-.21,2.26-.14.69-.21,1.44-.21,2.26h-75.65c.54,4.1,1.67,7.62,3.38,10.56,1.71,2.94,3.83,5.4,6.36,7.38,2.53,1.98,5.29,3.42,8.3,4.31,3,.89,6.08,1.33,9.23,1.33,6.15,0,11.24-1.4,15.27-4.2,4.03-2.8,7.21-6.32,9.53-10.56l22.35,11.07ZM605.04,482.04c-.14-1.77-.72-3.76-1.74-5.95-1.02-2.18-2.53-4.23-4.51-6.15-1.98-1.91-4.44-3.49-7.38-4.72-2.94-1.23-6.46-1.85-10.56-1.85-5.74,0-10.8,1.64-15.17,4.92-4.38,3.28-7.45,7.86-9.23,13.74h48.59Z"/>
    <path class="cls-7" d="M24.23,573.74h14.28c3.34,0,6.35.51,9.03,1.53,2.67,1.02,4.96,2.47,6.84,4.34,1.89,1.87,3.33,4.1,4.34,6.7,1,2.6,1.5,5.45,1.5,8.55s-.5,6.02-1.5,8.61c-1,2.6-2.45,4.82-4.34,6.67-1.89,1.85-4.17,3.28-6.84,4.31-2.68,1.02-5.68,1.53-9.03,1.53h-14.28v-42.24ZM38.15,608.43c2.32,0,4.37-.32,6.14-.97,1.77-.65,3.24-1.56,4.42-2.74,1.18-1.18,2.06-2.6,2.65-4.28.59-1.67.88-3.53.88-5.58s-.29-3.9-.88-5.58c-.59-1.67-1.48-3.1-2.65-4.28-1.18-1.18-2.66-2.09-4.42-2.74-1.77-.65-3.82-.97-6.14-.97h-5.96v27.14h5.96Z"/>
    <path class="cls-7" d="M83.52,612.92h-.47c-.91,1.1-2,2.04-3.27,2.83-1.28.79-2.92,1.18-4.93,1.18-1.5,0-2.9-.25-4.22-.74-1.32-.49-2.47-1.17-3.45-2.04-.98-.86-1.75-1.91-2.3-3.13-.55-1.22-.83-2.56-.83-4.01s.29-2.84.88-4.04c.59-1.2,1.42-2.23,2.48-3.1,1.06-.86,2.31-1.52,3.75-1.98,1.44-.45,3-.68,4.69-.68,1.89,0,3.44.15,4.66.44,1.22.29,2.22.6,3.01.91v-.88c0-1.53-.61-2.8-1.83-3.8-1.22-1-2.73-1.5-4.54-1.5-2.67,0-4.94,1.12-6.78,3.36l-5.6-3.83c3.07-3.85,7.26-5.78,12.57-5.78,4.48,0,7.91,1.05,10.27,3.16,2.36,2.1,3.54,5.22,3.54,9.35v17.34h-7.61v-3.07ZM83.52,604.24c-.91-.43-1.84-.78-2.8-1.03-.96-.26-2.02-.38-3.16-.38-1.85,0-3.27.4-4.28,1.21s-1.5,1.8-1.5,2.98.48,2.12,1.45,2.83c.96.71,2.07,1.06,3.33,1.06,1.02,0,1.97-.19,2.83-.56.86-.37,1.6-.87,2.21-1.48.61-.61,1.08-1.32,1.42-2.12.33-.81.5-1.64.5-2.51Z"/>
    <path class="cls-7" d="M99.86,593.68h-5.07v-6.61h5.07v-8.85h7.73v8.85h7.08v6.61h-7.08v11.55c0,.69.07,1.33.21,1.92.14.59.4,1.08.8,1.49.55.65,1.34.97,2.36.97.67,0,1.2-.07,1.59-.21.39-.14.77-.32,1.12-.56l2.18,6.79c-.91.43-1.88.76-2.92.97-1.04.22-2.19.33-3.45.33-1.46,0-2.76-.23-3.92-.69-1.16-.46-2.13-1.09-2.92-1.9-1.85-1.81-2.77-4.38-2.77-7.71v-12.95Z"/>
    <path class="cls-7" d="M137.56,612.92h-.47c-.91,1.1-2,2.04-3.27,2.83-1.28.79-2.92,1.18-4.93,1.18-1.5,0-2.9-.25-4.22-.74-1.32-.49-2.47-1.17-3.45-2.04-.98-.86-1.75-1.91-2.3-3.13-.55-1.22-.83-2.56-.83-4.01s.29-2.84.88-4.04c.59-1.2,1.42-2.23,2.48-3.1,1.06-.86,2.31-1.52,3.75-1.98,1.44-.45,3-.68,4.69-.68,1.89,0,3.44.15,4.66.44,1.22.29,2.22.6,3.01.91v-.88c0-1.53-.61-2.8-1.83-3.8-1.22-1-2.73-1.5-4.54-1.5-2.67,0-4.94,1.12-6.78,3.36l-5.6-3.83c3.07-3.85,7.26-5.78,12.57-5.78,4.48,0,7.91,1.05,10.27,3.16,2.36,2.1,3.54,5.22,3.54,9.35v17.34h-7.61v-3.07ZM137.56,604.24c-.91-.43-1.84-.78-2.8-1.03-.96-.26-2.02-.38-3.16-.38-1.85,0-3.27.4-4.28,1.21s-1.5,1.8-1.5,2.98.48,2.12,1.45,2.83c.96.71,2.07,1.06,3.33,1.06,1.02,0,1.97-.19,2.83-.56.86-.37,1.6-.87,2.21-1.48.61-.61,1.08-1.32,1.42-2.12.33-.81.5-1.64.5-2.51Z"/>
    <path class="cls-7" d="M176.37,616.93c-1.81,0-3.54-.26-5.19-.77s-3.17-1.28-4.54-2.3c-1.38-1.02-2.58-2.27-3.6-3.75-1.02-1.47-1.83-3.2-2.42-5.16l7.49-2.95c.55,2.12,1.51,3.88,2.89,5.28,1.38,1.4,3.19,2.09,5.43,2.09.83,0,1.62-.11,2.39-.32s1.45-.53,2.06-.94c.61-.41,1.09-.93,1.45-1.56.35-.63.53-1.36.53-2.18s-.14-1.49-.41-2.12c-.28-.63-.74-1.22-1.39-1.77-.65-.55-1.5-1.08-2.54-1.59-1.04-.51-2.33-1.04-3.86-1.59l-2.6-.94c-1.14-.39-2.29-.92-3.45-1.59-1.16-.67-2.21-1.48-3.16-2.42-.94-.94-1.72-2.05-2.33-3.33-.61-1.28-.91-2.72-.91-4.34s.32-3.2.97-4.63,1.57-2.69,2.77-3.78c1.2-1.08,2.63-1.93,4.31-2.54,1.67-.61,3.53-.92,5.58-.92s3.96.29,5.52.86c1.55.57,2.87,1.3,3.95,2.18,1.08.89,1.96,1.86,2.63,2.92.67,1.06,1.16,2.06,1.47,3.01l-7.02,2.95c-.39-1.18-1.11-2.24-2.15-3.19-1.04-.94-2.47-1.42-4.28-1.42s-3.17.4-4.31,1.21c-1.14.81-1.71,1.86-1.71,3.16s.55,2.33,1.65,3.21c1.1.88,2.85,1.74,5.25,2.57l2.65.88c1.69.59,3.23,1.27,4.63,2.04,1.4.77,2.6,1.68,3.6,2.74,1,1.06,1.77,2.27,2.3,3.63.53,1.36.8,2.92.8,4.69,0,2.2-.44,4.1-1.33,5.69-.88,1.59-2.02,2.9-3.39,3.92-1.38,1.02-2.93,1.79-4.66,2.3-1.73.51-3.42.77-5.07.77Z"/>
    <path class="cls-7" d="M198.14,593.68h-5.07v-6.61h5.07v-8.85h7.73v8.85h7.08v6.61h-7.08v11.55c0,.69.07,1.33.21,1.92.14.59.4,1.08.8,1.49.55.65,1.34.97,2.36.97.67,0,1.2-.07,1.59-.21.39-.14.77-.32,1.12-.56l2.18,6.79c-.91.43-1.88.76-2.92.97-1.04.22-2.19.33-3.45.33-1.46,0-2.76-.23-3.92-.69-1.16-.46-2.13-1.09-2.92-1.9-1.85-1.81-2.77-4.38-2.77-7.71v-12.95Z"/>
    <path class="cls-7" d="M218.62,587.08h7.26v4.01h.47c.35-.71.83-1.36,1.42-1.95.59-.59,1.25-1.1,1.98-1.54.73-.44,1.51-.79,2.36-1.06.85-.27,1.68-.41,2.51-.41,1.02,0,1.9.11,2.62.33.73.22,1.35.5,1.86.85l-2.06,6.9c-.47-.24-.99-.42-1.56-.56-.57-.14-1.27-.21-2.09-.21-1.06,0-2.03.21-2.89.62-.87.41-1.6,1-2.21,1.75-.61.75-1.08,1.63-1.42,2.64-.33,1.01-.5,2.11-.5,3.29v14.23h-7.73v-28.91Z"/>
    <path class="cls-7" d="M262.63,612.21h-.47c-.91,1.46-2.12,2.61-3.66,3.45-1.53.84-3.28,1.27-5.25,1.27-3.66,0-6.38-1.12-8.17-3.36-1.79-2.24-2.68-5.23-2.68-8.97v-17.52h7.73v16.58c0,2.08.46,3.63,1.39,4.63.92,1,2.27,1.5,4.04,1.5,1.06,0,2-.23,2.8-.68.81-.45,1.49-1.06,2.06-1.83.57-.77,1-1.67,1.3-2.71.29-1.04.44-2.15.44-3.33v-14.16h7.73v28.91h-7.26v-3.78Z"/>
    <path class="cls-7" d="M303.63,608.61c-1.26,2.44-3.02,4.44-5.28,5.99-2.26,1.55-5.08,2.33-8.47,2.33-2.24,0-4.3-.38-6.17-1.15-1.87-.77-3.48-1.84-4.84-3.22-1.36-1.38-2.42-3-3.19-4.87-.77-1.87-1.15-3.92-1.15-6.17s.38-4.31,1.15-6.19,1.83-3.51,3.19-4.87c1.36-1.36,2.97-2.42,4.84-3.19,1.87-.77,3.92-1.15,6.17-1.15,3.34,0,6.16.77,8.44,2.3,2.28,1.53,3.95,3.52,5.01,5.96l-7.08,2.95c-.67-1.34-1.52-2.35-2.57-3.04-1.04-.69-2.35-1.03-3.92-1.03-1.02,0-1.99.2-2.89.59-.9.39-1.7.94-2.39,1.65-.69.71-1.23,1.57-1.62,2.6-.39,1.02-.59,2.16-.59,3.42s.2,2.4.59,3.42c.39,1.02.93,1.89,1.62,2.6.69.71,1.48,1.26,2.39,1.65.9.39,1.87.59,2.89.59,1.61,0,2.98-.36,4.1-1.09,1.12-.73,2.02-1.78,2.68-3.16l7.08,3.07Z"/>
    <path class="cls-7" d="M311.24,593.68h-5.07v-6.61h5.07v-8.85h7.73v8.85h7.08v6.61h-7.08v11.55c0,.69.07,1.33.21,1.92.14.59.4,1.08.8,1.49.55.65,1.34.97,2.36.97.67,0,1.2-.07,1.59-.21.39-.14.77-.32,1.12-.56l2.18,6.79c-.91.43-1.88.76-2.92.97-1.04.22-2.19.33-3.45.33-1.46,0-2.76-.23-3.92-.69-1.16-.46-2.13-1.09-2.92-1.9-1.85-1.81-2.77-4.38-2.77-7.71v-12.95Z"/>
    <path class="cls-7" d="M351.71,612.21h-.47c-.91,1.46-2.12,2.61-3.66,3.45-1.53.84-3.28,1.27-5.25,1.27-3.66,0-6.38-1.12-8.17-3.36-1.79-2.24-2.68-5.23-2.68-8.97v-17.52h7.73v16.58c0,2.08.46,3.63,1.39,4.63.92,1,2.27,1.5,4.04,1.5,1.06,0,2-.23,2.8-.68.81-.45,1.49-1.06,2.06-1.83.57-.77,1-1.67,1.3-2.71.29-1.04.44-2.15.44-3.33v-14.16h7.73v28.91h-7.26v-3.78Z"/>
    <path class="cls-7" d="M365.57,587.08h7.26v4.01h.47c.35-.71.83-1.36,1.42-1.95.59-.59,1.25-1.1,1.98-1.54.73-.44,1.51-.79,2.36-1.06.85-.27,1.68-.41,2.51-.41,1.02,0,1.9.11,2.62.33.73.22,1.35.5,1.86.85l-2.06,6.9c-.47-.24-.99-.42-1.56-.56-.57-.14-1.27-.21-2.09-.21-1.06,0-2.03.21-2.89.62-.87.41-1.6,1-2.21,1.75-.61.75-1.08,1.63-1.42,2.64-.33,1.01-.5,2.11-.5,3.29v14.23h-7.73v-28.91Z"/>
    <path class="cls-7" d="M415.19,609.02c-1.34,2.36-3.14,4.27-5.4,5.72-2.26,1.46-5.02,2.18-8.29,2.18-2.2,0-4.24-.38-6.11-1.15-1.87-.77-3.49-1.84-4.87-3.22-1.38-1.38-2.45-3-3.22-4.87-.77-1.87-1.15-3.92-1.15-6.17,0-2.08.37-4.06,1.12-5.93.75-1.87,1.79-3.5,3.13-4.9,1.34-1.4,2.92-2.51,4.75-3.33,1.83-.83,3.84-1.24,6.05-1.24,2.32,0,4.39.38,6.19,1.15,1.81.77,3.32,1.83,4.54,3.19,1.22,1.36,2.14,2.96,2.77,4.81.63,1.85.94,3.86.94,6.02v.71c-.04.24-.06.45-.06.65-.04.2-.06.41-.06.65h-21.77c.16,1.18.48,2.19.97,3.04.49.85,1.1,1.55,1.83,2.12.73.57,1.52.98,2.39,1.24.86.26,1.75.38,2.65.38,1.77,0,3.23-.4,4.4-1.21,1.16-.81,2.07-1.82,2.74-3.04l6.43,3.19ZM408.17,597.81c-.04-.51-.21-1.08-.5-1.71-.29-.63-.73-1.22-1.3-1.77-.57-.55-1.28-1-2.12-1.36-.85-.35-1.86-.53-3.04-.53-1.65,0-3.11.47-4.37,1.42-1.26.94-2.14,2.26-2.65,3.95h13.98Z"/>
  </g>
  <g>
    <g class="cls-10">
      <path d="M971.87,477.82v23.02h-3.1v-19.18l-4.48,1.95-1.18-2.62,6.76-3.16h1.99Z"/>
      <path d="M1119.1,497.87v2.96h-14.67v-3.1l5.96-6.02c2-2.04,3.38-3.57,4.14-4.59.76-1.02,1.14-2.09,1.14-3.21,0-1.01-.39-1.87-1.18-2.59-.79-.72-1.79-1.08-3.03-1.08-1.05,0-1.96.31-2.73.94-.76.63-1.26,1.39-1.48,2.29l-2.83-1.14c.45-1.41,1.31-2.61,2.59-3.58,1.28-.98,2.78-1.46,4.51-1.46,2.09,0,3.83.64,5.22,1.92,1.39,1.28,2.09,2.85,2.09,4.71,0,2.22-1.22,4.62-3.67,7.2l-6.73,6.76h10.67Z"/>
      <path d="M1263.19,494.3c0,2.02-.75,3.7-2.25,5.05-1.48,1.35-3.32,2.02-5.52,2.02-1.73,0-3.29-.52-4.68-1.55-1.41-1.08-2.37-2.48-2.86-4.21l2.83-1.18c.36,1.28.95,2.26,1.77,2.94.82.68,1.8,1.03,2.94,1.03,1.26,0,2.34-.39,3.26-1.18.9-.81,1.35-1.78,1.35-2.93s-.47-2.11-1.41-2.89c-.92-.79-2.03-1.18-3.33-1.18h-1.99v-2.89h1.75c1.23,0,2.24-.34,3.03-1.03.78-.68,1.18-1.58,1.18-2.67,0-1.01-.37-1.83-1.11-2.46-.74-.63-1.72-.94-2.93-.94-1.95,0-3.29,1-4,2.99l-2.86-1.21c.52-1.41,1.38-2.56,2.59-3.43,1.21-.88,2.64-1.31,4.27-1.31,2.04,0,3.76.61,5.15,1.82,1.37,1.17,2.05,2.68,2.05,4.54,0,2.22-1.03,3.87-3.1,4.95v.13c1.21.52,2.16,1.27,2.84,2.25.68.99,1.03,2.1,1.03,3.33Z"/>
      <path d="M1403.35,495.99v4.85h-3.1v-4.85h-10.94v-2.36l10.67-15.81h3.36v15.28h2.96v2.89h-2.96ZM1392.82,493.09h7.44v-10.73h-.13l-7.3,10.73Z"/>
      <path d="M1550.87,493.63c0,2.2-.76,4.04-2.29,5.52-1.53,1.48-3.41,2.22-5.65,2.22-1.79,0-3.42-.56-4.88-1.68-1.46-1.12-2.42-2.64-2.89-4.54l2.76-1.11c.34,1.35.95,2.41,1.83,3.2.89.79,1.92,1.18,3.11,1.18,1.43,0,2.61-.44,3.52-1.33.91-.89,1.36-2.02,1.36-3.42s-.45-2.57-1.36-3.47c-.91-.9-2.07-1.35-3.48-1.35-1.64,0-2.93.66-3.87,1.99l-3.13-1.35,1.48-11.68h12.08v2.96h-9.49l-.84,6.6.13.03c1.14-.92,2.53-1.38,4.17-1.38,2.06,0,3.82.73,5.27,2.19,1.45,1.46,2.17,3.26,2.17,5.42Z"/>
      <path d="M1687.29,486.23c1.86,0,3.52.74,4.98,2.22,1.48,1.46,2.22,3.2,2.22,5.22s-.79,3.87-2.36,5.42c-1.59,1.53-3.43,2.29-5.52,2.29-2.22,0-4.09-.76-5.62-2.29s-2.29-3.33-2.29-5.42c0-1.86.75-3.98,2.25-6.36l6.7-10.03,2.49,1.72-5.69,7.87.07.07c.7-.47,1.62-.71,2.76-.71ZM1681.84,493.7c0,1.32.46,2.45,1.38,3.36.92.9,2.05,1.35,3.4,1.35s2.47-.45,3.37-1.35c.92-.92,1.38-2.04,1.38-3.36s-.47-2.41-1.41-3.33c-.92-.92-2.03-1.38-3.33-1.38s-2.4.46-3.36,1.38c-.94.92-1.41,2.03-1.41,3.33Z"/>
    </g>
    <g class="cls-6">
      <polyline class="cls-5" points="894.48 444.73 894.48 446.97 1755.88 446.97 1755.88 444.73 894.48 444.73"/>
      <polyline class="cls-5" points="894.48 534.46 894.48 536.7 1755.88 536.7 1755.88 534.46 894.48 534.46"/>
      <polyline class="cls-5" points="894.48 444.73 894.48 536.7 896.72 536.7 896.72 444.73 894.48 444.73"/>
      <polyline class="cls-5" points="1038.05 444.73 1038.05 536.7 1040.29 536.7 1040.29 444.73 1038.05 444.73"/>
      <polyline class="cls-5" points="1181.61 444.73 1181.61 536.7 1183.86 536.7 1183.86 444.73 1181.61 444.73"/>
      <polyline class="cls-5" points="1325.18 444.73 1325.18 536.7 1327.42 536.7 1327.42 444.73 1325.18 444.73"/>
      <polyline class="cls-5" points="1468.75 444.73 1468.75 536.7 1470.99 536.7 1470.99 444.73 1468.75 444.73"/>
      <polyline class="cls-5" points="1612.31 444.73 1612.31 536.7 1614.56 536.7 1614.56 444.73 1612.31 444.73"/>
      <polyline class="cls-5" points="1755.88 444.73 1755.88 536.7 1758.12 536.7 1758.12 444.73 1755.88 444.73"/>
    </g>
  </g>
  <g>
    <path class="cls-7" d="M873.56,380.46h18.19v5.13h-12.78v6.97h11.5v5.13h-11.5v11.46h-5.41v-28.69Z"/>
    <path class="cls-7" d="M894.48,389.52h4.93v2.73h.32c.24-.48.56-.92.96-1.32s.85-.75,1.34-1.05c.49-.3,1.03-.54,1.6-.72.57-.18,1.14-.27,1.7-.27.69,0,1.29.07,1.78.22.49.15.91.34,1.26.58l-1.4,4.69c-.32-.16-.68-.29-1.06-.38-.39-.09-.86-.14-1.42-.14-.72,0-1.38.14-1.96.42-.59.28-1.09.68-1.5,1.19-.41.51-.73,1.11-.96,1.79-.23.68-.34,1.43-.34,2.23v9.67h-5.25v-19.64Z"/>
    <path class="cls-7" d="M918.88,388.88c1.52,0,2.92.26,4.19.78,1.27.52,2.36,1.24,3.29,2.16s1.64,2.02,2.16,3.31c.52,1.28.78,2.68.78,4.21s-.26,2.93-.78,4.21-1.24,2.38-2.16,3.31-2.02,1.64-3.29,2.16c-1.27.52-2.66.78-4.19.78s-2.92-.26-4.19-.78c-1.27-.52-2.36-1.24-3.29-2.16s-1.64-2.02-2.16-3.31-.78-2.68-.78-4.21.26-2.93.78-4.21c.52-1.28,1.24-2.38,2.16-3.31s2.02-1.64,3.29-2.16c1.27-.52,2.66-.78,4.19-.78ZM918.88,404.95c.67,0,1.32-.13,1.94-.38.63-.25,1.18-.62,1.66-1.1s.86-1.07,1.14-1.76c.28-.69.42-1.48.42-2.36s-.14-1.67-.42-2.36c-.28-.69-.66-1.28-1.14-1.76s-1.04-.85-1.66-1.1c-.63-.25-1.28-.38-1.94-.38s-1.35.13-1.96.38c-.62.25-1.16.62-1.64,1.1s-.86,1.07-1.14,1.76c-.28.69-.42,1.48-.42,2.36s.14,1.67.42,2.36c.28.69.66,1.28,1.14,1.76s1.03.85,1.64,1.1c.61.25,1.27.38,1.96.38Z"/>
    <path class="cls-7" d="M937.19,392.09h.32c.61-.99,1.44-1.77,2.48-2.34,1.04-.57,2.23-.86,3.57-.86,1.23,0,2.31.2,3.25.6.94.4,1.7.97,2.3,1.7.6.73,1.06,1.62,1.36,2.64.31,1.03.46,2.17.46,3.43v11.9h-5.25v-11.26c0-1.42-.31-2.46-.94-3.15-.63-.68-1.54-1.02-2.75-1.02-.72,0-1.36.15-1.9.46-.55.31-1.02.72-1.4,1.24-.39.52-.68,1.14-.88,1.84-.2.71-.3,1.46-.3,2.26v9.62h-5.25v-19.64h4.93v2.56Z"/>
    <path class="cls-7" d="M956.43,394.01h-3.45v-4.49h3.45v-6.01h5.25v6.01h4.81v4.49h-4.81v7.85c0,.47.05.9.14,1.3.09.4.27.74.54,1.01.37.44.91.66,1.6.66.45,0,.82-.05,1.08-.14.27-.09.52-.22.76-.38l1.48,4.61c-.61.29-1.28.51-1.98.66-.71.15-1.49.22-2.34.22-.99,0-1.88-.16-2.67-.47-.79-.31-1.45-.74-1.98-1.29-1.26-1.23-1.88-2.97-1.88-5.24v-8.79Z"/>
    <path class="cls-7" d="M977.99,409.16l11.9-28.69h5.17l-11.9,28.69h-5.17Z"/>
    <path class="cls-7" d="M1007.84,380.46h5.41v11.46h12.06v-11.46h5.41v28.69h-5.41v-12.1h-12.06v12.1h-5.41v-28.69Z"/>
    <path class="cls-7" d="M1054.45,404.43c-.91,1.6-2.13,2.9-3.67,3.89-1.54.99-3.41,1.48-5.63,1.48-1.5,0-2.88-.26-4.15-.78-1.27-.52-2.37-1.25-3.31-2.18-.94-.94-1.66-2.04-2.18-3.31-.52-1.27-.78-2.66-.78-4.19,0-1.42.25-2.76.76-4.03.51-1.27,1.21-2.38,2.12-3.33.91-.95,1.98-1.7,3.23-2.26s2.61-.84,4.11-.84c1.58,0,2.98.26,4.21.78s2.26,1.24,3.09,2.16,1.46,2.01,1.88,3.27c.43,1.26.64,2.62.64,4.09v.48c-.03.16-.04.31-.04.44-.03.13-.04.28-.04.44h-14.79c.11.8.33,1.49.66,2.06.33.57.75,1.06,1.24,1.44.49.39,1.03.67,1.62.84.59.17,1.19.26,1.8.26,1.2,0,2.2-.27,2.99-.82.79-.55,1.41-1.24,1.86-2.06l4.37,2.16ZM1049.68,396.81c-.03-.35-.14-.73-.34-1.16s-.49-.83-.88-1.2c-.39-.37-.87-.68-1.44-.92-.57-.24-1.26-.36-2.06-.36-1.12,0-2.11.32-2.97.96-.86.64-1.46,1.54-1.8,2.69h9.5Z"/>
    <path class="cls-7" d="M1070.43,407.07h-.32c-.61.75-1.36,1.39-2.22,1.92-.87.53-1.98.8-3.35.8-1.02,0-1.97-.17-2.87-.5-.9-.33-1.68-.79-2.34-1.38-.67-.59-1.19-1.3-1.56-2.12-.37-.83-.56-1.74-.56-2.73s.2-1.93.6-2.74c.4-.81.96-1.52,1.68-2.1.72-.59,1.57-1.04,2.54-1.34.97-.31,2.04-.46,3.19-.46,1.28,0,2.34.1,3.17.3.83.2,1.51.41,2.04.62v-.6c0-1.04-.41-1.9-1.24-2.58s-1.86-1.02-3.08-1.02c-1.82,0-3.35.76-4.61,2.28l-3.81-2.6c2.08-2.62,4.93-3.93,8.54-3.93,3.04,0,5.37.71,6.97,2.14,1.6,1.43,2.4,3.55,2.4,6.35v11.78h-5.17v-2.08ZM1070.43,401.18c-.61-.29-1.25-.53-1.9-.7-.65-.17-1.37-.26-2.14-.26-1.26,0-2.22.27-2.91.82-.68.55-1.02,1.22-1.02,2.02s.33,1.44.98,1.92c.65.48,1.41.72,2.26.72.69,0,1.34-.13,1.92-.38.59-.25,1.09-.59,1.5-1,.41-.41.73-.9.96-1.44.23-.55.34-1.12.34-1.7Z"/>
    <path class="cls-7" d="M1094.2,406.79h-.32c-.48.83-1.23,1.54-2.24,2.12-1.02.59-2.27.88-3.77.88-1.26,0-2.45-.26-3.59-.78-1.14-.52-2.14-1.24-3.01-2.16s-1.56-2.02-2.06-3.31c-.51-1.28-.76-2.68-.76-4.21s.25-2.93.76-4.21c.51-1.28,1.2-2.38,2.06-3.31s1.87-1.64,3.01-2.16c1.13-.52,2.33-.78,3.59-.78,1.5,0,2.75.29,3.77.88,1.02.59,1.76,1.3,2.24,2.12h.32l-.32-2.81v-8.62h5.25v28.69h-4.93v-2.36ZM1088.95,404.95c.69,0,1.36-.13,1.98-.38.63-.25,1.18-.62,1.66-1.1.48-.48.87-1.07,1.16-1.76.29-.69.44-1.48.44-2.36s-.15-1.67-.44-2.36c-.29-.69-.68-1.28-1.16-1.76-.48-.48-1.04-.85-1.66-1.1-.63-.25-1.29-.38-1.98-.38s-1.36.13-1.98.4c-.63.27-1.18.64-1.66,1.12s-.87,1.07-1.16,1.76c-.29.69-.44,1.47-.44,2.32s.15,1.63.44,2.32c.29.69.68,1.28,1.16,1.76s1.04.86,1.66,1.12c.63.27,1.29.4,1.98.4Z"/>
  </g>
  <g>
    <path class="cls-7" d="M1493.09,380.46h11.22c1.23,0,2.38.19,3.45.58,1.07.39,2,.92,2.79,1.6s1.41,1.48,1.86,2.38c.45.91.68,1.88.68,2.93,0,1.52-.37,2.8-1.1,3.83-.73,1.03-1.65,1.81-2.74,2.34v.32c1.47.54,2.65,1.37,3.55,2.5.89,1.14,1.34,2.54,1.34,4.23,0,1.23-.25,2.33-.74,3.31-.5.98-1.17,1.81-2.02,2.5-.85.7-1.85,1.23-2.99,1.6-1.14.37-2.36.56-3.67.56h-11.62v-28.69ZM1503.91,392.17c1.25,0,2.22-.34,2.91-1.02.68-.68,1.02-1.49,1.02-2.42s-.33-1.74-1-2.4c-.67-.67-1.59-1-2.76-1h-5.57v6.85h5.41ZM1504.51,404.19c1.36,0,2.4-.34,3.13-1.02.72-.68,1.08-1.56,1.08-2.62s-.37-1.96-1.1-2.67c-.74-.71-1.82-1.06-3.27-1.06h-5.85v7.37h6.01Z"/>
    <path class="cls-7" d="M1529.76,407.07h-.32c-.61.75-1.36,1.39-2.22,1.92-.87.53-1.98.8-3.35.8-1.02,0-1.97-.17-2.87-.5-.9-.33-1.68-.79-2.34-1.38-.67-.59-1.19-1.3-1.56-2.12-.37-.83-.56-1.74-.56-2.73s.2-1.93.6-2.74c.4-.81.96-1.52,1.68-2.1.72-.59,1.57-1.04,2.54-1.34.97-.31,2.04-.46,3.19-.46,1.28,0,2.34.1,3.17.3.83.2,1.51.41,2.04.62v-.6c0-1.04-.41-1.9-1.24-2.58s-1.86-1.02-3.08-1.02c-1.82,0-3.35.76-4.61,2.28l-3.81-2.6c2.08-2.62,4.93-3.93,8.54-3.93,3.04,0,5.37.71,6.97,2.14,1.6,1.43,2.4,3.55,2.4,6.35v11.78h-5.17v-2.08ZM1529.76,401.18c-.61-.29-1.25-.53-1.9-.7-.65-.17-1.37-.26-2.14-.26-1.26,0-2.22.27-2.91.82-.68.55-1.02,1.22-1.02,2.02s.33,1.44.98,1.92c.65.48,1.41.72,2.26.72.69,0,1.34-.13,1.92-.38.59-.25,1.09-.59,1.5-1,.41-.41.73-.9.96-1.44.23-.55.34-1.12.34-1.7Z"/>
    <path class="cls-7" d="M1557.53,404.15c-.86,1.66-2.05,3.01-3.59,4.07-1.54,1.06-3.45,1.58-5.75,1.58-1.52,0-2.92-.26-4.19-.78-1.27-.52-2.36-1.25-3.29-2.18-.92-.94-1.64-2.04-2.16-3.31-.52-1.27-.78-2.66-.78-4.19s.26-2.93.78-4.21c.52-1.28,1.24-2.38,2.16-3.31s2.02-1.64,3.29-2.16c1.27-.52,2.67-.78,4.19-.78,2.27,0,4.18.52,5.73,1.56,1.55,1.04,2.68,2.39,3.41,4.05l-4.81,2c-.46-.91-1.04-1.6-1.74-2.06-.71-.47-1.6-.7-2.67-.7-.7,0-1.35.13-1.96.4-.61.27-1.16.64-1.62,1.12s-.83,1.07-1.1,1.76c-.27.69-.4,1.47-.4,2.32s.13,1.63.4,2.32c.27.69.63,1.28,1.1,1.76s1.01.86,1.62,1.12c.61.27,1.27.4,1.96.4,1.09,0,2.02-.25,2.79-.74.76-.49,1.37-1.21,1.82-2.14l4.81,2.08Z"/>
    <path class="cls-7" d="M1560.73,380.46h5.25v15.63h.24l6.57-6.57h6.49v.32l-7.29,7.09,7.89,11.9v.32h-6.21l-5.37-8.62-2.32,2.28v6.33h-5.25v-28.69Z"/>
    <path class="cls-7" d="M1589.62,409.16l11.9-28.69h5.17l-11.9,28.69h-5.17Z"/>
    <path class="cls-7" d="M1623.97,409.16v-23.56h-8.01v-5.13h21.44v5.13h-8.01v23.56h-5.41Z"/>
    <path class="cls-7" d="M1649.69,407.07h-.32c-.61.75-1.36,1.39-2.22,1.92-.87.53-1.98.8-3.35.8-1.02,0-1.97-.17-2.87-.5-.9-.33-1.68-.79-2.34-1.38-.67-.59-1.19-1.3-1.56-2.12-.37-.83-.56-1.74-.56-2.73s.2-1.93.6-2.74c.4-.81.96-1.52,1.68-2.1.72-.59,1.57-1.04,2.54-1.34.97-.31,2.04-.46,3.19-.46,1.28,0,2.34.1,3.17.3.83.2,1.51.41,2.04.62v-.6c0-1.04-.41-1.9-1.24-2.58s-1.86-1.02-3.08-1.02c-1.82,0-3.35.76-4.61,2.28l-3.81-2.6c2.08-2.62,4.93-3.93,8.54-3.93,3.04,0,5.37.71,6.97,2.14,1.6,1.43,2.4,3.55,2.4,6.35v11.78h-5.17v-2.08ZM1649.69,401.18c-.61-.29-1.25-.53-1.9-.7-.65-.17-1.37-.26-2.14-.26-1.26,0-2.22.27-2.91.82-.68.55-1.02,1.22-1.02,2.02s.33,1.44.98,1.92c.65.48,1.41.72,2.26.72.69,0,1.34-.13,1.92-.38.59-.25,1.09-.59,1.5-1,.41-.41.73-.9.96-1.44.23-.55.34-1.12.34-1.7Z"/>
    <path class="cls-7" d="M1661.95,386.88c-.45,0-.89-.09-1.3-.26-.42-.17-.78-.41-1.08-.72-.31-.31-.55-.66-.72-1.06-.17-.4-.26-.84-.26-1.32s.09-.92.26-1.32c.17-.4.41-.75.72-1.06s.67-.55,1.08-.72c.41-.17.85-.26,1.3-.26.94,0,1.74.33,2.41.98.67.66,1,1.45,1,2.38s-.33,1.73-1,2.38c-.67.65-1.47.98-2.41.98ZM1659.35,409.16v-19.64h5.25v19.64h-5.25Z"/>
    <path class="cls-7" d="M1669.41,409.16v-28.69h5.25v28.69h-5.25Z"/>
    <path class="cls-7" d="M1686.8,409.16l11.9-28.69h5.17l-11.9,28.69h-5.17Z"/>
    <path class="cls-7" d="M1716.65,380.46h10.46c1.44,0,2.75.23,3.93.68,1.17.45,2.18,1.08,3.03,1.88.84.8,1.49,1.76,1.94,2.87.45,1.11.68,2.32.68,3.63,0,.96-.16,1.86-.48,2.71-.32.84-.76,1.6-1.32,2.28-.56.68-1.22,1.28-1.96,1.8-.75.52-1.54.93-2.36,1.22l-.04.28,7.69,11.02v.32h-6.21l-7.41-10.78h-2.52v10.78h-5.41v-28.69ZM1727.07,393.41c1.23,0,2.24-.37,3.03-1.12.79-.75,1.18-1.7,1.18-2.85,0-.51-.09-1-.26-1.48s-.43-.91-.78-1.28c-.35-.37-.78-.67-1.3-.9-.52-.23-1.12-.34-1.78-.34h-5.09v7.97h5.01Z"/>
    <path class="cls-7" d="M1759.05,404.43c-.91,1.6-2.13,2.9-3.67,3.89-1.54.99-3.41,1.48-5.63,1.48-1.5,0-2.88-.26-4.15-.78-1.27-.52-2.37-1.25-3.31-2.18-.94-.94-1.66-2.04-2.18-3.31-.52-1.27-.78-2.66-.78-4.19,0-1.42.25-2.76.76-4.03.51-1.27,1.21-2.38,2.12-3.33.91-.95,1.98-1.7,3.23-2.26s2.61-.84,4.11-.84c1.58,0,2.98.26,4.21.78s2.26,1.24,3.09,2.16,1.46,2.01,1.88,3.27c.43,1.26.64,2.62.64,4.09v.48c-.03.16-.04.31-.04.44-.03.13-.04.28-.04.44h-14.79c.11.8.33,1.49.66,2.06.33.57.75,1.06,1.24,1.44.49.39,1.03.67,1.62.84.59.17,1.19.26,1.8.26,1.2,0,2.2-.27,2.99-.82.79-.55,1.41-1.24,1.86-2.06l4.37,2.16ZM1754.28,396.81c-.03-.35-.14-.73-.34-1.16s-.49-.83-.88-1.2c-.39-.37-.87-.68-1.44-.92-.57-.24-1.26-.36-2.06-.36-1.12,0-2.11.32-2.97.96-.86.64-1.46,1.54-1.8,2.69h9.5Z"/>
    <path class="cls-7" d="M1775.04,407.07h-.32c-.61.75-1.36,1.39-2.22,1.92-.87.53-1.98.8-3.35.8-1.02,0-1.97-.17-2.87-.5-.9-.33-1.68-.79-2.34-1.38-.67-.59-1.19-1.3-1.56-2.12-.37-.83-.56-1.74-.56-2.73s.2-1.93.6-2.74c.4-.81.96-1.52,1.68-2.1.72-.59,1.57-1.04,2.54-1.34.97-.31,2.04-.46,3.19-.46,1.28,0,2.34.1,3.17.3.83.2,1.51.41,2.04.62v-.6c0-1.04-.41-1.9-1.24-2.58s-1.86-1.02-3.08-1.02c-1.82,0-3.35.76-4.61,2.28l-3.81-2.6c2.08-2.62,4.93-3.93,8.54-3.93,3.04,0,5.37.71,6.97,2.14,1.6,1.43,2.4,3.55,2.4,6.35v11.78h-5.17v-2.08ZM1775.04,401.18c-.61-.29-1.25-.53-1.9-.7-.65-.17-1.37-.26-2.14-.26-1.26,0-2.22.27-2.91.82-.68.55-1.02,1.22-1.02,2.02s.33,1.44.98,1.92c.65.48,1.41.72,2.26.72.69,0,1.34-.13,1.92-.38.59-.25,1.09-.59,1.5-1,.41-.41.73-.9.96-1.44.23-.55.34-1.12.34-1.7Z"/>
    <path class="cls-7" d="M1784.38,389.52h4.93v2.73h.32c.24-.48.56-.92.96-1.32.4-.4.85-.75,1.34-1.05.49-.3,1.03-.54,1.6-.72s1.14-.27,1.7-.27c.69,0,1.29.07,1.78.22s.92.34,1.26.58l-1.4,4.69c-.32-.16-.67-.29-1.06-.38-.39-.09-.86-.14-1.42-.14-.72,0-1.38.14-1.96.42-.59.28-1.09.68-1.5,1.19s-.74,1.11-.96,1.79c-.23.68-.34,1.43-.34,2.23v9.67h-5.25v-19.64Z"/>
  </g>
  <g>
    <path class="cls-2" d="M1785.86,477.69c27.94-1.01,164.37-9.71,102.25-82.57-69.04-80.96-45.54-50.02-45.54-50.02"/>
    <polygon class="cls-7" points="1801.7 495.17 1804.59 491.72 1787.58 477.48 1803.03 461.55 1799.8 458.42 1780.98 477.82 1801.7 495.17"/>
  </g>
  <g>
    <path class="cls-2" d="M915.1,641.93c-27.94-1.01-164.37-9.71-102.25-82.57,69.04-80.96,45.54-50.02,45.54-50.02"/>
    <polygon class="cls-7" points="901.16 622.66 897.93 625.79 913.38 641.72 896.37 655.97 899.26 659.42 919.98 642.06 901.16 622.66"/>
  </g>
  <g>
    <g class="cls-1">
      <path d="M1004,640.67c0-3.5.86-6.38,2.59-8.65s3.95-3.4,6.66-3.4,4.94,1.14,6.66,3.43c1.73,2.27,2.59,5.14,2.59,8.61s-.86,6.34-2.59,8.65c-1.73,2.27-3.95,3.4-6.66,3.4s-4.93-1.13-6.66-3.4c-1.73-2.31-2.59-5.19-2.59-8.65ZM1019.35,640.67c0-2.65-.56-4.82-1.68-6.53-1.1-1.71-2.57-2.56-4.41-2.56s-3.31.85-4.41,2.56c-1.12,1.71-1.68,3.88-1.68,6.53s.56,4.83,1.68,6.56c1.1,1.68,2.57,2.52,4.41,2.52s3.31-.85,4.41-2.56c1.12-1.73,1.68-3.9,1.68-6.53Z"/>
    </g>
    <g class="cls-8">
      <polyline class="cls-5" points="939.71 596.08 939.71 598.32 1083.28 598.32 1083.28 596.08 939.71 596.08"/>
      <polyline class="cls-5" points="939.71 685.81 939.71 688.05 1083.28 688.05 1083.28 685.81 939.71 685.81"/>
      <polyline class="cls-5" points="939.71 596.08 939.71 688.05 941.95 688.05 941.95 596.08 939.71 596.08"/>
      <polyline class="cls-5" points="1083.28 596.08 1083.28 688.05 1085.52 688.05 1085.52 596.08 1083.28 596.08"/>
    </g>
  </g>
  <g>
    <g class="cls-9">
      <path d="M1822.09,266.92l-11.15,20.35-2.75-1.41,10.64-19.14h-11.62l.07-2.95h14.81v3.16Z"/>
    </g>
    <g class="cls-4">
      <polyline class="cls-5" points="1740.98 230.75 1740.98 232.99 1884.23 232.99 1884.23 230.75 1740.98 230.75"/>
      <polyline class="cls-5" points="1740.98 320.28 1740.98 322.52 1884.23 322.52 1884.23 320.28 1740.98 320.28"/>
      <polyline class="cls-5" points="1740.98 230.75 1740.98 322.52 1743.22 322.52 1743.22 230.75 1740.98 230.75"/>
      <polyline class="cls-5" points="1884.23 230.75 1884.23 322.52 1886.46 322.52 1886.46 230.75 1884.23 230.75"/>
    </g>
  </g>
  <g>
    <path class="cls-7" d="M933.67,717.56h9.7c2.27,0,4.31.35,6.13,1.04,1.82.7,3.37,1.68,4.65,2.95,1.28,1.27,2.26,2.79,2.95,4.55.68,1.76,1.02,3.7,1.02,5.81s-.34,4.09-1.02,5.85c-.68,1.76-1.66,3.27-2.95,4.53-1.28,1.26-2.83,2.23-4.65,2.92-1.82.7-3.86,1.04-6.13,1.04h-9.7v-28.69ZM943.13,741.12c1.58,0,2.97-.22,4.17-.66,1.2-.44,2.2-1.06,3.01-1.86.8-.8,1.4-1.77,1.8-2.91.4-1.13.6-2.4.6-3.79s-.2-2.65-.6-3.79-1-2.1-1.8-2.91c-.8-.8-1.8-1.42-3.01-1.86-1.2-.44-2.59-.66-4.17-.66h-4.05v18.43h4.05Z"/>
    <path class="cls-7" d="M979.83,741.52c-.91,1.6-2.13,2.9-3.67,3.89-1.54.99-3.41,1.48-5.63,1.48-1.5,0-2.88-.26-4.15-.78-1.27-.52-2.37-1.25-3.31-2.18-.94-.93-1.66-2.04-2.18-3.31-.52-1.27-.78-2.67-.78-4.19,0-1.42.25-2.76.76-4.03.51-1.27,1.22-2.38,2.12-3.33s1.98-1.7,3.23-2.26c1.24-.56,2.61-.84,4.11-.84,1.58,0,2.98.26,4.21.78,1.23.52,2.26,1.24,3.09,2.16.83.92,1.46,2.01,1.88,3.27.43,1.26.64,2.62.64,4.09v.48c-.03.16-.04.31-.04.44-.03.13-.04.28-.04.44h-14.79c.11.8.33,1.49.66,2.06.33.57.75,1.06,1.24,1.44.49.39,1.03.67,1.62.84.59.17,1.19.26,1.8.26,1.2,0,2.2-.27,2.99-.82.79-.55,1.41-1.24,1.86-2.06l4.37,2.16ZM975.07,733.91c-.03-.35-.14-.73-.34-1.16-.2-.43-.49-.83-.88-1.2-.39-.37-.87-.68-1.44-.92-.57-.24-1.26-.36-2.06-.36-1.12,0-2.11.32-2.97.96-.86.64-1.46,1.54-1.8,2.68h9.5Z"/>
    <path class="cls-7" d="M998.03,746.69l.32-2.8h-.32c-.48.83-1.23,1.54-2.24,2.12-1.02.59-2.27.88-3.77.88-1.26,0-2.45-.26-3.59-.78-1.14-.52-2.14-1.24-3.01-2.16-.87-.92-1.56-2.02-2.06-3.31-.51-1.28-.76-2.68-.76-4.21s.25-2.92.76-4.21c.51-1.28,1.2-2.38,2.06-3.31.87-.92,1.87-1.64,3.01-2.16,1.13-.52,2.33-.78,3.59-.78,1.5,0,2.75.29,3.77.88,1.02.59,1.76,1.3,2.24,2.12h.32v-2.36h4.93v28.29h-5.25v-8.22ZM993.1,742.04c.69,0,1.36-.13,1.98-.38s1.18-.62,1.66-1.1c.48-.48.87-1.07,1.16-1.76.29-.7.44-1.48.44-2.37s-.15-1.67-.44-2.36c-.29-.69-.68-1.28-1.16-1.76-.48-.48-1.04-.85-1.66-1.1-.63-.25-1.29-.38-1.98-.38s-1.36.13-1.98.4c-.63.27-1.18.64-1.66,1.12s-.87,1.07-1.16,1.76c-.29.7-.44,1.47-.44,2.32s.15,1.63.44,2.32c.29.7.68,1.28,1.16,1.76s1.04.86,1.66,1.12c.63.27,1.29.4,1.98.4Z"/>
    <path class="cls-7" d="M1021.19,743.68h-.32c-.61.99-1.44,1.77-2.48,2.34s-2.23.86-3.57.86c-2.48,0-4.33-.76-5.55-2.28-1.22-1.52-1.82-3.55-1.82-6.09v-11.9h5.25v11.26c0,1.42.31,2.46.94,3.15.63.68,1.54,1.02,2.75,1.02.72,0,1.36-.15,1.9-.46.55-.31,1.01-.72,1.4-1.24.39-.52.68-1.13.88-1.84s.3-1.46.3-2.26v-9.62h5.25v19.64h-4.93v-2.56Z"/>
    <path class="cls-7" d="M1049,741.52c-.91,1.6-2.13,2.9-3.67,3.89-1.54.99-3.41,1.48-5.63,1.48-1.5,0-2.88-.26-4.15-.78-1.27-.52-2.37-1.25-3.31-2.18-.94-.93-1.66-2.04-2.18-3.31-.52-1.27-.78-2.67-.78-4.19,0-1.42.25-2.76.76-4.03.51-1.27,1.21-2.38,2.12-3.33s1.98-1.7,3.23-2.26c1.24-.56,2.61-.84,4.11-.84,1.58,0,2.98.26,4.21.78,1.23.52,2.26,1.24,3.09,2.16.83.92,1.46,2.01,1.88,3.27.43,1.26.64,2.62.64,4.09v.48c-.03.16-.04.31-.04.44-.03.13-.04.28-.04.44h-14.79c.11.8.33,1.49.66,2.06.33.57.75,1.06,1.24,1.44.49.39,1.03.67,1.62.84.59.17,1.19.26,1.8.26,1.2,0,2.2-.27,2.99-.82.79-.55,1.41-1.24,1.86-2.06l4.37,2.16ZM1044.23,733.91c-.03-.35-.14-.73-.34-1.16-.2-.43-.49-.83-.88-1.2-.39-.37-.87-.68-1.44-.92-.57-.24-1.26-.36-2.06-.36-1.12,0-2.11.32-2.97.96-.86.64-1.46,1.54-1.8,2.68h9.5Z"/>
    <path class="cls-7" d="M1066.27,743.68h-.32c-.61.99-1.44,1.77-2.48,2.34s-2.23.86-3.57.86c-2.48,0-4.33-.76-5.55-2.28-1.22-1.52-1.82-3.55-1.82-6.09v-11.9h5.25v11.26c0,1.42.31,2.46.94,3.15.63.68,1.54,1.02,2.75,1.02.72,0,1.36-.15,1.9-.46.55-.31,1.01-.72,1.4-1.24.39-.52.68-1.13.88-1.84s.3-1.46.3-2.26v-9.62h5.25v19.64h-4.93v-2.56Z"/>
    <path class="cls-7" d="M1094.08,741.52c-.91,1.6-2.13,2.9-3.67,3.89-1.54.99-3.41,1.48-5.63,1.48-1.5,0-2.88-.26-4.15-.78-1.27-.52-2.37-1.25-3.31-2.18-.94-.93-1.66-2.04-2.18-3.31-.52-1.27-.78-2.67-.78-4.19,0-1.42.25-2.76.76-4.03.51-1.27,1.21-2.38,2.12-3.33s1.98-1.7,3.23-2.26c1.24-.56,2.61-.84,4.11-.84,1.58,0,2.98.26,4.21.78,1.23.52,2.26,1.24,3.09,2.16.83.92,1.46,2.01,1.88,3.27.43,1.26.64,2.62.64,4.09v.48c-.03.16-.04.31-.04.44-.03.13-.04.28-.04.44h-14.79c.11.8.33,1.49.66,2.06.33.57.75,1.06,1.24,1.44.49.39,1.03.67,1.62.84.59.17,1.19.26,1.8.26,1.2,0,2.2-.27,2.99-.82.79-.55,1.41-1.24,1.86-2.06l4.37,2.16ZM1089.31,733.91c-.03-.35-.14-.73-.34-1.16-.2-.43-.49-.83-.88-1.2-.39-.37-.87-.68-1.44-.92-.57-.24-1.26-.36-2.06-.36-1.12,0-2.11.32-2.97.96-.86.64-1.46,1.54-1.8,2.68h9.5Z"/>
  </g>
  <g>
    <path class="cls-7" d="M1751.51,182.06v6.65h11.5v5.13h-11.5v6.65h12.78v5.13h-18.19v-28.69h18.19v5.13h-12.78Z"/>
    <path class="cls-7" d="M1773.15,188.55h.32c.61-.99,1.44-1.77,2.48-2.34,1.04-.57,2.23-.86,3.57-.86,1.23,0,2.31.2,3.25.6.93.4,1.7.97,2.3,1.7.6.73,1.05,1.62,1.36,2.64.31,1.03.46,2.17.46,3.43v11.9h-5.25v-11.26c0-1.42-.31-2.46-.94-3.15s-1.54-1.02-2.75-1.02c-.72,0-1.36.15-1.9.46-.55.31-1.02.72-1.4,1.24-.39.52-.68,1.14-.88,1.84-.2.71-.3,1.46-.3,2.26v9.62h-5.25v-19.64h4.93v2.56Z"/>
    <path class="cls-7" d="M1805.53,206.06l.32-2.81h-.32c-.48.83-1.23,1.54-2.24,2.12-1.02.59-2.27.88-3.77.88-1.26,0-2.45-.26-3.59-.78-1.14-.52-2.14-1.24-3.01-2.16s-1.56-2.02-2.06-3.31c-.51-1.28-.76-2.68-.76-4.21s.25-2.93.76-4.21c.51-1.28,1.2-2.38,2.06-3.31s1.87-1.64,3.01-2.16c1.13-.52,2.33-.78,3.59-.78,1.5,0,2.75.29,3.77.88,1.02.59,1.76,1.3,2.24,2.12h.32v-2.36h4.93v28.29h-5.25v-8.21ZM1800.6,201.41c.69,0,1.36-.13,1.98-.38.63-.25,1.18-.62,1.66-1.1.48-.48.87-1.07,1.16-1.76.29-.69.44-1.48.44-2.36s-.15-1.67-.44-2.36c-.29-.69-.68-1.28-1.16-1.76-.48-.48-1.04-.85-1.66-1.1-.63-.25-1.29-.38-1.98-.38s-1.36.13-1.98.4c-.63.27-1.18.64-1.66,1.12s-.87,1.07-1.16,1.76c-.29.69-.44,1.47-.44,2.32s.15,1.63.44,2.32c.29.69.68,1.28,1.16,1.76s1.04.86,1.66,1.12c.63.27,1.29.4,1.98.4Z"/>
    <path class="cls-7" d="M1828.69,203.05h-.32c-.61.99-1.44,1.77-2.48,2.34s-2.23.86-3.57.86c-2.48,0-4.33-.76-5.55-2.28-1.22-1.52-1.82-3.55-1.82-6.09v-11.9h5.25v11.26c0,1.42.31,2.46.94,3.15.63.68,1.54,1.02,2.75,1.02.72,0,1.36-.15,1.9-.46.55-.31,1.01-.72,1.4-1.24.39-.52.68-1.14.88-1.84.2-.71.3-1.46.3-2.26v-9.62h5.25v19.64h-4.93v-2.56Z"/>
    <path class="cls-7" d="M1856.5,200.89c-.91,1.6-2.13,2.9-3.67,3.89-1.54.99-3.41,1.48-5.63,1.48-1.5,0-2.88-.26-4.15-.78-1.27-.52-2.37-1.25-3.31-2.18-.94-.94-1.66-2.04-2.18-3.31-.52-1.27-.78-2.66-.78-4.19,0-1.42.25-2.76.76-4.03.51-1.27,1.21-2.38,2.12-3.33.91-.95,1.98-1.7,3.23-2.26s2.61-.84,4.11-.84c1.58,0,2.98.26,4.21.78s2.26,1.24,3.09,2.16,1.46,2.01,1.88,3.27c.43,1.26.64,2.62.64,4.09v.48c-.03.16-.04.31-.04.44-.03.13-.04.28-.04.44h-14.79c.11.8.33,1.49.66,2.06.33.57.75,1.06,1.24,1.44.49.39,1.03.67,1.62.84.59.17,1.19.26,1.8.26,1.2,0,2.2-.27,2.99-.82.79-.55,1.41-1.24,1.86-2.06l4.37,2.16ZM1851.73,193.28c-.03-.35-.14-.73-.34-1.16s-.49-.83-.88-1.2c-.39-.37-.87-.68-1.44-.92-.57-.24-1.26-.36-2.06-.36-1.12,0-2.11.32-2.97.96-.86.64-1.46,1.54-1.8,2.69h9.5Z"/>
    <path class="cls-7" d="M1873.77,203.05h-.32c-.61.99-1.44,1.77-2.48,2.34s-2.23.86-3.57.86c-2.48,0-4.33-.76-5.55-2.28-1.22-1.52-1.82-3.55-1.82-6.09v-11.9h5.25v11.26c0,1.42.31,2.46.94,3.15.63.68,1.54,1.02,2.75,1.02.72,0,1.36-.15,1.9-.46.55-.31,1.01-.72,1.4-1.24.39-.52.68-1.14.88-1.84.2-.71.3-1.46.3-2.26v-9.62h5.25v19.64h-4.93v-2.56Z"/>
    <path class="cls-7" d="M1901.58,200.89c-.91,1.6-2.13,2.9-3.67,3.89-1.54.99-3.41,1.48-5.63,1.48-1.5,0-2.88-.26-4.15-.78-1.27-.52-2.37-1.25-3.31-2.18-.94-.94-1.66-2.04-2.18-3.31-.52-1.27-.78-2.66-.78-4.19,0-1.42.25-2.76.76-4.03.51-1.27,1.21-2.38,2.12-3.33.91-.95,1.98-1.7,3.23-2.26s2.61-.84,4.11-.84c1.58,0,2.98.26,4.21.78s2.26,1.24,3.09,2.16,1.46,2.01,1.88,3.27c.43,1.26.64,2.62.64,4.09v.48c-.03.16-.04.31-.04.44-.03.13-.04.28-.04.44h-14.79c.11.8.33,1.49.66,2.06.33.57.75,1.06,1.24,1.44.49.39,1.03.67,1.62.84.59.17,1.19.26,1.8.26,1.2,0,2.2-.27,2.99-.82.79-.55,1.41-1.24,1.86-2.06l4.37,2.16ZM1896.81,193.28c-.03-.35-.14-.73-.34-1.16s-.49-.83-.88-1.2c-.39-.37-.87-.68-1.44-.92-.57-.24-1.26-.36-2.06-.36-1.12,0-2.11.32-2.97.96-.86.64-1.46,1.54-1.8,2.69h9.5Z"/>
  </g>
</svg>