<?xml version="1.0" encoding="UTF-8"?>
<svg id="Layer_1" data-name="Layer 1" xmlns="http://www.w3.org/2000/svg" xmlns:xlink="http://www.w3.org/1999/xlink" viewBox="0 0 1707.32 526.83">
  <defs>
    <style>
      .cls-1 {
        clip-path: url(#clippath-4);
      }

      .cls-2 {
        stroke: #252b2e;
        stroke-linecap: round;
        stroke-linejoin: round;
        stroke-width: 6px;
      }

      .cls-2, .cls-3 {
        fill: none;
      }

      .cls-4 {
        letter-spacing: -.03em;
      }

      .cls-5 {
        font-size: 53px;
      }

      .cls-6 {
        font-size: 36px;
      }

      .cls-6, .cls-7, .cls-8 {
        fill: #252b2e;
      }

      .cls-6, .cls-8 {
        font-family: ProductSans-Bold, 'Product Sans';
        font-weight: 700;
      }

      .cls-9 {
        letter-spacing: -.02em;
      }

      .cls-10 {
        clip-path: url(#clippath-9);
      }

      .cls-11 {
        letter-spacing: 0em;
      }

      .cls-12 {
        letter-spacing: -.04em;
      }

      .cls-13 {
        letter-spacing: 0em;
      }

      .cls-14 {
        letter-spacing: 0em;
      }

      .cls-15 {
        letter-spacing: 0em;
      }

      .cls-16 {
        font-size: 30.16px;
      }

      .cls-16, .cls-17, .cls-18 {
        font-family: ProductSans-Regular, 'Product Sans';
      }

      .cls-19 {
        fill: #757272ff;
        fill-rule: evenodd;
      }

      .cls-20 {
        clip-path: url(#clippath-1);
      }

      .cls-17 {
        font-size: 30.23px;
      }

      .cls-21 {
        letter-spacing: 0em;
      }

      .cls-22 {
        letter-spacing: -.03em;
      }

      .cls-23 {
        clip-path: url(#clippath-5);
      }

      .cls-24 {
        clip-path: url(#clippath-8);
      }

      .cls-18 {
        font-size: 30.23px;
      }

      .cls-25 {
        letter-spacing: 0em;
      }

      .cls-26 {
        letter-spacing: 0em;
      }

      .cls-3 {
        clip-rule: evenodd;
      }

      .cls-27 {
        letter-spacing: 0em;
      }

      .cls-28 {
        font-size: 184.18px;
      }

      .cls-29 {
        letter-spacing: 0em;
      }

      .cls-30 {
        letter-spacing: -.02em;
      }

      .cls-31 {
        letter-spacing: 0em;
      }

      .cls-32 {
        letter-spacing: 0em;
      }

      .cls-33 {
        letter-spacing: -.01em;
      }

      .cls-34 {
        letter-spacing: 0em;
      }

      .cls-35 {
        letter-spacing: -.02em;
      }

      .cls-36 {
        letter-spacing: 0em;
      }

      .cls-37 {
        letter-spacing: 0em;
      }

      .cls-38 {
        clip-path: url(#clippath);
      }

      .cls-39 {
        letter-spacing: -.02em;
      }

      .cls-40 {
        letter-spacing: -.07em;
      }
    </style>
    <clipPath id="clippath">
      <polygon class="cls-3" points="799.29 247.71 1573.14 247.71 1573.14 328.32 799.29 328.32 799.29 247.71 799.29 247.71"/>
    </clipPath>
    <clipPath id="clippath-1">
      <polygon class="cls-3" points="797.28 245.7 1573.14 245.7 1573.14 328.32 797.28 328.32 797.28 245.7 797.28 245.7"/>
    </clipPath>
    <clipPath id="clippath-4">
      <polygon class="cls-3" points="839.92 383.68 968.9 383.68 968.9 464.28 839.92 464.28 839.92 383.68 839.92 383.68"/>
    </clipPath>
    <clipPath id="clippath-5">
      <polygon class="cls-3" points="837.91 381.66 968.9 381.66 968.9 464.28 837.91 464.28 837.91 381.66 837.91 381.66"/>
    </clipPath>
    <clipPath id="clippath-8">
      <polygon class="cls-3" points="1559.75 55.47 1688.44 55.47 1688.44 135.9 1559.75 135.9 1559.75 55.47 1559.75 55.47"/>
    </clipPath>
    <clipPath id="clippath-9">
      <polygon class="cls-3" points="1557.74 53.46 1688.44 53.46 1688.44 135.9 1557.74 135.9 1557.74 53.46 1557.74 53.46"/>
    </clipPath>
  </defs>
  <text class="cls-8" transform="translate(0 335.94)"><tspan class="cls-28"><tspan x="0" y="0">Q</tspan><tspan class="cls-32" x="151.4" y="0">u</tspan><tspan x="256.2" y="0">e</tspan><tspan class="cls-32" x="358.6" y="0">u</tspan><tspan x="463.4" y="0">e</tspan></tspan><tspan class="cls-5"><tspan x="0" y="63.6">D</tspan><tspan class="cls-33" x="38.11" y="63.6">at</tspan><tspan x="86.65" y="63.6">a</tspan><tspan class="cls-22" x="115.01" y="63.6"> </tspan><tspan class="cls-9" x="125.08" y="63.6">S</tspan><tspan x="154.23" y="63.6">tr</tspan><tspan class="cls-36" x="197.05" y="63.6">uc</tspan><tspan class="cls-15" x="255.83" y="63.6">tu</tspan><tspan class="cls-22" x="307.5" y="63.6">r</tspan><tspan class="cls-34" x="327.48" y="63.6">e</tspan></tspan></text>
  <g>
    <g class="cls-38">
      <text class="cls-18" transform="translate(857.74 296.1)"><tspan x="0" y="0">1</tspan></text>
      <text class="cls-18" transform="translate(984.68 296.1)"><tspan x="0" y="0">2</tspan></text>
      <text class="cls-18" transform="translate(1113.67 296.1)"><tspan x="0" y="0">3</tspan></text>
      <text class="cls-18" transform="translate(1240.62 296.1)"><tspan x="0" y="0">4</tspan></text>
      <text class="cls-18" transform="translate(1371.63 296.1)"><tspan x="0" y="0">5</tspan></text>
      <text class="cls-18" transform="translate(1500.59 296.1)"><tspan x="0" y="0">6</tspan></text>
    </g>
    <g class="cls-20">
      <polyline class="cls-19" points="797.28 245.7 797.28 247.71 1571.12 247.71 1571.12 245.7 797.28 245.7"/>
      <polyline class="cls-19" points="797.28 326.31 797.28 328.32 1571.12 328.32 1571.12 326.31 797.28 326.31"/>
      <polyline class="cls-19" points="797.28 245.7 797.28 328.32 799.29 328.32 799.29 245.7 797.28 245.7"/>
      <polyline class="cls-19" points="926.25 245.7 926.25 328.32 928.27 328.32 928.27 245.7 926.25 245.7"/>
      <polyline class="cls-19" points="1055.22 245.7 1055.22 328.32 1057.24 328.32 1057.24 245.7 1055.22 245.7"/>
      <polyline class="cls-19" points="1184.2 245.7 1184.2 328.32 1186.21 328.32 1186.21 245.7 1184.2 245.7"/>
      <polyline class="cls-19" points="1313.17 245.7 1313.17 328.32 1315.19 328.32 1315.19 245.7 1313.17 245.7"/>
      <polyline class="cls-19" points="1442.15 245.7 1442.15 328.32 1444.16 328.32 1444.16 245.7 1442.15 245.7"/>
      <polyline class="cls-19" points="1571.12 245.7 1571.12 328.32 1573.14 328.32 1573.14 245.7 1571.12 245.7"/>
    </g>
  </g>
  <text class="cls-6" transform="translate(775.89 213.74)"><tspan class="cls-30" x="0" y="0">F</tspan><tspan class="cls-4" x="19.37" y="0">r</tspan><tspan class="cls-31" x="32.94" y="0">o</tspan><tspan class="cls-39" x="53.32" y="0">n</tspan><tspan x="73.08" y="0">t / H</tspan><tspan class="cls-26" x="146.37" y="0">e</tspan><tspan class="cls-11" x="166.57" y="0">a</tspan><tspan x="185.65" y="0">d</tspan></text>
  <text class="cls-6" transform="translate(1332.45 213.74)"><tspan x="0" y="0">B</tspan><tspan class="cls-11" x="22.64" y="0">a</tspan><tspan class="cls-13" x="41.72" y="0">ck /</tspan><tspan class="cls-12" x="105.62" y="0"> </tspan><tspan class="cls-40" x="112.1" y="0">T</tspan><tspan class="cls-25" x="130.39" y="0">ail / </tspan><tspan class="cls-29" x="200.84" y="0">R</tspan><tspan class="cls-14" x="222.8" y="0">e</tspan><tspan class="cls-25" x="243" y="0">ar</tspan></text>
  <g>
    <path class="cls-2" d="M1598.55,275.28c26.17-.99,146.81-9.13,91.36-74.16-62.02-72.73-40.91-44.93-40.91-44.93"/>
    <polygon class="cls-7" points="1614.42 292.74 1617.31 289.29 1600.27 275.07 1615.7 259.12 1612.46 255.99 1593.68 275.42 1614.42 292.74"/>
  </g>
  <g>
    <path class="cls-2" d="M815.31,422.84c-26.17-.99-146.81-9.13-91.36-74.16,62.02-72.73,40.91-44.93,40.91-44.93"/>
    <polygon class="cls-7" points="801.4 403.54 798.16 406.67 813.58 422.62 796.55 436.84 799.44 440.29 820.18 422.97 801.4 403.54"/>
  </g>
  <g>
    <g class="cls-1">
      <text class="cls-17" transform="translate(894.34 432.06)"><tspan x="0" y="0">0</tspan></text>
    </g>
    <g class="cls-23">
      <polyline class="cls-19" points="837.91 381.66 837.91 383.68 966.88 383.68 966.88 381.66 837.91 381.66"/>
      <polyline class="cls-19" points="837.91 462.27 837.91 464.28 966.88 464.28 966.88 462.27 837.91 462.27"/>
      <polyline class="cls-19" points="837.91 381.66 837.91 464.28 839.92 464.28 839.92 381.66 837.91 381.66"/>
      <polyline class="cls-19" points="966.88 381.66 966.88 464.28 968.9 464.28 968.9 381.66 966.88 381.66"/>
    </g>
  </g>
  <g>
    <g class="cls-24">
      <text class="cls-16" transform="translate(1616.04 103.75)"><tspan x="0" y="0">7</tspan></text>
    </g>
    <g class="cls-10">
      <polyline class="cls-19" points="1557.74 53.46 1557.74 55.47 1686.43 55.47 1686.43 53.46 1557.74 53.46"/>
      <polyline class="cls-19" points="1557.74 133.89 1557.74 135.9 1686.43 135.9 1686.43 133.89 1557.74 133.89"/>
      <polyline class="cls-19" points="1557.74 53.46 1557.74 135.9 1559.75 135.9 1559.75 53.46 1557.74 53.46"/>
      <polyline class="cls-19" points="1686.43 53.46 1686.43 135.9 1688.44 135.9 1688.44 53.46 1686.43 53.46"/>
    </g>
  </g>
  <text class="cls-6" transform="translate(829.89 516.57)"><tspan class="cls-35" x="0" y="0">D</tspan><tspan class="cls-26" x="25.34" y="0">e</tspan><tspan x="45.54" y="0">q</tspan><tspan class="cls-11" x="67" y="0">u</tspan><tspan class="cls-37" x="87.48" y="0">e</tspan><tspan class="cls-21" x="107.5" y="0">u</tspan><tspan class="cls-37" x="127.98" y="0">e</tspan></text>
  <text class="cls-6" transform="translate(1559.75 30.89)"><tspan class="cls-31" x="0" y="0">E</tspan><tspan x="20.45" y="0">nq</tspan><tspan class="cls-27" x="62.57" y="0">u</tspan><tspan x="83.05" y="0">e</tspan><tspan class="cls-11" x="103.07" y="0">u</tspan><tspan x="123.55" y="0">e</tspan></text>
</svg>